<svg width="80" height="80" viewBox="0 0 80 80" fill="none" xmlns="http://www.w3.org/2000/svg">
<path d="M55.4209 27.5873C55.5641 28.1499 55.677 28.723 55.7577 29.3054C60.5699 34.0529 63.3344 40.5192 63.3344 47.4248V49.5461C63.3344 64.0356 53.6872 75 40.0015 75C26.3151 75 16.667 64.0354 16.667 49.5461V47.4248C16.667 40.5194 19.4316 34.053 24.2438 29.3054C24.325 28.7229 24.4379 28.1498 24.5806 27.5873C13.975 32.8341 7.12137 43.2541 7.12137 54.8482C7.12137 55.4344 6.64623 55.9089 6.06069 55.9089C5.47514 55.9089 5 55.4344 5 54.8482C5 41.7295 13.1722 30.0374 25.5747 24.7989C25.6864 24.5595 25.8036 24.3226 25.927 24.0893C17.1736 24.0242 11.8677 20.9366 10.3344 14.8027C10.1924 14.2345 10.5379 13.6583 11.1061 13.5163C11.6742 13.3742 12.2499 13.7197 12.3919 14.2879C13.4681 18.5931 16.8244 21.0941 22.6613 21.777C20.076 19.183 18.7876 15.3324 18.7876 10.3026C18.7876 9.71704 19.2621 9.24253 19.8483 9.24253C20.4338 9.24253 20.9083 9.71704 20.9083 10.3026C20.9083 16.1814 22.7673 20.0105 26.4686 21.9693H27.2713L27.2725 21.9681V17.7273C27.2725 10.6983 32.9704 5 40 5C47.0291 5 52.7269 10.6985 52.7269 17.7273V21.9681L52.7288 21.9693H53.5314C57.2327 20.0105 59.0911 16.1816 59.0911 10.3026C59.0911 9.71704 59.5662 9.24253 60.1517 9.24253C60.7373 9.24253 61.2124 9.71704 61.2124 10.3026C61.2124 15.3324 59.9235 19.183 57.3387 21.777C63.1749 21.0941 66.5313 18.5925 67.6075 14.2879C67.7495 13.7197 68.3251 13.3742 68.8933 13.5163C69.4615 13.6583 69.807 14.2345 69.6649 14.8027C68.1316 20.9366 62.8258 24.0242 54.0723 24.0893C54.1958 24.3226 54.3136 24.5595 54.4253 24.7989C66.8278 30.0377 75 41.729 75 54.8482C75 55.4344 74.5255 55.9089 73.9393 55.9089C73.3538 55.9089 72.8792 55.4344 72.8792 54.8482C72.8792 43.2534 66.0258 32.8337 55.42 27.5873H55.4209ZM26.2126 30.2506V38.9401C26.2126 42.9111 27.8991 46.6085 30.799 49.2087C31.2351 49.5994 31.2717 50.2699 30.8809 50.706C30.4895 51.142 29.819 51.1786 29.3829 50.7879C26.0389 47.7894 24.0913 43.5201 24.0913 38.9401V32.612C20.6984 36.7344 18.7884 41.926 18.7884 47.4247V49.546C18.7884 62.9203 27.5506 72.8801 40.0015 72.8801C52.4511 72.8801 61.2146 62.9209 61.2146 49.546V47.4247C61.2146 41.926 59.3041 36.7344 55.9112 32.612V38.9401C55.9112 43.5202 53.9635 47.7894 50.6196 50.7879C50.1836 51.1786 49.513 51.142 49.1216 50.706C48.7309 50.2699 48.7675 49.5994 49.2035 49.2087C52.1034 46.6085 53.7899 42.9111 53.7899 38.9401V30.2506C53.7434 30.1489 53.7124 30.0404 53.7 29.9275C53.1473 25.1036 50.0781 20.9435 45.6711 18.9431C44.0119 18.1417 42.1231 17.728 40.0024 17.728C37.8811 17.728 35.9929 18.1417 34.333 18.9431L34.3101 18.9536C29.926 20.9434 26.8573 25.1035 26.3047 29.9274C26.2917 30.0403 26.2607 30.1488 26.2142 30.2505L26.2126 30.2506ZM33.4091 17.0327C35.363 16.0899 37.5663 15.6067 40.0009 15.6067C42.4348 15.6067 44.6387 16.0899 46.569 17.0222C48.0453 17.6921 49.4061 18.5828 50.6071 19.6577V17.7281C50.6071 11.8702 45.8582 7.12213 40.0009 7.12213C34.1429 7.12213 29.3947 11.8702 29.3947 17.7281V19.6571C30.593 18.584 31.9483 17.6957 33.4091 17.0327Z" fill="#231F20" stroke="#231F20" stroke-width="0.5"/>
</svg>
