<svg width="141" height="51" viewBox="0 0 141 51" fill="none" xmlns="http://www.w3.org/2000/svg">
<path d="M72.3724 2.35822C58.3724 1.14083 47.5391 12.3582 46.3724 18.3582C23.9724 -0.841778 1.87249 14.8582 1.87244 27.3582C1.87241 33.9347 10.3724 44.1523 21.8724 46.8582C42.2724 51.6582 53.8724 43.8582 61.3724 38.3582C71.8724 43.8582 87.3724 49.3582 102.872 39.8582C121.372 53.3582 134.872 39.8582 136.872 32.8582C138.872 25.8582 132.372 18.3582 124.372 13.8582C114.872 8.51445 100.872 15.3582 94.8724 20.3582C92.3724 12.8582 87.3724 3.66257 72.3724 2.35822Z" fill="#F3E7CF"/>
<path d="M45.2681 18.1435C46.0043 18.2866 46.7405 18.4298 47.4767 18.573C48.9755 13.9429 53.4085 10.1014 57.8465 7.62216C62.2781 5.1863 67.3242 4.07509 72.172 4.66299C82.0355 5.4613 89.5788 11.8408 92.1228 21.2748L93.4163 25.2887L96.7279 22.5848C101.264 19.0169 107.058 16.2678 112.706 15.2466C116.377 14.5995 120.056 14.8491 122.904 16.4688C129.22 19.9467 135.63 26.5198 134.028 32.0454C132.419 36.8882 126.941 41.4999 121.378 42.458C115.681 43.5733 109.643 41.3121 104.533 37.5825L103.025 36.4709L101.4 37.4562C89.8835 45.0545 74.8727 42.7655 62.5576 36.0957L61.1686 35.3551L59.8621 36.2986C49.3048 45.0375 35.6203 48.0248 22.3745 44.7244C13.8006 42.8006 4.76788 35.5484 3.74487 27.3582C4.42841 15.6296 19.8654 8.11185 31.6314 11.7008C36.7605 13.0209 41.4652 15.7428 45.6403 19.2124C46.1284 18.6429 46.6165 18.0735 47.1046 17.5041C42.8474 13.7475 37.9308 10.6716 32.351 9.06393C19.5402 4.992 1.71267 11.6291 -3.57628e-07 27.3582C1.50548 39.1477 11.2507 46.1587 21.3704 48.9921C35.2797 52.9507 51.7319 49.5804 62.8828 40.4179L60.1873 40.6207C72.9015 47.8808 90.7752 51.1031 104.345 42.2602L101.212 42.134C111.981 52.0721 134.162 49.9916 139.717 33.671C142.02 22.231 132.867 15.5274 125.841 11.2476C121.352 8.71049 116.178 8.54643 111.681 9.33484C104.673 10.6545 98.4978 13.6777 93.017 18.1317L97.622 19.4417C94.8695 8.73191 83.5555 -0.0631115 72.5728 0.0534611C66.6621 -0.335388 60.7876 1.42125 55.9988 4.53246C51.1763 7.79932 46.728 11.9858 45.2681 18.1435ZM47.4767 18.573L45.2681 18.1435L47.1046 17.5041L45.6403 19.2124L47.0349 20.4447L47.4767 18.573Z" fill="black"/>
</svg>
