<svg width="90" height="90" viewBox="0 0 90 90" fill="none" xmlns="http://www.w3.org/2000/svg">
<path d="M44.0931 52.1732C43.9495 52.9884 43.8278 53.7185 43.6891 54.4461C43.0831 57.6195 42.9809 60.827 43.217 64.032C43.3435 65.7501 43.7499 67.4487 43.9909 69.162C44.2001 70.6562 44.3656 72.1577 44.5287 73.6568C44.6771 75.0415 44.8012 76.4286 44.9205 77.8158C44.9716 78.3998 45.0446 78.9936 44.9862 79.5704C44.9521 79.9062 44.4532 80.5463 44.2464 80.5463C44.0395 80.5463 43.7889 79.6848 43.6915 79.2248C43.5406 78.5191 43.5017 77.789 43.4263 77.0687C43.3167 75.9857 43.2243 74.9004 43.1099 73.8174C43.088 73.6227 42.9906 73.4378 42.9274 73.248C42.8641 73.2528 42.8008 73.2601 42.7376 73.265C42.7108 73.5059 42.6694 73.7468 42.6621 73.9902C42.5964 76.4968 42.5721 79.0058 42.4601 81.51C42.4236 82.3471 41.6595 84.2356 41.3942 84.2356C41.129 84.2356 41.0754 83.4714 41.0803 83.1307C41.1095 81.4126 41.1922 79.6945 41.2579 77.9764C41.2677 77.6941 41.2993 77.4118 41.3042 77.1271C41.3918 72.7588 41.5573 68.3905 41.5329 64.0223C41.5208 61.832 41.1314 59.6515 40.5498 57.5197C40.3088 56.6388 40.1872 55.7262 39.99 54.8331C39.844 54.1711 39.7126 53.1369 39.4766 52.8667C39.2405 52.5966 39.0142 52.4238 38.7514 52.397C38.1113 52.3313 37.4591 52.3849 36.8094 52.38C35.0693 52.3678 33.8209 51.2557 33.2612 49.8491C33.0032 49.2018 33.0032 48.4279 33.0008 47.71C32.9959 46.5321 33.0105 46.5784 31.9081 46.0308C31.2024 45.6804 30.5186 45.2302 29.9248 44.7118C28.7274 43.6629 28.944 41.5457 29.5135 40.5528C30.3798 39.0391 31.6818 38.1168 33.3342 37.6715C34.3831 37.3867 34.5607 37.0606 34.2444 35.9728C33.8745 34.7025 33.524 33.4273 33.2125 32.1424C32.8962 30.8404 32.6601 29.519 32.3535 28.2146C32.1418 27.3093 31.8084 27.1414 30.9396 27.4017C28.5036 28.1318 25.756 27.0148 24.4833 24.7784C24.1158 24.131 24.0112 24.131 23.466 24.7029C22.478 25.7372 21.4535 26.7301 20.0882 27.2655C17.9662 28.0978 15.956 27.8812 14.0846 26.5695C13.1671 25.927 12.3373 25.1653 11.9065 24.1189C10.9891 21.8848 11.6583 19.6313 13.6466 18.2296C14.7246 17.4679 15.8441 16.7646 16.9562 16.054C17.3456 15.8057 17.3261 15.5746 17.1631 15.1584C16.8467 14.3529 16.6545 13.4987 16.4208 12.6616C16.3357 12.3549 16.231 12.041 16.214 11.7271C16.1239 10.1331 16.5255 8.62668 17.7106 7.56808C19.0272 6.39023 20.6699 6.33425 22.3223 6.89641C22.6021 6.99132 22.8674 7.13733 23.1472 7.23954C23.5561 7.38799 23.741 7.1422 23.9576 6.82827C24.5563 5.95705 25.1525 5.07123 25.851 4.28031C26.6102 3.42126 27.5983 2.98808 28.798 3.00025C30.0975 3.01485 31.346 3.02459 32.48 3.85444C33.58 4.65995 34.186 5.73316 34.5607 6.98402C34.6702 7.34662 34.7189 7.72626 34.8065 8.09616C34.9185 8.56341 35.2738 8.38576 35.5415 8.33466C35.9965 8.24948 36.437 8.07913 36.8921 8.00856C38.4204 7.7725 40.3259 8.28598 40.8661 10.0552C41.1095 10.851 41.1655 11.7976 40.9854 12.6056C40.5157 14.7179 39.2502 16.3046 37.3082 17.3146C36.9943 17.4776 36.6609 17.609 36.3421 17.7648C35.7167 18.0714 35.6242 18.4267 35.8262 19.0984C36.3762 20.926 36.2253 22.6806 35.1253 24.2941C34.8187 24.7418 34.534 25.214 34.1714 25.6131C33.5119 26.3431 33.5946 27.1487 33.7942 28.0004C34.1397 29.4654 34.4391 30.9426 34.809 32.4028C35.1764 33.8605 35.5585 35.3182 36.0257 36.7467C36.3348 37.6861 37.1014 37.8199 37.8096 37.1653C38.2208 36.7832 38.6321 36.4036 39.0458 36.0239C40.5498 34.6368 42.8738 34.3131 44.699 35.379C45.726 35.9777 46.2297 36.9292 46.5193 38.0341C46.8284 39.2216 47.2713 39.4163 48.4565 39.117C49.7876 38.7787 51.4546 39.1827 52.3745 40.7524C53.4623 42.6116 53.3893 44.0231 52.0022 45.2715C51.4206 45.7923 50.6613 46.1257 49.9556 46.4956C49.4494 46.7609 49.2474 47.1186 49.3593 47.671C49.4615 48.1845 49.5564 48.7029 49.6538 49.2188C49.8728 50.4039 49.4348 52.2827 47.9357 52.9373C46.9671 53.3607 46.0813 53.2731 45.1906 52.784C44.8523 52.5966 44.5141 52.4092 44.1004 52.1805L44.0931 52.1732ZM33.4121 9.08907C33.8501 7.54131 33.4413 7.63378 33.0835 6.57761C32.5822 5.1053 30.6451 3.81063 28.6325 4.30221C26.8633 4.73539 25.8071 5.84754 25.2742 7.52914C25.1014 8.0767 24.987 8.64129 24.7996 9.18154C24.6074 9.74126 24.3275 9.82401 23.8384 9.48087C23.5488 9.27888 23.286 9.03553 23.0231 8.79947C22.2785 8.13267 21.4145 7.78223 20.4216 7.93068C18.2679 8.25191 17.6863 9.56848 17.5743 11.3085C17.4819 12.7662 17.8785 14.1314 18.886 15.246C19.2925 15.6962 19.4531 16.2219 19.436 16.7986C19.4312 16.9593 19.2584 17.1953 19.1075 17.2537C18.3847 17.5287 17.623 17.7112 16.9124 18.013C16.0217 18.3902 15.0653 18.726 14.3134 19.3077C12.9262 20.3809 12.4322 22.3618 13.2864 23.8463C14.0724 25.2115 15.3647 25.9635 16.8759 26.3212C17.3407 26.4308 17.8493 26.533 18.3093 26.4624C20.5165 26.1217 21.9232 24.6226 23.2081 22.9653C23.5074 22.5784 23.8067 22.172 24.1839 21.8678C24.8021 21.3665 25.0844 21.4833 25.3131 22.2645C25.408 22.5881 25.4689 22.924 25.5151 23.2574C25.6173 24.002 25.8923 24.6834 26.4618 25.1653C28.3186 26.7398 30.6646 26.5232 32.6212 25.2407C33.6919 24.5399 34.3733 23.5129 34.6435 22.2109C34.8893 21.0306 34.9696 19.9015 34.2882 18.8404C34.0935 18.5362 33.8574 18.2588 33.6287 17.9789C33.3293 17.6115 33.4291 17.334 33.8355 17.1783C34.2395 17.025 34.6581 16.9106 35.0791 16.8059C37.2766 16.2584 38.8219 14.9394 39.6785 12.8489C39.9973 12.0702 40.2456 11.2501 39.7297 10.4348C39.2454 9.66339 38.491 9.21318 37.6465 9.18397C37.099 9.16451 36.5149 9.53198 35.9868 9.80454C34.7286 10.3667 32.9692 10.6393 33.4072 9.0915L33.4121 9.08907ZM51.367 43.0034C51.3378 40.8643 49.9945 39.8884 47.9503 40.5431C47.6339 40.6429 47.3395 40.8156 47.045 40.9787C46.2103 41.4411 45.5897 41.2366 45.4607 40.4311C45.3634 39.8203 45.3099 39.1997 45.2052 38.5889C44.9984 37.3892 43.7816 36.0653 42.4942 36.0969C40.6787 36.1407 39.3695 37.1044 38.9363 38.8907C38.8268 39.3409 38.6248 39.5404 38.1941 39.4674C37.5857 39.3652 36.9602 39.2849 36.381 39.0878C34.6946 38.5086 32.0176 39.134 30.9225 40.7937C30.0124 42.1736 30.0294 43.5072 31.6185 44.4514C32.4143 44.9235 33.2661 45.0111 34.1665 44.96C34.5413 44.9381 35.062 44.8627 35.303 45.1036C35.5439 45.3445 35.1667 45.9505 35.0109 46.2888C34.8552 46.627 34.3247 47.5202 34.2614 48.1504C34.1032 49.6909 35.6704 51.555 37.4372 50.9783C39.041 50.455 40.3332 49.3405 41.3309 47.9363C41.6157 47.5348 41.9223 47.1235 42.2995 46.8168C42.8422 46.3764 43.3143 46.4932 43.6112 47.1235C43.8886 47.7148 44.076 48.35 44.3072 48.9633C44.5944 49.7274 44.8158 50.5232 45.1906 51.2411C45.5362 51.8982 46.2565 52.0953 46.9184 51.8884C47.6461 51.6597 48.0939 51.0586 48.1377 50.3382C48.2155 49.0119 47.8091 47.7903 47.3687 46.5735C47.1472 45.9675 47.2348 45.7096 47.8481 45.5149C48.2034 45.4005 48.5976 45.4054 48.9724 45.3567C50.2938 45.1839 51.4644 44.5463 51.3695 43.0083L51.367 43.0034ZM40.4305 51.9444C40.4816 52.3192 40.4962 52.7061 40.5887 53.0711C40.8199 53.9813 41.0681 54.889 41.3528 55.7846C41.4307 56.0304 41.5719 56.4538 41.8104 56.4538C42.0489 56.4538 42.2314 56.0109 42.263 55.7651C42.448 54.4145 42.5648 53.0541 42.7327 51.6986C42.8227 50.9661 42.9955 50.2409 43.0783 49.5084C43.1026 49.2869 43.0126 48.9438 42.8519 48.8392C42.6792 48.7248 42.2338 48.7199 42.134 48.8465C41.4015 49.7761 40.2139 50.4794 40.4281 51.9468L40.4305 51.9444Z" fill="#F3E7CF"/>
<path d="M57.2884 26.7395C56.5559 26.0654 55.7747 25.4059 55.0641 24.6782C54.1588 23.7486 53.8497 22.5659 54.0736 21.3247C54.2975 20.0763 55.03 19.0907 56.1129 18.4044C57.6412 17.4359 59.3204 17.0197 61.1091 17.2704C62.158 17.4188 63.163 17.7936 63.9953 18.4969C64.5623 18.9739 64.9639 18.9788 65.5017 18.4385C66.0809 17.8569 66.6163 17.229 67.2198 16.6717C68.422 15.5596 69.9211 15.1264 71.4591 15.4817C73.4352 15.9392 75.163 16.9102 75.8468 19.0323C76.1778 20.0593 76.4285 21.1106 76.7181 22.1522C76.8689 22.6948 77.2802 22.9431 77.7937 22.9212C79.5264 22.8457 81.0206 23.4347 82.3299 24.5127C84.0383 25.9193 84.4325 27.3284 83.6732 29.246C83.0186 30.9009 81.8115 32.1785 80.2954 33.0911C79.6943 33.4537 78.9351 33.5559 78.2439 33.7652C77.655 33.9428 77.3338 34.2908 77.3776 34.9455C77.4165 35.5295 77.4579 36.1258 77.397 36.705C77.1853 38.6616 76.6037 40.1801 74.5108 40.9978C73.7029 41.3142 72.8268 41.3823 71.9142 41.1998C70.0208 40.8201 68.5266 39.7299 66.9935 38.681C66.57 38.3914 66.0955 37.9461 65.6696 37.9729C65.38 37.9923 65.1123 38.6956 64.8738 39.1166C63.0657 42.2949 61.2673 45.478 59.464 48.6611C59.1987 49.1284 58.9286 49.5908 58.5855 50.1894C58.8921 50.1529 59.0843 50.1675 59.2474 50.1042C60.3547 49.6686 61.4473 49.1844 62.5668 48.7852C63.0486 48.6149 63.5865 48.593 64.1024 48.5419C64.4577 48.5078 64.5696 48.7293 64.5988 49.0724C64.6645 49.8268 64.4066 50.4449 63.9296 51.0071C62.7396 52.4161 61.5569 53.8471 59.9215 54.7597C59.0357 55.2561 58.0914 55.7282 57.1156 55.9667C56.1227 56.2101 55.524 56.6652 55.159 57.6118C54.1685 60.1866 53.0418 62.7102 52.1146 65.3044C51.4307 67.2196 50.8905 69.1957 50.4378 71.1815C49.8976 73.5445 49.5398 75.9489 49.0531 78.3265C48.9436 78.857 48.3912 79.8548 48.1089 79.8548C47.8266 79.8548 47.6271 79.0638 47.6684 78.7012C47.8558 77.0829 48.1162 75.4719 48.4131 73.8706C48.6759 72.4591 49.0166 71.0598 49.333 69.6581C49.5885 68.5264 49.2649 67.4946 48.7854 66.5017C48.0992 65.0829 47.7122 63.5887 47.4567 62.0361C47.2498 60.7779 47.189 59.5392 47.4932 58.3103C47.6392 57.7165 47.8169 56.6043 48.2184 56.6043C48.2841 56.6043 48.5664 56.6116 48.6419 56.653C50.0266 57.4245 50.4646 58.8676 51.0852 60.1744C51.2799 60.5857 51.511 61.7124 51.7641 61.7124C52.0172 61.7124 52.5137 60.2377 52.7789 59.6341C53.565 57.8382 54.3243 56.0276 55.1736 54.2608C56.349 51.8126 57.5488 49.3766 58.8191 46.9795C60.1308 44.5094 61.5301 42.0856 62.9124 39.6545C63.7081 38.2551 64.5502 36.8802 65.4579 35.3446C64.8617 35.4687 64.3944 35.5198 63.9564 35.6634C62.7737 36.0503 61.5544 36.2474 60.3328 36.0893C58.2423 35.8191 56.5826 34.8238 55.7138 32.821C55.1322 31.4776 55.3926 30.1319 56.0205 28.8664C56.3563 28.1899 56.787 27.562 57.2811 26.737L57.2884 26.7395ZM57.028 31.0469C57.2494 32.5265 57.2154 32.8429 58.2837 33.8358C59.352 34.8287 61.2527 34.9966 62.6739 34.5829C63.5694 34.3225 64.4455 33.9891 65.3192 33.6581C65.9178 33.4318 66.4313 33.5437 66.8791 33.9574C67.305 34.3517 67.2952 34.8068 67.0616 35.3276C66.7915 35.9335 67.0202 36.6173 67.541 37.0505C67.8185 37.2817 68.0716 37.5421 68.3538 37.7636C69.7653 38.866 71.2547 39.7542 73.1504 39.708C74.9148 39.6642 76.2703 37.9242 76.2922 36.5662C76.3092 35.5052 76.1948 34.4807 75.8663 33.4683C75.6716 32.8696 75.8249 32.5825 76.3165 32.6384C77.1683 32.7358 77.9154 32.4438 78.6966 32.2004C80.3125 31.6967 81.4806 30.6551 82.291 29.2193C82.7679 28.3748 83.167 27.4622 82.6244 26.4693C81.9551 25.2428 80.8454 24.5833 79.541 24.3205C78.5895 24.1282 77.5941 24.1258 76.6159 24.0869C76.207 24.0698 75.9417 23.9092 75.8517 23.549C75.6668 22.8141 75.5475 22.0597 75.365 21.3223C75.1776 20.5703 75.0584 19.7745 74.7128 19.0956C73.311 16.3432 69.4319 15.6691 67.0446 18.2025C66.4751 18.806 66.0736 19.5701 65.6185 20.2759C65.144 21.0108 64.9639 21.0668 64.3141 20.5533C63.8736 20.2053 63.4599 19.8257 63.0267 19.4655C62.0728 18.6721 60.9874 18.2219 59.7414 18.4458C58.9821 18.5821 58.2204 18.8084 57.5196 19.1248C56.2711 19.6894 55.3318 20.6336 55.434 22.1181C55.4948 22.9869 55.9231 23.695 56.5729 24.2353C57.4611 24.9727 58.4151 25.6297 59.3058 26.3647C59.902 26.8563 59.8461 27.1678 59.1598 27.5085C57.6996 28.2312 56.8114 29.5697 57.0328 31.0493L57.028 31.0469ZM61.9876 50.5934C60.2865 50.8051 57.174 53.0951 56.8868 54.3119C58.218 54.492 61.7637 51.9367 61.9876 50.5934ZM48.8876 59.3616C48.491 59.3616 48.7708 63.2967 49.8489 65.0537C50.3113 64.6352 50.3648 63.4062 50.1434 62.1845C49.9219 60.9629 49.2819 59.3591 48.8876 59.3591V59.3616Z" fill="#F3E7CF"/>
<path d="M11.86 37.6594C12.4222 36.961 12.9187 36.282 13.4759 35.659C14.1427 34.9168 14.9166 34.2889 15.9801 34.2646C18.2068 34.2135 19.8787 36.3453 19.3141 38.4893C19.2022 38.9176 19.078 39.341 18.9637 39.7669C18.842 40.2244 18.9272 40.5675 19.392 40.8255C20.1367 41.2392 20.7134 41.889 20.8643 42.7067C20.9665 43.2542 20.7669 43.8869 20.5966 44.4491C20.4749 44.8579 20.1999 45.2278 19.9614 45.5929C19.521 46.2646 19.5234 46.542 19.942 47.1796C21.5141 49.5645 23.1665 51.9056 24.6193 54.3611C26.2352 57.0915 27.6613 59.934 29.1774 62.7228C29.4232 63.1731 29.7128 63.5989 29.9805 64.037C30.0413 64.0102 30.1022 63.9859 30.1606 63.9591C30.1898 63.891 30.2336 63.8253 30.2433 63.7547C30.4477 62.1388 30.6473 60.5205 30.8517 58.9046C30.9296 58.2889 30.9344 57.6732 31.4187 57.1646C31.9882 56.5635 32.5966 56.5854 32.9786 57.3495C33.2585 57.9092 33.4629 58.5103 33.6674 59.1041C34.0056 60.0873 34.3293 61.0753 34.6335 62.0706C34.7917 62.5841 34.9498 63.1098 35.0107 63.6403C35.3271 66.4657 35.624 69.2959 35.8989 72.1262C36.0182 73.3527 36.0012 74.5939 36.1715 75.8106C36.3467 77.0591 36.6801 78.2856 36.9357 79.5243C37.1425 80.5318 37.3567 81.5369 37.527 82.5517C37.5611 82.7512 37.3761 83.2136 37.1255 83.2671C36.8748 83.3207 36.3832 82.4397 36.1764 81.9579C34.9279 79.0595 33.7452 76.1367 32.509 73.2335C31.7205 71.384 30.915 69.5393 30.0535 67.7239C28.6298 64.7306 27.2135 61.7299 25.6803 58.7926C24.6631 56.8458 23.478 54.9816 22.305 53.1199C21.2269 51.4116 20.0636 49.7592 18.9418 48.08C18.5597 47.5105 18.0535 47.2867 17.394 47.4132C15.8803 47.7052 15.8438 47.7758 15.508 49.3041C15.3036 50.2337 15.0626 51.1536 14.3642 51.8934C13.2691 53.0542 11.2736 53.4485 9.82071 52.7963C8.75237 52.3169 8.0515 51.5187 7.57938 50.4868C7.32629 49.9368 6.95882 49.6326 6.31149 49.6789C5.41593 49.7446 4.53254 49.7081 3.73189 49.1848C2.02839 48.0678 1.37862 45.7486 2.71466 44.0013C3.33279 43.1934 4.04096 42.4536 4.74426 41.7186C5.27235 41.1662 5.60332 40.6552 5.40133 39.7961C4.99492 38.0512 6.54511 36.1092 8.27539 36.1676C9.4362 36.2066 10.4924 36.6787 11.439 37.3674C11.5656 37.4599 11.697 37.545 11.8673 37.6618L11.86 37.6594ZM15.7465 46.0626C16.3159 46.0163 16.8708 45.9628 17.3891 45.7681C18.6181 45.3057 19.4041 44.1717 19.4139 43.0182C19.4187 42.5777 19.2314 42.3343 18.8517 42.2199C18.2725 42.0472 17.6909 41.8817 17.102 41.7478C16.3476 41.575 16.2381 41.227 16.7029 40.6211C17.0728 40.1368 17.4013 39.6111 17.6739 39.0685C17.8102 38.7959 17.7566 38.4333 17.8394 38.1267C18.0657 37.2846 17.8126 36.5838 17.0849 36.1847C15.7416 35.4473 14.1184 35.7442 13.6974 37.3455C13.5611 37.8614 13.4613 38.3968 13.2423 38.8762C13.033 39.3289 12.741 39.7791 12.3711 40.1003C12.2786 40.1806 11.7262 39.7766 11.4196 39.5479C10.6506 38.9735 9.94726 38.3019 9.13687 37.7981C7.92495 37.0462 6.71546 37.8054 6.68626 39.2364C6.67409 39.8472 6.99532 40.1952 7.37496 40.5091C7.50881 40.6211 8.17318 41.0129 8.02473 41.5604C7.87628 42.108 6.80307 42.1299 6.57188 42.1907C5.29425 42.5217 4.46927 43.4878 3.783 44.6219C3.54938 45.0064 3.33279 45.459 3.29872 45.8946C3.16 47.676 4.88054 48.8685 6.56945 48.2041C7.17541 47.9656 7.77164 47.7855 8.17561 48.1822C8.57958 48.5789 8.46521 49.0048 8.52605 49.3333C8.81321 50.8324 10.0641 51.8009 11.6751 51.745C13.033 51.6987 13.8897 50.7959 14.0649 49.2213C14.1549 48.4183 14.2206 47.6128 14.3301 46.8145C14.4469 46.0869 15.177 46.1137 15.7465 46.0674V46.0626ZM34.5167 73.8686C34.5386 73.6009 34.5678 73.4476 34.5605 73.2992C34.4972 72.2527 34.4364 71.2063 34.3512 70.1623C34.2052 68.3736 34.1443 66.5703 33.8572 64.806C33.6016 63.2436 33.0882 61.7226 32.6745 60.1871C32.6452 60.0775 32.5357 59.9096 32.3922 59.9096C32.2486 59.9096 32.1269 60.1189 32.1099 60.2406C31.9346 61.5109 31.6913 62.7813 31.6475 64.0589C31.5915 65.704 31.8397 67.3345 32.3094 68.9212C32.8132 70.6271 33.5189 72.243 34.5215 73.8711L34.5167 73.8686Z" fill="#F3E7CF"/>
<path d="M67.1945 61.6809C65.7465 62.1311 64.7536 63.0218 63.7972 63.9296C61.6338 65.9859 59.9424 68.4025 58.4896 71.0015C57.4212 72.9143 56.5914 74.9196 55.9927 77.0222C55.9076 77.3167 55.9051 77.6355 55.8419 78.1149C56.6522 77.6477 57.285 77.2291 57.9639 76.903C60.0325 75.9101 62.0962 74.9001 64.2158 74.0289C64.6806 73.8367 65.5324 73.8951 65.9534 74.3161C66.3744 74.7371 65.5762 75.8176 65.2306 76.2386C63.9895 77.7523 62.5658 79.0956 60.8745 80.0837C59.8037 80.7091 58.6307 81.1763 57.4724 81.6339C56.791 81.9015 56.0414 81.9819 55.3357 82.196C54.3939 82.4807 54.058 83.2595 53.8317 84.1283C53.7003 84.6272 53.5397 85.1285 53.3109 85.5884C53.1893 85.8318 53.0311 86.2187 52.6441 86.2187C52.2572 86.2187 52.1623 85.0895 52.4032 84.43C52.739 83.5126 52.8632 82.5197 53.1455 81.5779C53.805 79.3755 54.4547 77.1682 55.197 74.995C56.0584 72.4739 57.2509 70.089 58.7013 67.8647C60.3561 65.3264 62.4052 63.1094 64.795 61.2283C65.5007 60.671 66.2527 60.1721 66.9803 59.6416C67.1702 59.5029 67.3502 59.3471 67.5376 59.2036C67.9465 58.8896 67.8637 58.6146 67.5547 58.252C66.9341 57.5244 66.3184 56.787 66.277 55.743C66.243 54.9034 66.6275 54.2561 67.175 53.7256C68.1947 52.7375 69.3555 52.2167 70.8692 52.5404C72.0422 52.7911 73.1957 52.8081 74.1691 51.696C75.3908 50.2991 77.1722 50.1166 78.6956 51.09C79.3746 51.5232 79.8029 52.3701 80.2969 53.0636C80.4721 53.3094 80.4964 53.6623 80.6011 53.9616C80.7812 54.4873 81.117 54.4848 81.8252 54.3242C83.4265 53.9641 85.0521 53.8034 86.5853 54.626C88.0211 55.3974 88.2498 56.9841 87.7777 58.2837C87.2642 59.6951 86.432 61.036 85.0205 61.6104C83.7574 62.1238 83.4411 62.9391 83.3218 64.1218C83.1563 65.7669 82.1294 66.7841 80.6376 67.3804C78.4547 68.2516 76.6271 67.872 75.145 65.9373C74.5682 65.1853 74.4003 65.1488 73.6021 65.5966C71.5871 66.7233 69.3774 66.3534 68.1144 64.482C67.7688 63.9685 67.635 63.3066 67.433 62.7055C67.3283 62.394 67.2845 62.0606 67.2018 61.6834L67.1945 61.6809ZM70.2876 53.6769C69.6476 53.6769 69.1876 53.9081 68.679 54.1222C67.9611 54.424 67.5741 55.2393 67.8929 55.8549C68.2531 56.551 68.7277 57.1934 69.1949 57.8261C69.5405 58.2934 69.9006 58.7168 69.521 59.3325C69.3336 59.6343 69.1876 59.9628 69.0075 60.2719C68.5135 61.1139 68.3407 61.9924 68.7982 62.8953C69.3482 63.9831 69.8544 64.7132 71.4192 64.6742C72.3732 64.6499 73.0716 64.2021 73.8211 63.7251C75.3081 62.7785 75.2764 63.2676 75.858 64.2703C76.5029 65.3848 77.2452 66.368 78.737 66.2755C79.5547 66.2244 80.3821 66.239 81.0586 65.6452C82.3435 64.5185 82.3168 63.5864 81.8373 62.0095C81.6573 61.4108 81.8739 61.0409 82.5139 60.9995C84.4096 60.8779 85.6702 59.8509 86.393 58.1644C86.9941 56.7602 86.2251 55.6116 84.8501 55.3098C83.5847 55.0324 82.5017 55.378 81.465 56.0107C81.0464 56.2662 80.4283 56.8016 80.0195 56.3806C79.6106 55.9596 79.4573 55.0859 79.4573 55.0275C79.4792 53.7888 78.6932 53.0077 77.8487 52.2971C77.6005 52.0878 77.1381 51.9198 76.868 51.9856C75.4005 52.3482 74.5536 52.6013 74.2032 54.3534C74.1375 54.6844 73.8187 55.1954 73.4293 55.2831C73.04 55.3707 72.4559 54.4654 72.1882 54.3072C71.3876 53.8278 70.9301 53.6793 70.29 53.6793L70.2876 53.6769ZM55.9562 80.1907C57.8252 80.5923 62.4417 77.7888 63.2667 75.8322C62.174 75.5548 56.8907 78.6868 55.9562 80.1907Z" fill="#F3E7CF"/>
<path d="M28.1241 12.4674C30.2584 12.4309 31.0882 13.3386 31.5457 14.8182C31.9594 16.1494 31.1831 17.9186 29.5113 18.5465C28.0608 19.0916 26.6542 18.9018 25.4934 17.7896C24.262 16.6118 24.3521 15.4047 25.0675 14.2293C25.7782 13.0685 26.8149 12.3141 28.1217 12.465L28.1241 12.4674ZM28.2117 17.5438C28.7836 17.5438 28.9004 17.3638 29.2217 17.2177C30.0077 16.8649 30.4555 15.7211 30.1902 15.103C29.8325 14.2658 29.1973 13.6525 28.2969 13.6891C27.3575 13.7256 26.5788 14.2609 26.1043 15.1322C25.7928 15.7065 25.8682 16.3051 26.3354 16.6775C26.8562 17.0912 27.6423 17.5414 28.2117 17.5438Z" fill="#F3E7CF"/>
<path d="M41.4905 41.0615C42.6879 41.0615 44.1675 41.9206 44.3573 42.8356C44.44 43.2274 44.277 43.8334 43.9971 44.1035C43.4374 44.6413 42.6976 44.8896 41.8945 44.5269C41.2691 44.2447 40.5658 44.0694 40.0353 43.663C39.4342 43.2031 39.2151 42.5557 39.9914 41.8184C40.4392 41.3925 40.8505 40.9593 41.4881 41.0615H41.4905Z" fill="#F3E7CF"/>
<path d="M68.6747 24.5109C70.1738 24.4842 71.2275 25.112 72.0939 26.0197C73.2815 27.2609 72.6877 29.5144 71.1351 30.4221C69.1006 31.6097 66.5989 30.1228 65.8542 28.3535C64.9976 26.3191 66.6524 24.4282 68.6723 24.5109H68.6747ZM68.867 25.8786C68.6601 25.8786 68.4557 25.8591 68.2561 25.881C67.3654 25.9759 66.8568 27.0248 67.032 27.6405C67.3606 28.8013 68.9278 30.0278 70.4537 29.2491C71.3371 28.7989 71.6632 27.677 71.0353 26.9177C70.4829 26.2485 69.8015 25.7691 68.867 25.8762V25.8786Z" fill="#F3E7CF"/>
<path d="M10.0508 44.5076C10.2309 43.6704 10.72 42.753 11.7007 42.147C12.7545 41.4972 13.7839 41.6651 14.7817 42.2833C15.2416 42.568 15.3901 43.612 14.9252 43.9868C14.0005 44.729 12.9662 45.9239 11.9903 46.0042C11.0145 46.0845 10.0556 45.4591 10.0532 44.5076H10.0508Z" fill="#F3E7CF"/>
<path d="M73.4807 59.1651C73.4077 58.1454 74.3057 57.4835 75.1404 57.3351C76.0725 57.1696 76.9997 57.1087 77.8368 57.6173C78.5304 58.0384 79.0853 58.6297 79.224 59.4693C79.4041 60.5571 78.5742 61.2677 77.5375 61.6401C76.2818 62.0903 74.223 61.1971 73.6584 59.9706C73.5464 59.7273 73.5367 59.4352 73.4807 59.1651ZM77.5132 60.1823C77.8855 59.6129 76.9364 58.9315 76.9072 58.9047C76.2112 58.2598 75.6929 58.5689 75.4471 58.8122C75.2013 59.0556 75.0845 59.6153 75.705 60.2359C76.3256 60.8564 77.1408 60.7542 77.5132 60.1848V60.1823Z" fill="#F3E7CF"/>
</svg>
