<svg width="90" height="90" viewBox="0 0 90 90" fill="none" xmlns="http://www.w3.org/2000/svg">
<path fill-rule="evenodd" clip-rule="evenodd" d="M19.8005 0.0885971C19.2092 -0.0419576 18.455 -0.00500963 17.8524 0.0523063C14.9542 0.576674 12.2645 1.98847 10.5551 4.44199C7.8461 8.33039 7.75723 13.5999 8.2033 18.1402C8.34803 19.6133 8.50737 21.0871 8.77197 22.545C10.2702 30.7984 13.0112 39.0046 16.664 46.5449C17.9913 49.285 19.3675 51.9242 21.1046 54.4274C21.1476 54.4894 21.1982 54.5608 21.2544 54.6402C21.8614 55.4974 23.1218 57.2772 22.5562 58.0609C22.0967 58.698 21.062 59.0275 20.1587 59.3151C19.82 59.4229 19.4997 59.5249 19.2352 59.635C18.1219 60.0985 17.14 60.9555 16.5375 61.9987C16.1848 62.6094 15.9712 63.3305 16.0754 64.0388C16.1899 64.8179 16.5093 65.595 16.8279 66.3701C17.0579 66.9298 17.2875 67.4884 17.4392 68.0458C17.558 68.4829 17.0699 69.2931 16.8483 69.6609L16.8435 69.6687L14.9161 72.5688L11.1522 78.186L9.7278 80.0505C9.63913 80.1586 9.5451 80.2674 9.44998 80.3774C9.17639 80.6938 8.8938 81.0207 8.70384 81.3746L8.75266 81.5641C9.09003 81.6901 9.84986 81.5994 10.1784 81.4518L10.2767 81.4045C11.6148 80.7745 12.5879 79.3483 13.4411 78.0977C13.5784 77.8965 13.7125 77.6999 13.8446 77.5119L16.5124 73.8299C16.6383 73.657 16.7644 73.4802 16.8917 73.3018C17.4985 72.4509 18.1318 71.5629 18.9013 70.8861C19.9319 69.9797 21.2126 69.7264 22.4892 69.4739C23.7758 69.2195 25.0584 68.9658 26.0767 68.0451C26.4954 67.6665 26.8372 67.1695 27.0901 66.6674C27.1992 66.451 27.3091 66.1886 27.4268 65.9075C27.9568 64.6416 28.6448 62.9985 30.1297 63.4908L30.1887 63.5101C31.0603 63.8016 31.6531 64.8026 32.0382 65.5867C33.0847 67.7179 33.6407 70.247 34.0117 72.5804C34.6952 76.8771 34.9066 81.2966 33.4648 85.4767C32.9958 86.8362 32.3294 88.1096 31.6341 89.3656C31.7112 89.377 31.7905 89.3903 31.8712 89.4039C32.3726 89.4881 32.9306 89.5819 33.354 89.2775C34.9532 88.1279 35.4189 85.1936 35.6794 83.3491C36.3626 78.5128 36.1535 73.534 34.5327 68.8966C34.3676 68.4244 34.1672 67.9381 33.9633 67.4434C33.4587 66.2194 32.9327 64.9433 32.8675 63.6978C32.8122 62.636 33.4097 61.7316 34.0357 60.9355C34.5305 61.5642 35.0372 62.191 35.5454 62.8198C36.8713 64.4599 38.2076 66.113 39.3698 67.8473C41.1483 70.5017 42.483 73.6739 43.1093 76.8097C43.5356 78.9436 43.6795 81.1348 43.8219 83.305C43.8296 83.422 43.8373 83.539 43.845 83.6559C43.8765 84.1328 43.89 84.6244 43.9035 85.1218C43.9479 86.7502 43.994 88.44 44.6836 89.8721C45.3551 89.3055 45.6142 88.2441 45.6881 87.4075C45.8111 86.014 45.6829 84.6093 45.5559 83.2184C45.5399 83.0432 45.524 82.8683 45.5085 82.6936C45.0811 77.8577 44.1416 73.4254 41.9944 69.0398C41.1723 67.3608 40.269 65.7773 39.0542 64.346C38.8332 64.0857 38.6128 63.8301 38.3941 63.5764C37.4198 62.4464 36.4783 61.3546 35.663 60.0581C36.8399 59.5982 37.9899 59.4277 39.1847 59.9502C40.605 60.5716 41.6904 61.5283 42.8349 62.537L42.9126 62.6054L46.1964 65.5444C48.9383 68.1194 51.4328 70.8187 53.2237 74.1567L56.2316 80.1036C56.9731 78.6633 57.0475 77.5017 56.5596 75.9414C56.0491 74.3076 55.1378 72.7907 54.1602 71.3944C52.9013 69.5966 51.4726 67.8567 49.9353 66.2899C49.3652 65.7088 48.7752 65.1339 48.1823 64.5562C46.5745 62.9898 44.9459 61.4031 43.6388 59.6161C44.9444 60.2211 46.5045 60.2361 48.0231 60.2507C48.7397 60.2577 49.4471 60.2645 50.1142 60.3332L56.7173 61.2186L64.8359 62.9129C65.2184 63.0036 65.602 63.0971 65.9865 63.1909C67.7777 63.6278 69.591 64.07 71.4172 64.2542C73.2004 64.4342 74.9877 64.3558 76.6842 63.736C78.6314 63.0248 80.1898 61.403 81.0352 59.5337C81.8386 57.757 82.0092 55.5905 81.2972 53.7533C80.0361 50.5006 75.9966 47.9485 72.9253 46.6222C66.7285 43.9459 59.9329 44.5864 53.4748 45.8184L43.8519 47.759C43.3197 47.8703 42.7883 47.9871 42.2569 48.104C40.8769 48.4074 39.4965 48.7109 38.0988 48.9166C38.5966 48.2823 39.0355 47.6053 39.4744 46.9283C39.7774 46.461 40.0804 45.9937 40.4028 45.5404L44.0691 40.8782C44.9848 39.7578 45.9243 38.6423 46.8675 37.5225C51.604 31.899 56.4332 26.1655 58.803 19.1359C59.773 16.2583 60.2736 13.1606 59.9147 10.1247C59.5664 7.17894 58.3464 3.54631 55.927 1.65256C54.7916 0.764107 53.454 0.367451 52.0224 0.539654C48.6632 0.943816 46.3167 2.99928 44.0665 5.34687C42.7861 6.68285 41.5586 8.09085 40.4261 9.5549C39.1726 11.1754 37.9728 12.8682 36.9248 14.6291L33.2042 21.4197L30.9644 25.0584C30.9226 24.9924 30.88 24.9261 30.8371 24.8596C30.6241 24.5287 30.4065 24.1909 30.263 23.8281C29.925 22.9744 29.7823 21.9966 29.6472 21.0711C29.6273 20.9351 29.6076 20.8001 29.5875 20.6669L28.917 16.6323C27.9846 11.7442 25.5677 1.36146 19.8005 0.0885971ZM19.4837 1.7532C19.1174 1.7223 18.7161 1.72715 18.3523 1.78494C15.6176 2.33423 13.2947 3.77913 11.7358 6.1101C9.4368 9.54752 9.70137 13.9983 10.2049 17.9175L11.0159 23.0297C11.9442 27.636 13.2814 32.1054 14.7962 36.5484C16.6535 41.9962 18.8148 47.7798 22.3621 52.3749C22.9502 53.1788 23.5051 53.9625 23.9449 54.8589C24.0481 53.6681 24.2918 52.4847 24.5335 51.3113C24.5743 51.1132 24.6151 50.9153 24.6551 50.7178L26.3479 43.2562C27.4574 38.5962 28.446 33.9527 28.5353 29.1416C28.5757 26.9612 28.3625 24.717 28.051 22.5609L26.5844 14.8768L26.4971 14.4248C25.7913 10.7666 24.9886 6.60646 22.522 3.71785C21.7651 2.83152 20.6974 1.85555 19.4837 1.7532ZM61.7495 46.7167L62.6452 46.6901C62.8008 46.688 62.9552 46.685 63.1084 46.682C64.898 46.6473 66.5204 46.6159 67.9184 48.0051C68.6675 48.7495 69.2531 49.7348 69.7712 50.6479C71.8452 54.3047 72.4741 57.8854 72.4697 62.0458L71.3107 61.8159L67.5205 61.0817C67.3501 61.0489 67.1679 61.0189 66.9796 60.9879C66.2405 60.866 65.4088 60.7288 64.8358 60.3519C64.5308 60.1511 64.3442 59.8326 64.2335 59.4909C64.0291 58.8603 63.9297 58.1665 63.8318 57.4824C63.7809 57.1272 63.7304 56.7747 63.6658 56.4349C63.3116 54.5696 62.8558 52.7161 62.3198 50.8949C61.9044 49.483 61.4518 47.965 60.5693 46.7666L61.7495 46.7167ZM57.2593 47.2146L56.9663 47.2496L56.8142 47.2709C55.3078 47.4824 53.6918 47.7092 52.4434 48.6196L53.6243 54.2663C53.6925 54.6015 53.7518 54.95 53.8119 55.3024L53.8119 55.3025L53.8119 55.3025L53.8119 55.3026L53.8119 55.3026L53.8119 55.3027C53.9527 56.1294 54.0973 56.9782 54.3683 57.7307C54.4521 57.9628 54.5961 58.1407 54.7542 58.3265C55.5679 58.7022 56.7804 58.7975 57.7695 58.8751C57.9333 58.888 58.091 58.9004 58.2398 58.9135L62.0052 59.3373C62.0154 58.3454 62.0158 57.4024 61.8212 56.4245C61.3621 54.1176 60.3382 51.8385 59.35 49.7178C59.2979 49.606 59.2441 49.486 59.1882 49.3613L59.1879 49.3607C58.9129 48.7474 58.5867 48.0202 58.1574 47.5855C57.8583 47.2827 57.6881 47.2022 57.2593 47.2146ZM75.569 50.5289C74.1727 49.5816 72.5407 48.8386 70.877 48.519C71.1846 49.296 71.5618 50.0354 71.9393 50.7754L71.9394 50.7754L71.9394 50.7755C72.204 51.2941 72.4688 51.813 72.7097 52.3453C73.487 54.0615 73.8623 55.9909 74.055 57.8561C74.0712 58.0128 74.0839 58.184 74.0973 58.3636C74.169 59.326 74.2588 60.5318 74.9893 61.0713C75.0596 61.123 75.1343 61.1646 75.2155 61.1974L75.3882 61.2539L75.4702 61.2819C76.1072 61.4878 76.8228 61.2692 77.3868 60.9594C77.7997 60.7328 78.1331 60.4071 78.4566 60.0696C79.3716 58.7426 79.7447 57.3463 79.4485 55.7413C79.0334 53.4935 77.401 51.7718 75.569 50.5289ZM39.1818 51.5005C38.9854 51.4153 38.7934 51.3894 38.5802 51.4091C37.4485 51.7877 36.382 52.4126 35.3646 53.0305C35.2705 53.0877 35.175 53.1447 35.0787 53.2022C34.5828 53.4982 34.0692 53.8047 33.6499 54.1892C33.9534 54.9213 34.4293 55.822 35.2021 56.143C35.7731 56.3806 36.5164 56.4185 37.1275 56.4258L41.9306 56.4039C41.8588 56.2215 41.7876 56.0377 41.7161 55.8531C41.249 54.6478 40.7699 53.4113 40.0406 52.3499C39.8267 52.0383 39.5371 51.655 39.1818 51.5005ZM30.4075 55.2963L29.6912 55.2471C28.699 55.4606 27.7272 55.8191 27.1438 56.7071C26.5751 57.5729 26.293 58.9003 26.5124 59.9282L26.6705 60.4266C26.7707 60.7112 27.0633 61.0359 27.3333 61.1692C27.9032 61.4505 28.4195 61.2957 28.9712 61.0789L29.0145 61.0606C30.0902 60.4059 32.0647 58.7844 32.3456 57.5018C32.4364 57.0872 32.338 56.6787 32.0964 56.3336C31.7211 55.798 31.0506 55.4034 30.4075 55.2963ZM21.2703 60.7021C22.0792 60.6791 22.9275 60.7524 23.6686 61.1113C24.4054 61.468 25.0314 62.0962 25.2996 62.8752C25.6413 63.8699 25.6355 65.0439 25.1658 65.9917C24.8258 66.6779 24.0439 66.9379 23.353 67.1677L23.3063 67.1832C23.2749 67.1937 23.2437 67.2041 23.2128 67.2145L23.1659 67.2281C22.4755 67.4281 21.4488 67.7255 20.7635 67.4772L20.6862 67.4459L20.5081 67.3723C19.7868 67.0068 19.4206 66.0117 19.2204 65.2811C18.9316 64.2274 18.9587 62.9568 19.5222 61.9934C19.9502 61.2617 20.4672 60.9116 21.2703 60.7021ZM47.8348 48.9821C47.8894 48.9557 48.0372 48.9567 48.1464 48.9574C48.1839 48.9576 48.2169 48.9578 48.24 48.9569C48.8336 48.9321 49.3681 48.9099 49.8298 49.3486C50.2871 49.784 50.6044 50.4629 50.8613 51.0309C51.8677 53.2583 52.1228 55.4672 52.1964 57.8844C50.4324 57.8815 48.6492 57.5998 46.9188 57.2898C46.1871 57.1134 45.4701 56.882 44.8116 56.5125C43.143 55.5768 42.2469 52.5704 41.7598 50.7981C43.7332 49.693 45.5907 49.2349 47.8348 48.9821ZM51.2669 2.79007C51.5263 2.75211 51.848 2.77411 52.1126 2.79732C53.6462 2.93192 55.0345 3.96439 55.9971 5.10495C58.0405 7.5257 58.4796 10.8874 58.2304 13.943C57.9615 17.2369 56.6588 20.3064 55.045 23.1471C53.464 25.9305 51.4254 28.4884 49.4224 30.9774L44.6925 36.9212L38.4079 44.8124C38.1458 45.1398 37.8857 45.4673 37.6262 45.7942C35.8251 48.0624 34.0513 50.2962 31.8146 52.187L31.6803 52.2865L31.6803 52.2865C31.0203 52.7758 30.2888 53.3182 29.4979 53.5231C28.8883 53.6809 27.8032 53.8423 27.2443 53.4896C26.822 53.2229 26.4172 52.7394 26.3279 52.2347C26.1093 50.9994 26.4474 49.5705 26.7646 48.2301C26.8931 47.687 27.0182 47.1584 27.1015 46.6631C29.2706 33.7579 34.1921 21.0114 41.8695 10.3612C44.1147 7.24655 47.2599 3.43709 51.2669 2.79007Z" fill="#231F20"/>
</svg>
