<svg width="74" height="75" viewBox="0 0 74 75" fill="none" xmlns="http://www.w3.org/2000/svg">
<g clip-path="url(#clip0_1749_13139)">
<g clip-path="url(#clip1_1749_13139)">
<path d="M28.9075 44.2076C29.3149 44.2395 29.5745 44.2675 29.8301 44.2755C30.1537 44.2875 30.4772 44.2715 30.8007 44.2835C31.6155 44.3114 31.9311 44.5032 31.9351 44.9585C31.9431 45.6215 31.4358 46.2646 30.8047 46.3085C30.1936 46.3525 29.5825 46.3165 28.9354 46.3165C28.8715 46.664 28.7797 46.9196 28.7876 47.1753C28.8116 48.2537 28.8795 49.3361 28.9035 50.4146C28.9115 50.7261 28.8515 51.0457 28.7717 51.3452C28.6878 51.6688 28.5041 51.9324 28.1126 51.9563C27.7012 51.9803 27.3058 51.8884 27.138 51.505C26.9543 51.0856 26.8065 50.6223 26.7905 50.1709C26.7426 48.9128 26.7746 47.6546 26.7746 46.3844C26.6827 46.3405 26.6108 46.2686 26.5349 46.2686C24.8374 46.3005 23.1358 46.3684 21.4383 46.3764C20.3279 46.3764 19.2175 46.3165 18.1111 46.2406C17.6957 46.2127 17.3482 46.021 17.1046 45.6215C16.797 45.1143 16.7811 44.643 17.1046 44.1557C20.1042 39.6662 23.1638 35.2805 26.4231 30.9828C26.6667 30.6592 26.9543 30.3557 27.2658 30.096C27.4576 29.9363 27.7252 29.8324 27.9728 29.7765C28.4361 29.6767 28.7397 29.9043 28.8356 30.3876C28.8955 30.7032 28.9714 31.0267 28.9754 31.3462C29.0193 34.5736 29.0672 37.8009 29.0752 41.0282C29.0752 42.0467 28.9714 43.0652 28.9075 44.2036V44.2076ZM26.9024 33.8466C26.7466 33.7108 26.5309 33.9345 26.2753 34.294C25.3566 35.5761 24.3221 36.7983 23.5432 38.1604C22.5487 39.8938 21.4383 41.5355 20.256 43.1411C19.9525 43.5525 19.6769 43.9879 19.3094 44.5271C19.7687 44.5271 20.0563 44.5391 20.3439 44.5271C21.3944 44.4792 22.4448 44.4033 23.4953 44.3713C24.402 44.3434 25.3127 44.3713 26.2194 44.3634C26.443 44.3634 26.6627 44.3154 26.9942 44.2795C26.8145 44.2955 27.2499 38.0845 27.186 37.5692C27.13 37.1099 27.126 36.6465 27.1181 36.1832C27.1181 35.6001 27.19 34.921 27.0901 34.3499C27.0422 34.0783 26.9783 33.9185 26.9024 33.8506V33.8466Z" fill="#FCFCEE"></path>
<path d="M5.74907 49.324C6.6278 49.5158 9.09222 49.2402 9.50363 49.2242C10.0908 49.2002 10.6739 49.1403 11.2571 49.1203C12.3994 49.0804 13.5378 49.0564 14.6801 49.0285C14.9158 49.0245 15.1514 49.0165 15.3831 49.0285C16.0381 49.0604 16.2419 49.2162 16.2379 49.6636C16.2379 50.2188 15.8864 50.6621 15.3951 50.726C14.7001 50.8179 14.0051 50.9337 13.3061 50.9816C11.5527 51.0935 9.7952 51.2133 8.04175 51.2493C6.9034 51.2692 5.75706 51.1694 4.61871 51.0735C4.28719 51.0456 3.92771 50.9058 3.65211 50.714C2.90919 50.2028 2.80135 49.364 3.36054 48.649C4.6986 46.9395 6.2124 45.3858 7.71822 43.824C9.48366 41.9947 11.2092 40.1094 12.3954 37.8048C12.9546 36.7223 12.9786 35.604 12.8747 34.4656C12.8068 33.7227 12.2636 33.1875 11.6885 32.788C10.5102 31.9692 9.1801 31.7216 7.75017 31.9293C6.65576 32.089 5.64922 32.4365 4.73055 33.0596C4.47093 33.2354 4.17136 33.3592 3.87978 33.515C3.70803 33.3592 3.56025 33.2594 3.4564 33.1275C3.07695 32.6363 3.10091 32.4725 3.5243 31.9892C4.7625 30.5752 6.38415 30.0001 8.18953 29.8203C9.37581 29.7005 10.5261 29.9482 11.6725 30.1918C12.036 30.2677 12.4154 30.4275 12.703 30.6591C14.1649 31.8174 15.1035 33.2194 15.1035 35.2125C15.1035 36.934 14.5922 38.308 13.5657 39.6461C12.4793 41.068 11.4089 42.5099 10.1667 43.8041C8.60493 45.4297 6.88343 46.9235 5.56933 48.7689C5.48945 48.8807 5.40557 49.0085 5.42554 49.1483C5.43752 49.2362 5.55336 49.2961 5.73709 49.336L5.74907 49.324Z" fill="#FCFCEE"></path>
<path d="M55.2094 32.133C53.6157 32.133 52.1219 32.0851 50.632 32.145C49.1422 32.2049 47.6604 32.3926 46.1745 32.4885C45.8789 32.5085 45.5195 32.4326 45.2798 32.2688C44.8724 31.9852 44.485 31.5858 44.6168 31.0266C44.7486 30.4754 45.2958 30.4115 45.7431 30.3356C46.2584 30.2477 46.7936 30.2557 47.3208 30.2477C49.8692 30.2118 52.4214 30.1798 54.9698 30.1519C55.5249 30.1479 56.0761 30.1599 56.6313 30.1838C57.1146 30.2038 57.4781 30.5992 57.4981 31.0945C57.538 32.105 57.0268 32.9518 56.6353 33.8226C55.1655 37.0898 53.1684 40.0695 51.4708 43.2089C50.1607 45.6294 49.0024 48.1298 47.8241 50.6182C47.197 51.9403 45.4715 51.1534 45.9309 49.7554C46.1505 49.0924 46.4661 48.4573 46.7896 47.8342C47.6683 46.1487 48.571 44.4711 49.4777 42.7975C50.9396 40.0935 52.4135 37.3934 53.8753 34.6853C54.3187 33.8665 54.7341 33.0317 55.2014 32.129L55.2094 32.133Z" fill="#FCFCEE"></path>
<path d="M41.6051 29.0774C41.6651 29.1573 41.709 29.2612 41.729 29.393C41.8049 29.8643 41.5532 30.5872 41.4414 31.0506C41.2936 31.6417 41.1019 32.2249 40.9341 32.812L40.8982 32.9358C39.7159 37.0099 38.4497 41.06 37.1197 45.0902C36.4566 47.1033 35.7536 49.1044 35.0826 51.1135C34.9468 51.5129 34.5114 52.2518 33.9443 52.132C33.2692 51.9882 33.397 51.0176 33.5169 50.5503C33.7166 49.7874 33.9443 49.0285 34.1839 48.2776C36.1291 42.2304 38.0823 36.1871 40.0354 30.1439C40.1153 29.8922 40.2032 29.6406 40.315 29.405C40.5467 28.9137 41.2936 28.678 41.6091 29.0854L41.6051 29.0774Z" fill="#FCFCEE"></path>
<path d="M32.8944 74.9719C30.6079 74.9719 28.3593 74.7294 26.1484 74.2444C19.0466 72.6886 11.7621 67.8197 6.6633 61.2281C6.39875 60.8848 6.46174 60.3904 6.80502 60.1227C7.1483 59.855 7.64275 59.9211 7.91044 60.2644C12.7888 66.5757 19.7332 71.2273 26.4886 72.7075C33.8455 74.32 41.7094 73.0981 49.86 69.07C54.688 66.6828 58.8892 62.2705 61.689 56.6426C64.3754 51.2383 65.4997 45.1663 64.9328 39.0849C64.3597 32.9342 62.0921 27.2087 58.3727 22.5319C57.2075 21.0674 55.8973 19.6911 54.477 18.444C54.1494 18.1574 54.1179 17.6598 54.4045 17.3322C54.6911 17.0047 55.1887 16.9732 55.5163 17.2598C57.0059 18.5668 58.3822 20.0124 59.6041 21.5524C63.5125 26.4717 65.8966 32.4838 66.4981 38.94C67.0902 45.3144 65.9155 51.6761 63.0968 57.3449C60.1458 63.2815 55.6895 67.9457 50.556 70.4841C44.5061 73.4728 38.5916 74.9751 32.8975 74.9751L32.8944 74.9719Z" fill="#FCFCEE"></path>
<path d="M9.53578 21.5902C9.34997 21.5902 9.1673 21.5272 9.01613 21.3949C8.6886 21.1084 8.65711 20.6108 8.9437 20.2832C12.1781 16.6016 16.077 13.8459 20.5302 12.0949C26.7912 9.63836 32.8946 8.80378 40.9475 9.31083C41.3822 9.33918 41.7097 9.7108 41.6845 10.1454C41.6562 10.58 41.2814 10.9076 40.8499 10.8824C33.0426 10.3911 27.1376 11.1942 21.1065 13.5625C16.8864 15.219 13.1922 17.8299 10.1279 21.3225C9.97354 21.4989 9.75308 21.5902 9.53578 21.5902Z" fill="#FCFCEE"></path>
<path d="M30.8881 19.351C30.7937 19.351 30.6992 19.3353 30.6078 19.2975C30.2016 19.1431 30 18.6865 30.1543 18.2802C31.6723 14.3183 35.1272 11.2571 39.1552 10.0509C37.3664 9.38327 35.6531 8.49515 34.0879 7.42121C31.6156 5.7237 30.2835 3.84038 30.1291 1.82164C30.0976 1.38703 30.422 1.00911 30.8535 0.977612C31.285 0.942969 31.666 1.2705 31.6975 1.70197C31.8141 3.21996 32.9163 4.70646 34.976 6.12052C37.3569 7.75505 40.1126 8.92661 42.9439 9.50609C43.3376 9.58798 43.6084 9.9533 43.5706 10.3533C43.5328 10.7532 43.199 11.0619 42.7959 11.065C37.949 11.1154 33.3541 14.312 31.6219 18.8408C31.5023 19.1557 31.2031 19.3479 30.885 19.3479L30.8881 19.351Z" fill="#FCFCEE"></path>
</g>
</g>
<defs>
<clipPath id="clip0_1749_13139">
<rect width="74" height="74" fill="white" transform="translate(0 0.974854)"></rect>
</clipPath>
<clipPath id="clip1_1749_13139">
<rect width="67.562" height="74" fill="white" transform="translate(3.009 0.630127)"></rect>
</clipPath>
</defs>
</svg>