<svg width="100%" height="100%" viewBox="0 0 75 75" fill="none" xmlns="http://www.w3.org/2000/svg">
<g clip-path="url(#clip0_1749_13016)">
<g clip-path="url(#clip1_1749_13016)">
<path d="M30.8329 44.0775C31.255 44.1094 31.524 44.1374 31.7889 44.1454C32.1241 44.1573 32.4593 44.1414 32.7945 44.1533C33.6387 44.1813 33.9656 44.373 33.9698 44.8284C33.9781 45.4914 33.4525 46.1345 32.7986 46.1784C32.1655 46.2223 31.5323 46.1864 30.8619 46.1864C30.7957 46.5339 30.7005 46.7895 30.7088 47.0451C30.7336 48.1236 30.804 49.206 30.8288 50.2845C30.8371 50.596 30.775 50.9155 30.6922 51.2151C30.6053 51.5386 30.4149 51.8022 30.0094 51.8262C29.5831 51.8502 29.1734 51.7583 28.9996 51.3749C28.8093 50.9555 28.6562 50.4921 28.6396 50.0408C28.5899 48.7826 28.623 47.5245 28.623 46.2543C28.5279 46.2104 28.4534 46.1385 28.3747 46.1385C26.6159 46.1704 24.853 46.2383 23.0942 46.2463C21.9438 46.2463 20.7933 46.1864 19.647 46.1105C19.2166 46.0825 18.8566 45.8908 18.6041 45.4914C18.2855 44.9841 18.2689 44.5128 18.6041 44.0255C21.712 39.536 24.882 35.1504 28.2589 30.8526C28.5113 30.5291 28.8093 30.2255 29.1321 29.9659C29.3307 29.8062 29.608 29.7023 29.8645 29.6464C30.3446 29.5465 30.6591 29.7742 30.7584 30.2575C30.8205 30.573 30.8991 30.8966 30.9033 31.2161C30.9488 34.4434 30.9985 37.6707 31.0067 40.8981C31.0067 41.9166 30.8991 42.9351 30.8329 44.0735V44.0775ZM28.7555 33.7165C28.5941 33.5807 28.3706 33.8044 28.1058 34.1638C27.1539 35.446 26.0821 36.6682 25.2751 38.0302C24.2447 39.7637 23.0942 41.4053 21.8693 43.011C21.5548 43.4224 21.2692 43.8578 20.8885 44.397C21.3644 44.397 21.6624 44.409 21.9603 44.397C23.0487 44.3491 24.1371 44.2732 25.2255 44.2412C26.1649 44.2133 27.1084 44.2412 28.0478 44.2332C28.2796 44.2332 28.5072 44.1853 28.8507 44.1493C28.6644 44.1653 29.1155 37.9543 29.0493 37.4391C28.9914 36.9797 28.9872 36.5164 28.9789 36.0531C28.9789 35.4699 29.0534 34.7909 28.95 34.2198C28.9003 33.9481 28.8341 33.7884 28.7555 33.7205V33.7165Z" fill="#0f332b"></path>
<path d="M6.83903 49.1939C7.74947 49.3856 10.3028 49.11 10.7291 49.0941C11.3374 49.0701 11.9416 49.0102 12.5458 48.9902C13.7294 48.9503 14.9088 48.9263 16.0924 48.8984C16.3365 48.8944 16.5807 48.8864 16.8207 48.8984C17.4994 48.9303 17.7105 49.0861 17.7063 49.5334C17.7063 50.0886 17.3421 50.532 16.8331 50.5959C16.1131 50.6878 15.393 50.8036 14.6688 50.8515C12.852 50.9634 11.0312 51.0832 9.21444 51.1191C8.03502 51.1391 6.84731 51.0392 5.66788 50.9434C5.3244 50.9154 4.95195 50.7756 4.66641 50.5839C3.89667 50.0726 3.78494 49.2339 4.36431 48.5189C5.75065 46.8094 7.31908 45.2556 8.87924 43.6939C10.7084 41.8646 12.4961 39.9793 13.7252 37.6746C14.3046 36.5922 14.3294 35.4738 14.2218 34.3355C14.1515 33.5926 13.5887 33.0573 12.9927 32.6579C11.7719 31.8391 10.3939 31.5915 8.91234 31.7992C7.77844 31.9589 6.73558 32.3064 5.78376 32.9295C5.51477 33.1053 5.20439 33.2291 4.90229 33.3849C4.72434 33.2291 4.57122 33.1292 4.46363 32.9974C4.07049 32.5061 4.09532 32.3424 4.53398 31.8591C5.81686 30.4451 7.49703 29.87 9.36756 29.6902C10.5966 29.5704 11.7885 29.818 12.9762 30.0617C13.3528 30.1376 13.7459 30.2973 14.0439 30.529C15.5585 31.6873 16.531 33.0893 16.531 35.0824C16.531 36.8039 16.0013 38.1779 14.9378 39.516C13.8121 40.9379 12.7031 42.3798 11.416 43.6739C9.79795 45.2996 8.01432 46.7934 6.65281 48.6387C6.57004 48.7506 6.48314 48.8784 6.50383 49.0182C6.51624 49.1061 6.63626 49.166 6.82662 49.2059L6.83903 49.1939Z" fill="#0f332b"></path>
<path d="M58.0841 32.0029C56.4329 32.0029 54.8851 31.955 53.3415 32.0149C51.7979 32.0748 50.2626 32.2625 48.7232 32.3584C48.4169 32.3783 48.0445 32.3024 47.7962 32.1387C47.3741 31.8551 46.9726 31.4557 47.1092 30.8965C47.2458 30.3453 47.8127 30.2814 48.2762 30.2055C48.8101 30.1176 49.3646 30.1256 49.9109 30.1176C52.5511 30.0817 55.1955 30.0497 57.8358 30.0218C58.411 30.0178 58.9821 30.0297 59.5573 30.0537C60.0581 30.0737 60.4347 30.4691 60.4553 30.9644C60.4967 31.9749 59.967 32.8217 59.5615 33.6924C58.0386 36.9597 55.9694 39.9394 54.2106 43.0788C52.8532 45.4993 51.6531 47.9997 50.4323 50.4881C49.7826 51.8102 47.9948 51.0233 48.4707 49.6253C48.6983 48.9623 49.0253 48.3272 49.3605 47.7041C50.2709 46.0186 51.2062 44.341 52.1456 42.6674C53.6602 39.9633 55.1872 37.2633 56.7019 34.5552C57.1612 33.7364 57.5916 32.9016 58.0758 31.9989L58.0841 32.0029Z" fill="#0f332b"></path>
<path d="M43.9891 28.9473C44.0512 29.0272 44.0967 29.131 44.1174 29.2628C44.196 29.7342 43.9353 30.4571 43.8195 30.9204C43.6663 31.5116 43.4677 32.0947 43.2939 32.6819L43.2566 32.8057C42.0317 36.8798 40.7198 40.9299 39.3418 44.9601C38.6548 46.9732 37.9265 48.9743 37.2312 50.9833C37.0905 51.3828 36.6394 52.1217 36.0518 52.0019C35.3524 51.8581 35.4848 50.8875 35.609 50.4202C35.8159 49.6573 36.0518 48.8984 36.3001 48.1475C38.3155 42.1002 40.3391 36.057 42.3628 30.0138C42.4455 29.7621 42.5366 29.5105 42.6524 29.2748C42.8925 28.7835 43.6663 28.5479 43.9933 28.9553L43.9891 28.9473Z" fill="#0f332b"></path>
<path d="M34.9637 74.8419C32.5948 74.8419 30.265 74.5994 27.9744 74.1144C20.6163 72.5586 13.0689 67.6897 7.78611 61.0981C7.51202 60.7548 7.57728 60.2604 7.93294 59.9927C8.28861 59.725 8.80091 59.7911 9.07826 60.1344C14.1327 66.4457 21.3276 71.0973 28.3268 72.5775C35.9492 74.19 44.0969 72.968 52.5416 68.94C57.5438 66.5528 61.8966 62.1405 64.7975 56.5126C67.5808 51.1083 68.7457 45.0363 68.1584 38.9549C67.5645 32.8042 65.2151 27.0787 61.3615 22.4018C60.1542 20.9374 58.7968 19.5611 57.3252 18.314C56.9858 18.0274 56.9532 17.5298 57.2501 17.2022C57.547 16.8747 58.0626 16.8432 58.402 17.1298C59.9454 18.4368 61.3713 19.8824 62.6373 21.4224C66.6867 26.3417 69.1568 32.3538 69.7801 38.81C70.3935 45.1844 69.1764 51.5461 66.256 57.2149C63.1986 63.1515 58.5814 67.8157 53.2627 70.3541C46.9945 73.3428 40.8665 74.8451 34.967 74.8451L34.9637 74.8419Z" fill="#0f332b"></path>
<path d="M10.762 21.4602C10.5695 21.4602 10.3803 21.3972 10.2236 21.2649C9.88429 20.9783 9.85166 20.4807 10.1486 20.1532C13.4997 16.4716 17.5393 13.7159 22.1532 11.9649C28.6401 9.50836 34.9638 8.67378 43.3073 9.18083C43.7576 9.20917 44.097 9.5808 44.0709 10.0154C44.0415 10.45 43.6532 10.7776 43.2062 10.7524C35.1172 10.2611 28.999 11.0641 22.7503 13.4325C18.3779 15.089 14.5504 17.6999 11.3755 21.1925C11.2156 21.3689 10.9872 21.4602 10.762 21.4602Z" fill="#0f332b"></path>
<path d="M32.8853 19.221C32.7874 19.221 32.6895 19.2053 32.5949 19.1675C32.174 19.0131 31.9651 18.5565 32.125 18.1502C33.6978 14.1883 37.2773 11.1271 41.4507 9.92093C39.5973 9.25326 37.8222 8.36514 36.2005 7.29121C33.639 5.5937 32.2588 3.71038 32.0989 1.69164C32.0663 1.25702 32.4024 0.879101 32.8494 0.847607C33.2964 0.812964 33.6913 1.1405 33.7239 1.57196C33.8446 3.08995 34.9867 4.57646 37.1207 5.99052C39.5875 7.62504 42.4426 8.7966 45.3761 9.37609C45.784 9.45797 46.0646 9.8233 46.0254 10.2233C45.9863 10.6232 45.6404 10.9319 45.2227 10.935C40.201 10.9854 35.4402 14.182 33.6456 18.7108C33.5216 19.0257 33.2116 19.2179 32.882 19.2179L32.8853 19.221Z" fill="#0f332b"></path>
</g>
</g>
<defs>
<clipPath id="clip0_1749_13016">
<rect width="74" height="74" fill="white" transform="translate(0.5 0.499756)"></rect>
</clipPath>
<clipPath id="clip1_1749_13016">
<rect width="70" height="74" fill="white" transform="translate(4 0.5)"></rect>
</clipPath>
</defs>
</svg>