<svg width="100%" height="100%" viewBox="0 0 75 75" fill="none" xmlns="http://www.w3.org/2000/svg">
<g clip-path="url(#clip0_1749_13172)">
<g clip-path="url(#clip1_1749_13172)">
<path d="M51.9167 54.2873C49.003 54.1437 46.6013 52.8986 44.8221 50.5374C43.7096 49.0566 42.9471 47.3916 42.7261 45.524C42.3983 42.7355 43.205 40.2675 44.9805 38.131C46.2955 36.5471 48.0121 35.5672 50.0086 35.0994C51.5299 34.7458 53.077 34.6832 54.5578 35.2062C55.5266 35.5488 56.4291 36.0829 57.3353 36.5802C58.8456 37.409 59.9507 38.6467 60.7316 40.1717C61.2878 41.2621 61.7225 42.4114 61.8551 43.6306C61.9251 44.2495 61.8698 44.9052 61.7409 45.5167C61.0742 48.6625 59.5307 51.2373 56.7349 52.9575C55.2762 53.8527 53.6627 54.221 51.913 54.2836L51.9167 54.2873ZM52.7787 48.5004C53.7622 48.7324 54.37 48.1504 55.0036 47.5463C55.5782 47.0011 55.8103 46.3049 55.9871 45.5866C56.2855 44.3637 55.8582 43.3728 54.9483 42.5366C54.0458 41.7115 52.9739 41.5384 51.7951 41.4868C50.7379 41.4426 50.1007 41.9583 49.5629 42.7245C49.0914 43.3949 48.8556 44.1464 48.8851 44.9715C48.9551 46.8207 49.725 47.911 51.5189 48.3715C51.9241 48.4746 52.3587 48.4562 52.7787 48.493V48.5004Z" fill="#f3e7cf"></path>
<path d="M25.6084 29.8908C25.2475 28.8115 25.3616 27.8022 25.4022 26.7965C25.439 25.7946 25.4095 24.7927 25.4095 23.7244C25.0338 23.6876 24.6912 23.6102 24.3597 23.636C23.6967 23.6876 23.2878 23.4297 23.1478 22.7814C23.332 22.0263 23.8514 21.7795 24.5697 21.8089C24.9417 21.8237 25.3138 21.8053 25.6858 21.8237C26.3047 21.8568 26.5736 22.0484 26.6546 22.6525C26.8019 23.7797 26.8977 24.9105 27.0009 26.0451C27.104 27.1981 27.1924 28.351 27.2919 29.5482C27.5534 29.5629 27.7634 29.6145 27.9623 29.5814C28.6658 29.4598 29.362 29.2793 30.0656 29.1762C31.1744 29.0104 31.3254 26.2035 31.598 25.3121C32.0805 23.7207 32.7141 22.1626 33.6829 20.8033C34.4344 19.7461 34.9832 19.7682 36.1472 19.643C37.606 19.4846 39.0573 19.2746 40.5197 19.1641C42.5309 19.0094 44.5459 18.9431 46.5645 18.9652C47.909 18.9799 50.0602 18.6079 50.7859 20.0629C51.1948 20.8733 51.53 21.6874 51.8136 22.5457C52.3809 24.2733 53.1176 25.9198 54.5027 27.176C54.7347 27.3859 54.9926 27.5922 55.2762 27.7211C56.1198 28.1042 56.9781 28.4505 57.8363 28.8004C58.3852 29.0251 58.5399 29.2204 58.5473 29.8061C58.5546 30.4691 58.6025 31.1395 58.5289 31.7989C58.481 32.2262 58.3741 32.7677 58.0831 33.0218C57.7442 33.3165 57.1917 33.4197 56.7128 33.4786C56.2745 33.5339 55.8177 33.416 55.3646 33.3828C54.7642 33.3386 54.1601 33.2871 53.5597 33.276C52.7088 33.2576 51.8578 33.2539 51.0069 33.276C49.3014 33.3276 47.7285 33.8396 46.2588 34.6979C46.1888 34.7384 46.1261 34.7863 46.0598 34.8268C44.5532 35.7882 43.404 36.5692 42.5899 38.1936C42.0079 39.3613 41.4922 40.2454 41.2822 41.5752C41.0428 43.0707 41.0207 44.5921 40.958 46.1023C40.9507 46.2828 40.9396 46.467 40.8475 46.6217C40.4313 47.3179 37.9449 46.9201 37.2781 46.9054C37.0939 46.9017 36.9098 46.9127 36.7256 46.9164C35.8268 46.9385 34.9243 46.968 34.0255 46.9864C32.4158 47.0196 30.7397 47.2001 29.1373 47.0859C28.8942 47.0674 28.6437 47.0417 28.4264 46.9275C27.907 46.6586 27.6381 45.6087 27.5829 45.0857C27.3582 42.9713 26.4152 41.2326 25.0228 39.645C24.0171 38.4994 22.7573 37.8363 21.4239 37.2322C20.9561 37.0222 20.4772 36.9449 19.9615 36.9228C17.9613 36.827 16.1232 37.3133 14.4176 38.3373C13.8909 38.6541 13.3678 38.8125 12.7821 38.4699C11.2866 37.5895 13.5778 32.9261 13.8614 31.7621C14.2003 30.3549 15.9648 30.7122 17.0846 30.7196C19.7441 30.738 22.3595 30.3439 24.9786 29.9387C25.159 29.9092 25.3395 29.9129 25.6048 29.8945L25.6084 29.8908ZM49.865 21.2454C49.7619 21.0612 49.6293 20.9175 49.4598 20.8291C49.1357 20.6597 48.7562 20.6486 48.3916 20.6486C46.5608 20.6486 44.6417 20.4165 42.8219 20.6007C40.6781 20.8217 38.5269 20.958 36.383 21.1164C35.9483 21.1496 35.4916 21.1864 35.1232 21.4258C34.7696 21.6542 34.5522 22.0336 34.346 22.402C33.0014 24.789 32.8762 27.548 31.6201 30.016C31.2812 30.6828 30.7029 31.1837 29.9956 31.3274C28.6548 31.6037 27.2882 31.7768 25.9252 31.9426C24.5623 32.1083 23.192 32.2409 21.818 32.333C20.6024 32.4177 19.3795 32.4546 18.1639 32.4583C17.3166 32.4583 16.5099 32.3477 15.6738 32.4988C15.5927 32.5135 15.508 32.5319 15.4491 32.5872C15.3938 32.6424 15.3754 32.7272 15.3607 32.8045C15.2391 33.416 14.064 35.7109 14.6755 36.0461C15.2023 36.3371 16.2263 35.4788 16.7089 35.3167C17.8802 34.9226 19.1106 34.7384 20.3446 34.8084C21.0297 34.8489 21.6523 34.9521 22.2453 35.2836C22.4295 35.3867 22.61 35.5083 22.8089 35.582C25.0338 36.4476 26.4446 38.1789 27.6455 40.1312C28.3233 41.2363 28.6216 42.4777 28.8795 43.7301C28.99 44.2605 29.0305 44.802 29.1005 45.314C30.9239 45.1814 32.692 45.0378 34.4565 44.9273C35.731 44.8462 37.1381 44.791 38.4495 44.6289C39.8603 44.4558 39.4441 44.0248 39.3815 42.8755C39.1678 38.7462 41.9968 34.7531 45.4042 32.8192C46.8739 31.9868 48.4505 31.4379 50.1376 31.3016C51.1395 31.2206 52.1562 31.2611 53.1655 31.2942C54.0385 31.3237 54.8821 31.5447 55.7404 31.6626C56.4255 31.7584 56.6171 31.7179 56.7791 31.1027C57.0333 30.1376 56.1419 29.8613 55.383 29.5482C53.9022 28.9367 52.7751 27.7064 51.7989 26.4392C51.3311 25.8278 50.8817 25.1979 50.5649 24.4943C50.226 23.7428 50.3402 22.0926 49.8613 21.249L49.865 21.2454Z" fill="#f3e7cf"></path>
<path d="M26.5847 46.1981C26.5957 48.773 25.859 50.6921 24.2603 52.2135C22.0944 54.2763 18.5618 54.5268 16.0569 52.6481C13.5668 50.7769 12.2002 48.261 12.3733 45.1078C12.528 42.3009 14.4104 39.8844 17.5783 39.2877C19.2359 38.9746 20.7793 39.343 22.308 39.9102C22.7316 40.0649 23.1442 40.2491 23.5752 40.3854C24.3635 40.6396 24.8865 41.159 25.1996 41.9104C25.2696 42.0799 25.347 42.253 25.4428 42.4077C26.2163 43.6859 26.6547 45.0525 26.5847 46.1981ZM21.7297 46.3013C21.7149 44.9531 20.7425 43.9659 19.4237 43.9696C17.9724 43.9696 16.6758 45.3215 16.6684 46.8354C16.661 48.1947 17.6924 49.2261 19.0333 49.2003C20.492 49.1745 21.7444 47.8263 21.7297 46.3013Z" fill="#f3e7cf"></path>
<path d="M42.192 31.5705C42.0889 30.6717 41.9931 29.8392 41.8937 29.0067C41.7684 27.9311 41.6432 26.8555 41.5179 25.7799C41.3743 24.5569 41.2269 23.3561 41.1643 22.1294C41.1533 21.9305 46.896 21.8311 47.3638 21.8274C47.6475 21.8274 47.9422 21.8826 48.2111 21.9674C48.6015 22.0926 48.7857 22.3578 48.7894 22.8072C48.8041 24.7448 48.8631 26.6787 48.8741 28.6163C48.8741 29.0031 48.7636 29.3935 48.6605 29.7729C48.4689 30.4876 47.9827 30.9038 47.246 30.9848C46.0635 31.1211 44.8811 31.2316 43.7023 31.3606C43.2345 31.4121 42.7704 31.4895 42.1994 31.5705H42.192Z" fill="#f3e7cf"></path>
<path d="M39.0168 22.0704C39.1605 22.7813 39.3557 23.4444 39.4147 24.1185C39.6062 26.2587 40.0262 28.3546 40.5603 30.4285C40.6561 30.8006 40.7113 31.18 40.7776 31.5557C40.4019 31.6773 40.0519 31.5373 39.6615 31.5483C39.0647 31.5667 38.4606 31.7399 37.8749 31.8504C37.2929 31.9609 36.7072 32.0714 36.1142 32.0714C35.8747 32.0714 35.6353 32.0567 35.3995 32.0824C34.9391 32.134 34.5044 32.3403 34.044 32.3403C33.0494 32.3403 33.0715 31.471 33.2962 30.7637C34.0661 28.3362 34.556 25.8424 35.1196 23.367C35.2375 22.8476 35.4843 22.5972 36.0552 22.4756C36.9872 22.2767 37.9044 22.0483 39.0242 22.0667L39.0168 22.0704Z" fill="#f3e7cf"></path>
<path d="M32.8174 34.3921C35.1196 34.1637 37.3187 33.6664 39.6431 33.7143C39.1495 34.7567 38.6927 35.7292 38.236 36.7017C38.1439 36.8932 38.0407 37.0774 37.956 37.2727C37.6785 37.9234 37.2021 38.2488 36.5268 38.2488C35.6501 38.2488 34.7734 38.2562 33.8967 38.2488C33.0752 38.2414 32.1764 37.2542 32.2759 36.4475C32.3201 36.0828 32.4306 35.7219 32.5264 35.3645C32.6074 35.0588 32.7105 34.7604 32.8211 34.3958L32.8174 34.3921Z" fill="#f3e7cf"></path>
<path d="M71.663 38.4761C71.1972 38.4761 70.8192 38.0981 70.8192 37.6323C70.8192 35.6072 70.637 33.5788 70.2826 31.6044C69.1452 25.3031 66.138 19.427 61.5917 14.6175C57.0961 9.86197 51.4124 6.46999 45.1617 4.81282C38.6478 3.08814 32.1237 3.34802 26.7877 5.55196C17.7829 9.26795 11.2352 14.7356 7.33357 21.7997C7.10744 22.2081 6.59443 22.3566 6.18604 22.1305C5.77765 21.9043 5.62915 21.3913 5.85528 20.9829C9.9459 13.5746 16.7737 7.86053 26.143 3.99267C31.8166 1.65035 38.7254 1.36346 45.5904 3.18264C52.1482 4.92082 58.1019 8.4748 62.8169 13.4565C67.5893 18.5056 70.745 24.6753 71.9431 31.304C72.3178 33.3763 72.5068 35.506 72.5068 37.6323C72.5068 38.0981 72.1288 38.4761 71.663 38.4761Z" fill="#f3e7cf"></path>
<path d="M37.1425 72.9967C24.9853 72.9967 14.3369 66.8135 7.16143 55.5845C4.99798 52.2027 3.37794 49.0672 2.49703 44.7572C2.40253 44.3016 2.69954 43.8561 3.15518 43.7616C3.61082 43.6671 4.05633 43.9641 4.15083 44.4197C4.98111 48.4732 6.52353 51.45 8.58234 54.6766C15.4372 65.4027 25.5827 71.3091 37.1425 71.3091C42.1241 71.3091 46.8391 70.1819 51.1559 67.9543C57.3289 64.7716 62.1486 60.5831 67.272 53.951C67.5555 53.5831 68.0854 53.5156 68.4567 53.7991C68.8279 54.0826 68.892 54.6125 68.6085 54.9838C63.3231 61.8251 58.3347 66.152 51.9288 69.4562C47.369 71.8053 42.3941 73.0001 37.1425 73.0001V72.9967Z" fill="#f3e7cf"></path>
<path d="M3.68183 26.6734C3.50632 26.6734 3.32744 26.6194 3.17894 26.5047C2.82118 26.2381 2.73343 25.7419 2.97643 25.3673C3.46245 24.6214 3.95521 23.862 4.50535 23.1363C5.60901 21.1045 6.20978 18.7082 6.23341 16.1803C6.26041 13.1022 5.41326 9.77431 3.78646 6.55446C3.5772 6.13932 3.74258 5.62968 4.15772 5.42043C4.57286 5.21117 5.0825 5.37655 5.29175 5.79169C7.06368 9.29842 7.94796 12.7984 7.92096 16.1904C7.90746 17.6383 7.72183 19.0491 7.37757 20.389C9.05837 19.3022 11.1577 18.6306 13.5338 18.4281C16.1461 18.2087 18.8293 18.5664 20.9826 18.8533C21.445 18.9141 21.769 19.3393 21.7082 19.8017C21.6475 20.2641 21.2222 20.5881 20.7598 20.5274C18.6875 20.2506 16.1056 19.9064 13.6755 20.1089C11.907 20.2574 9.38575 20.7839 7.43494 22.4411C6.87468 22.917 6.37854 23.4705 5.91952 24.0611C5.46051 24.8846 4.93062 25.6575 4.32647 26.3629C4.16109 26.5587 3.92146 26.6599 3.6852 26.6599L3.68183 26.6734Z" fill="#f3e7cf"></path>
<path d="M67.5926 69.2402C67.3732 69.2402 67.1538 69.1558 66.9884 68.9871C65.473 67.4379 64.8959 65.0348 65.2773 61.842C65.5169 59.8237 66.0164 57.8155 66.742 55.9018C62.9248 58.2914 58.014 58.9124 53.7479 57.3329C53.3125 57.1709 53.0864 56.6848 53.2518 56.2495C53.4138 55.8141 53.8998 55.5913 54.3352 55.7499C59.2054 57.5556 65.0275 56.1178 68.4971 52.25C68.784 51.9293 69.27 51.8787 69.6176 52.1285C69.9686 52.3816 70.0699 52.8575 69.8573 53.2321C68.3216 55.9221 67.3192 58.9664 66.9513 62.0445C66.634 64.7041 67.0526 66.6448 68.1933 67.8092C68.5207 68.1433 68.514 68.6766 68.1798 69.004C68.0145 69.166 67.8018 69.2436 67.5892 69.2436L67.5926 69.2402Z" fill="#f3e7cf"></path>
</g>
</g>
<defs>
<clipPath id="clip0_1749_13172">
<rect width="74" height="74" fill="white" transform="translate(0.5 0.499756)"></rect>
</clipPath>
<clipPath id="clip1_1749_13172">
<rect width="71.602" height="74" fill="white" transform="translate(1.38892 0.944946)"></rect>
</clipPath>
</defs>
</svg>