<svg width="38" height="38" viewBox="0 0 38 38" fill="none" xmlns="http://www.w3.org/2000/svg">
<mask id="mask0_8_550" style="mask-type:luminance" maskUnits="userSpaceOnUse" x="0" y="0" width="38" height="38">
<path d="M16.9075 -1.53572e-05L0 22.7909L20.3837 37.9126L37.2912 15.1217L16.9075 -1.53572e-05Z" fill="white"/>
</mask>
<g mask="url(#mask0_8_550)">
<path d="M8.95981 20.9535C8.93429 21.0705 8.93003 21.1428 8.9045 21.2109C7.93873 23.7509 8.38758 26.0377 10.1064 28.1117C10.2234 28.2543 10.2745 28.5095 10.2532 28.701C10.2128 29.0839 10.0745 29.454 10.0341 29.8369C10.0149 30.0114 10.0788 30.2709 10.2 30.3602C10.3234 30.4453 10.5787 30.407 10.751 30.3475C10.9892 30.2624 11.2168 30.1241 11.4232 29.9752C11.8401 29.6753 12.2188 29.7093 12.6953 29.9029C14.629 30.6878 16.5371 30.59 18.3772 29.5753C18.7729 29.3562 19.1387 29.0796 19.5344 28.818C19.6152 28.8924 19.6854 28.9456 19.7471 29.0116C21.2851 30.6644 23.1571 31.0006 25.2418 30.3581C26.2948 30.0348 26.9841 29.3051 27.2947 28.2309C27.5606 27.3034 27.5095 26.3759 27.3244 25.4484C26.9585 23.6147 26.1715 21.9661 25.1312 20.4302C24.9738 20.1941 24.8909 20.0175 25.1248 19.7601C26.5671 18.1519 26.6267 16.3501 25.7481 14.4824C25.5078 13.9676 25.6524 13.7442 26.0396 13.4656C27.6861 12.27 29.4772 11.9701 31.4237 12.5317C31.9831 12.6934 32.3363 12.5679 32.483 12.1594C32.6298 11.7467 32.4235 11.3894 31.8831 11.2213C29.4474 10.4683 27.2011 10.8639 25.1546 12.3849C24.9823 12.5126 24.8121 12.6402 24.6462 12.7614C24.1442 12.3892 23.706 12.0233 23.2273 11.7212C22.8934 11.5127 22.838 11.3319 22.9933 10.9682C23.4528 9.88539 23.623 8.74305 23.5145 7.56881C23.3911 6.26054 22.9508 5.06502 22.1871 3.99501C21.9382 3.64614 21.6064 3.47596 21.1894 3.72698C20.8278 3.94821 20.7789 4.34388 21.0448 4.78635C21.0724 4.83528 21.1043 4.87995 21.1341 4.92675C22.1892 6.57963 22.4317 8.33249 21.7914 10.1981C21.5383 10.9405 21.5447 10.9299 20.7555 10.8405C18.7643 10.6172 17.12 11.1873 16.0287 12.9635C15.8606 13.2337 15.699 13.2826 15.399 13.1997C14.6736 12.9997 13.944 12.7976 13.2037 12.6764C11.5019 12.3934 9.80008 12.3445 8.14082 12.9401C6.54963 13.5124 5.7434 14.6909 5.83062 16.3629C5.94123 18.4987 6.96019 20.043 8.95981 20.962V20.9535ZM17.3157 17.4499C15.4373 19.9112 11.8486 20.7918 9.13638 19.4602C7.81322 18.8092 6.97721 17.1053 7.25801 15.6673C7.41755 14.861 7.98127 14.4101 8.69603 14.2335C9.50865 14.0335 10.3574 13.8868 11.1892 13.8953C13.2356 13.9144 15.1927 14.359 16.9774 15.4205C18.0475 16.0587 18.1028 16.4203 17.3157 17.4542V17.4499ZM22.5572 19.5729C24.4271 21.3705 25.578 23.5722 26.0183 26.1249C26.2629 27.5374 25.8928 28.4946 25.0419 28.9307C23.8145 29.5561 22.0063 29.2817 21.0341 28.3202C19.0834 26.3908 18.658 23.017 20.0492 20.5004C20.1917 20.2451 20.3449 19.9941 20.4236 19.858C21.2596 18.7369 21.6383 18.6859 22.5572 19.5729ZM17.471 28.4223C16.0925 29.3753 13.6228 29.1754 11.955 27.9182C10.3276 26.6907 9.40867 24.3805 9.97026 22.7702C10.9467 24.0955 12.0188 25.2846 13.376 26.1313C14.7055 26.9609 16.1095 27.6671 17.4731 28.4223H17.471ZM17.8475 24.5124C16.0819 23.7785 14.7119 22.7489 13.4675 21.3641C14.8778 21.0365 16.0734 20.46 17.1455 19.6304C17.2285 19.5665 17.4369 19.5814 17.539 19.641C17.8071 19.8005 18.0666 19.9814 18.29 20.1962C18.3857 20.2856 18.4644 20.5047 18.4219 20.6174C17.973 21.8385 17.7411 23.0914 17.8454 24.5167L17.8475 24.5124Z" fill="black"/>
<path d="M17.3231 17.4541C15.4448 19.9153 11.8582 20.7939 9.14382 19.4643C7.82067 18.8134 6.98466 17.1095 7.26545 15.6714C7.425 14.8631 7.98659 14.4121 8.70348 14.2377C9.51397 14.0377 10.3649 13.893 11.1966 13.8994C13.2409 13.9186 15.2023 14.361 16.9849 15.4247C18.0549 16.0607 18.1102 16.4245 17.3231 17.4583V17.4541Z" fill="#F3E7CF"/>
<path d="M20.4269 19.8622C21.263 18.7411 21.6416 18.6901 22.5606 19.5771C24.4304 21.3768 25.5792 23.5785 26.0216 26.1291C26.2663 27.5416 25.8961 28.4989 25.0452 28.9349C23.8178 29.5604 22.0075 29.2859 21.0375 28.3244C19.0868 26.395 18.6613 23.0212 20.0526 20.5046C20.193 20.2472 20.3482 19.9983 20.4269 19.8622Z" fill="#F3E7CF"/>
<path d="M17.4787 28.4222C16.0981 29.3773 13.6283 29.1731 11.9627 27.918C10.3353 26.6906 9.41637 24.3804 9.97797 22.7701C10.9523 24.0932 12.0244 25.2824 13.3837 26.1311C14.7132 26.9608 16.1172 27.667 17.4808 28.4222H17.4787Z" fill="#F3E7CF"/>
<path d="M17.8512 24.5145C16.0856 23.7806 14.7178 22.7489 13.4712 21.3662C14.8816 21.0386 16.0771 20.4621 17.1492 19.6325C17.2322 19.5687 17.4407 19.5835 17.5428 19.6431C17.8087 19.8005 18.0703 19.9835 18.2937 20.1983C18.3894 20.2877 18.4681 20.5068 18.4256 20.6195C17.9767 21.8406 17.7449 23.0935 17.8512 24.5188V24.5145Z" fill="#F3E7CF"/>
</g>
<path d="M3.65543 17.7796C2.48331 16.7096 1.94937 14.9695 2.88962 13.3039C3.39378 12.4253 4.13406 11.7808 4.98071 11.2532C5.18705 11.1171 5.41467 11.0086 5.62952 10.8831L5.66143 10.9214C5.66143 10.9214 5.56358 11.0043 5.51465 11.0469C4.72331 11.7042 4.04472 12.4572 3.56396 13.3847C2.84494 14.7717 2.82793 16.1672 3.54056 17.5627C3.5831 17.6414 3.61501 17.7116 3.65756 17.7903V17.7796H3.65543Z" fill="black"/>
<path d="M24.6133 32.0918C25.4621 32.0003 26.2917 31.811 27.0724 31.443C28.4764 30.7814 29.3018 29.6922 29.4592 28.1244C29.4592 28.0883 29.4741 28.05 29.5017 28.0074C29.5187 28.0542 29.5315 28.0883 29.5421 28.1436C29.8506 29.7731 29.0805 31.1898 27.5468 31.811C26.6023 32.1875 25.6195 32.2258 24.6154 32.1024V32.0875L24.6133 32.0918Z" fill="black"/>
</svg>
