<svg width="75" height="75" viewBox="0 0 75 75" fill="none" xmlns="http://www.w3.org/2000/svg">
<g clip-path="url(#clip0_1749_13149)">
<g clip-path="url(#clip1_1749_13149)">
<path d="M40.3901 74.0108C39.2402 74.1564 38.2019 74.2971 37.1636 74.4087C36.2078 74.5105 36.1205 74.4232 35.7372 73.055C35.4509 73.0404 35.1258 73.0259 34.7814 73.0113C34.6601 73.5256 34.563 73.9477 34.4805 74.3116C33.6751 74.365 32.9862 74.4087 32.2972 74.4475C31.3705 74.5008 31.1571 74.3747 30.7495 73.5499C30.5651 73.1714 30.3953 72.7105 29.9004 72.7348C29.4589 72.759 29.2066 73.1035 29.0077 73.5208C28.5856 74.4232 28.5613 74.3989 27.5764 74.1515C27.1737 74.0496 26.7564 73.9768 26.344 73.9574C25.558 73.9235 25.1942 73.6712 24.9855 72.9386C24.9273 72.7348 24.9031 72.5261 24.8448 72.3272C24.6071 71.4927 24.0879 71.2792 23.3796 71.7741C23.0448 72.007 22.8119 72.3854 22.5014 72.662C22.3122 72.8318 22.0356 73.0744 21.8416 73.0356C21.1963 72.9094 20.5461 72.7299 19.9493 72.4631C19.3768 72.2059 19.0518 71.711 19.0857 71.0269C19.1051 70.6922 19.0615 70.3525 19.0323 69.7509C18.6588 70.1293 18.4162 70.3089 18.2658 70.5466C17.9746 70.9978 17.6108 71.1191 17.1013 70.9736C15.6312 70.566 14.2921 69.9013 13.1374 68.9067C12.7347 68.5574 12.5455 68.111 12.6813 67.4997C13.1228 65.4958 13.5401 63.4872 14.5638 61.4931C13.8991 61.7114 13.574 62.1093 13.3023 62.5314C13.0306 62.9584 12.7007 63.0748 12.2398 62.8953C12.0457 62.8176 11.8419 62.7643 11.6382 62.7109C10.1341 62.3131 9.88181 61.9977 9.83814 60.4791C9.83329 60.3044 9.80903 60.1346 9.78962 59.9599C9.35296 59.8338 9.188 60.1394 9.04729 60.3966C8.73193 60.974 8.271 61.0273 7.70819 60.8527C6.32542 60.4257 5.02513 59.8241 3.94803 58.8489C3.65207 58.5772 3.3464 58.0338 3.41433 57.6893C3.84129 55.5351 4.15666 53.3275 5.39872 51.4401C7.14053 48.7959 9.47425 47.1657 12.7735 47.2142C14.2096 47.2336 15.6458 47.2579 17.0819 47.2142C19.9736 47.122 22.8265 46.6659 25.3785 45.2686C27.3629 44.1818 29.0562 42.7068 30.3419 40.7322C32.1226 37.9957 33.0735 34.9294 34.2428 31.9455C34.3641 31.6398 34.3884 31.2565 34.3253 30.9315C34.0293 29.4323 34.2137 27.9379 34.3107 26.4387C34.4029 25.0122 34.5048 23.5858 34.5921 22.1594C34.6018 22.0381 34.5388 21.9071 34.3301 21.7276C34.1409 22.1545 33.9274 22.5766 33.7576 23.0133C32.7533 25.6236 31.7684 28.2436 30.7592 30.8538C30.5991 31.2662 30.3711 31.6495 30.1673 32.0668C29.4541 31.8097 29.4201 31.242 29.3619 30.752C29.2066 29.505 29.1144 28.2484 28.9883 27.0015C28.9495 26.6279 28.8718 26.2592 28.7797 25.7109C28.3478 26.0214 28.0422 26.2252 27.7511 26.4484C26.5284 27.3848 25.3106 28.3309 24.0879 29.2624C23.5397 29.6797 23.3844 29.6263 23.0594 29.0344C22.7537 28.4862 22.7925 27.9719 23.103 27.443C24.4567 25.1141 25.8103 22.7853 27.1591 20.4515C27.3144 20.1798 27.4745 19.913 27.6589 19.6025C26.9505 18.9717 26.7419 18.2245 27.0136 17.3318C27.5958 15.4008 24.7526 15.2746 24.6847 13.6687C24.6411 12.6741 25.3106 12.446 25.689 11.7085C26.0093 11.0778 25.689 10.0686 25.6793 9.39423C25.6745 8.99638 25.7085 8.75379 26.0093 8.49664C26.6303 7.9775 27.2174 7.41954 28.1489 7.4632C28.6923 5.52247 30.012 4.85777 31.8994 5.23622C32.3021 4.62003 32.2439 3.9893 32.2875 3.36826C32.3991 1.75261 33.3986 0.864723 35.0045 1.14128C36.9647 1.4809 38.9054 1.25287 40.8558 1.16068C44.9071 0.971463 48.9632 0.772539 53.0242 0.947204C55.0523 1.03454 57.0852 0.966612 59.1181 0.976315C60.6658 0.981167 61.3111 1.60705 61.5634 3.11112C61.9758 5.56614 62.1311 8.03572 62.1311 10.515C62.1311 10.6509 62.1651 10.7867 62.1893 10.9856C62.4707 11.0099 62.7376 11.0584 63.0044 11.0584C64.8238 11.0633 66.6481 11.0584 68.4676 11.0633C69.8746 11.0681 70.5442 11.7231 70.7964 13.0913C71.4708 16.7641 71.3932 20.4709 71.3593 24.1729C71.3399 26.5503 71.2525 28.9277 71.1506 31.3002C71.0439 33.7746 70.9663 36.2588 70.6994 38.7235C70.5393 40.2033 70.0638 41.654 69.6854 43.1095C69.3312 44.4584 68.8848 45.7878 68.5306 47.1366C68.0455 48.9948 68.06 50.8822 68.419 52.7501C68.7878 54.6714 69.2536 56.5734 69.6466 58.485C69.7387 58.9265 69.7436 59.3874 69.7485 59.8435C69.763 60.7556 69.7387 61.6629 69.7533 62.5751C69.7921 64.7778 69.8455 66.9805 69.8892 69.1832C69.9037 70.0178 69.9086 70.8523 69.9183 71.6868C69.928 72.7833 69.2293 73.4917 68.1279 73.4965C67.3225 73.4965 66.5074 73.4286 65.7117 73.5208C65.0325 73.5984 64.6395 73.4043 64.4406 72.7639C64.2707 72.2108 63.8923 71.9827 63.3246 72.0264C62.9074 72.0604 62.5775 72.1817 62.5144 72.6717C62.4901 72.8755 62.4076 73.0744 62.3397 73.2733C62.1845 73.71 61.9467 73.9283 61.4033 73.8847C60.4669 73.8119 59.5208 73.8652 58.468 73.8652C58.2157 73.351 57.9488 72.7978 57.6334 72.1477C57.2987 72.2059 56.9299 72.269 56.5612 72.3418C56.0906 72.434 55.8771 72.6911 55.8383 73.2103C55.7558 74.3116 55.1299 74.8502 53.9994 74.8696C53.2328 74.8841 52.4663 74.8696 51.7045 74.8502C51.2533 74.8356 50.8846 74.4184 50.773 73.7537C50.6711 73.1375 50.6226 72.5164 50.5401 71.7838C50.1859 71.8323 49.8511 71.8469 49.5309 71.9197C47.4543 72.4048 45.3777 72.89 43.3109 73.414C42.7723 73.5499 42.3648 73.5887 42.1028 72.9919C41.9038 72.5407 41.4914 72.5941 41.1033 72.6571C40.7054 72.7251 40.4968 72.9482 40.5114 73.3801C40.5162 73.579 40.4289 73.7779 40.3804 73.9962L40.3901 74.0108ZM44.3006 35.0846C44.5287 35.1429 44.6936 35.2108 44.8586 35.2302C45.7465 35.3127 46.4743 35.7057 47.0031 36.4043C47.5028 37.069 47.9638 37.7725 48.4053 38.4809C49.3029 39.9025 49.3514 41.489 49.0166 43.0465C48.643 44.7883 48.0074 46.4524 47.236 48.0778C46.1152 50.4455 44.9168 52.7889 44.2279 55.3361C44.0823 55.865 44.0289 56.4375 44.0629 56.9858C44.0823 57.2817 44.32 57.7426 44.5529 57.8106C45.1594 57.9901 45.7999 58.286 46.4548 57.8591C47.891 56.9275 49.4242 56.1221 50.7681 55.079C53.0242 53.3226 55.4356 51.8477 58.0992 50.8579C60.2874 50.0428 62.5386 49.3344 64.95 49.5382C65.4546 49.5819 65.9689 49.5285 66.3764 49.5237C66.5511 48.5727 66.6433 47.7721 66.8568 47.0056C67.2012 45.7586 67.5603 44.5117 68.0309 43.3085C69.0789 40.64 69.5253 37.8599 69.6563 35.0216C69.7776 32.3336 69.8552 29.6409 69.8649 26.9481C69.8746 24.3233 69.8261 21.6985 69.7242 19.0736C69.6466 17.1668 69.4428 15.2649 69.2875 13.3291C69.0886 13.3727 68.9722 13.3679 68.8945 13.4164C67.7786 14.1296 66.556 14.5032 65.2411 14.5711C63.1791 14.673 61.1219 14.7652 59.0599 14.8574C54.9892 15.0466 50.9622 14.4498 46.9303 14.0762C45.6349 13.9549 44.3637 13.5571 43.0198 13.2708C42.6607 13.8628 42.4521 14.4935 43.0295 15.2116C43.4322 15.7113 43.3933 16.3178 43.1508 16.9097C43.0295 17.196 42.8451 17.5065 42.8596 17.7927C42.913 18.8698 43.0246 19.9469 43.1362 21.0192C43.3545 23.1006 43.6359 25.1772 43.8009 27.2635C44.0095 29.835 44.126 32.4161 44.2861 35.0943L44.3006 35.0846ZM44.2909 36.4092C44.2909 37.0011 44.2909 37.5202 44.2909 38.0442C44.2764 40.1402 44.519 42.2459 44.058 44.3225C43.8446 45.2735 43.5438 46.205 43.2526 47.1317C42.685 48.9317 42.1367 50.79 40.948 52.2649C39.4391 54.1329 37.6488 55.7874 35.6013 57.0537C33.6121 58.286 31.3026 58.7567 29.0028 58.9604C26.606 59.1739 24.1801 59.237 21.7736 59.1642C20.1822 59.1157 18.9159 59.63 17.7321 60.5713C16.3008 61.7066 15.2091 63.0554 14.9229 64.9767C15.2431 65.1174 15.5196 65.263 15.8107 65.3649C19.5758 66.6943 23.4766 67.5336 27.3532 68.4361C29.8422 69.0134 32.3991 69.1493 34.9463 69.2803C36.0574 69.3385 37.1782 69.3434 38.2892 69.2997C40.5793 69.2075 42.7626 68.5768 44.9411 67.9315C46.6829 67.4123 48.4198 66.8738 50.1859 66.4614C51.7482 66.0975 53.3444 65.884 54.931 65.6366C56.862 65.3357 58.7785 64.8942 60.7532 64.9913C60.9618 65.001 61.1704 64.967 61.3791 64.9524C63.606 64.8166 65.8039 64.312 68.0503 64.4236C68.1037 64.4236 68.1619 64.3508 68.2832 64.2683C68.2832 63.0942 68.3269 61.8715 68.2686 60.6489C68.225 59.7125 68.1182 58.7712 67.9145 57.8591C67.4341 55.7194 66.8762 53.5943 66.3279 51.3625C65.4109 51.0811 64.3435 51.1054 63.3295 51.2752C59.6275 51.8962 56.2119 53.245 53.1018 55.375C51.1708 56.6995 49.1913 57.9513 47.2069 59.1982C46.809 59.4456 46.3044 59.6009 45.8338 59.6494C43.8785 59.8435 42.554 58.8586 42.4569 57.0876C42.4133 56.3356 42.4472 55.5108 42.7189 54.8267C43.7815 52.1291 44.9653 49.48 46.0813 46.8018C46.6295 45.4821 47.1729 44.1527 47.629 42.799C48.4198 40.441 47.0856 37.4232 44.3006 36.4092L44.2909 36.4092ZM41.409 47.3452C41.341 47.3015 41.2682 47.253 41.2003 47.2093C40.1184 47.8498 39.051 48.5096 37.9496 49.1113C37.5323 49.3393 37.0472 49.514 36.5765 49.5625C34.6213 49.7565 33.2967 48.7716 33.1948 47.0007C33.1511 46.2487 33.1851 45.4239 33.4568 44.7398C34.5388 42.013 35.7469 39.3348 36.8628 36.6227C37.445 35.2059 38.0369 33.7746 38.4348 32.2997C38.6337 31.5671 38.4445 30.718 38.3669 29.932C38.2892 29.1411 38.1243 28.3552 38.003 27.5643C37.9642 27.3072 37.935 27.05 37.9011 26.7977C37.1054 28.0834 36.4795 29.4031 36.3242 30.8393C36.2224 31.7951 35.7857 32.3676 35.1792 32.7606C34.7959 34.1385 34.4029 35.4 34.0973 36.6857C33.8401 37.7628 33.3889 38.7235 32.7727 39.6308C32.4573 40.0917 32.108 40.5478 31.8848 41.0524C31.0018 43.0319 29.4152 44.4147 27.8918 45.846C27.4357 46.2729 26.9263 46.6659 26.3829 46.9667C24.3257 48.0924 22.0744 48.6649 19.7747 48.8687C17.3439 49.087 14.884 49.1307 12.4387 49.0773C10.9735 49.0482 9.78477 49.4751 8.664 50.3339C7.15023 51.4935 5.97609 52.8617 5.65102 54.914C6.17501 55.113 6.6796 55.3555 7.2133 55.4963C10.5853 56.4084 13.967 57.2963 17.3391 58.2084C17.7126 58.3103 17.9941 58.2084 18.3337 58.0871C19.1197 57.8203 19.9202 57.5146 20.7353 57.4467C22.2637 57.3157 23.8114 57.2866 25.3494 57.3205C27.8287 57.3691 30.2255 56.9421 32.5786 56.2289C34.0245 55.7922 35.3248 55.079 36.5038 54.0892C37.969 52.8569 39.1043 51.3528 40.2251 49.8487C40.7685 49.121 41.0208 48.1846 41.409 47.3403L41.409 47.3452ZM60.0157 3.24212C59.1278 3.60115 58.3515 4.01841 57.5219 4.22704C56.6485 4.44537 55.7267 4.50359 54.8242 4.55211C53.4997 4.62974 52.1703 4.60548 50.8457 4.68311C47.9395 4.84807 45.0478 4.76074 42.1561 4.40655C40.0601 4.14941 37.9593 3.99415 35.8051 3.78552C36.1399 4.20278 36.4552 4.57152 36.7366 4.96451C37.052 5.40118 37.4596 5.6001 37.9933 5.57584C38.2359 5.56129 38.4833 5.57584 38.7259 5.57584C40.2251 5.56614 40.8267 6.46858 40.8898 7.62816C40.9432 8.67616 41.4381 9.37482 42.1755 10.0298C42.6704 10.4713 43.0586 11.0341 43.4807 11.5242C49.0797 11.3058 54.7515 11.0875 60.4718 10.8643C60.6028 8.29772 60.2728 5.80873 60.0157 3.24697L60.0157 3.24212ZM41.7486 22.3631C41.6904 22.3631 41.6321 22.3632 41.5788 22.368C41.4769 24.1729 41.3847 25.9729 41.2682 27.7778C41.1858 28.9956 41.1033 30.2183 40.9335 31.4215C40.8753 31.8339 40.6327 32.421 40.3221 32.5471C39.8176 32.7509 39.7642 33.0954 39.6574 33.4835C39.2014 35.1768 38.5367 36.7828 37.8041 38.379C36.7706 40.6303 35.8779 42.9494 34.9851 45.2638C34.7911 45.7635 34.7862 46.3651 34.825 46.9085C34.8444 47.2045 35.0919 47.646 35.3296 47.7236C35.9701 47.9323 36.6202 48.1263 37.3286 47.7091C39.051 46.7047 40.7782 45.7053 42.4278 44.2788C42.4812 43.0804 42.5879 41.7559 42.5831 40.4362C42.5782 38.7235 42.4618 37.0108 42.4327 35.303C42.423 34.5703 42.5734 33.8329 42.5443 33.1051C42.4666 31.3633 42.3405 29.6215 42.2095 27.8845C42.0688 26.0457 41.9038 24.2068 41.7486 22.368L41.7486 22.3631ZM39.934 19.1124C39.3954 19.0202 39.1092 19.3405 38.8909 19.7626C38.6531 20.2283 38.4396 20.7087 38.1922 21.1648C37.9253 21.6548 37.5323 21.9507 36.9307 21.9216C36.5959 21.9071 36.2515 21.975 35.9264 21.9993L35.9264 26.7977C36.3242 26.3416 36.562 25.8516 36.8143 25.3664C37.0423 24.9201 37.1102 24.2554 37.8089 24.3281C38.4833 24.4009 38.459 25.0656 38.6095 25.5459C38.8812 26.4096 39.1189 27.2878 39.3809 28.1562C39.4634 28.4231 39.5847 28.6802 39.6866 28.9422C39.769 28.9277 39.8564 28.9083 39.9389 28.8937L39.9389 19.1076L39.934 19.1124ZM28.8088 19.9712C27.7559 22.0429 26.4944 23.9788 25.6163 26.1088C26.5624 25.5168 27.426 24.8618 28.3187 24.2602C29.3376 23.5713 29.8034 23.8041 29.9635 25.0219C30.1042 26.0942 30.2546 27.1616 30.405 28.2339C30.4632 28.2339 30.5263 28.2339 30.5845 28.2339C31.2201 26.3708 31.8509 24.5077 32.4913 22.6251C31.0697 22.5281 30.8999 22.3971 30.4535 21.0968C30.1915 20.3254 29.5705 20.0974 28.8088 19.9615L28.8088 19.9712ZM33.845 8.00661C31.8848 8.03087 30.4147 9.20501 30.0266 10.8401C29.9926 10.9759 29.9684 11.1118 29.9295 11.2428C29.5171 12.6401 29.7985 13.921 30.57 15.1291C31.2492 16.1965 32.3118 16.6914 33.418 17.1571C35.6207 18.0838 35.7323 18.0693 37.5809 16.6671C38.8035 15.7404 39.4828 14.5178 39.4828 12.9991C39.4828 11.5824 38.6289 10.4422 37.7119 9.55434C36.6299 8.50634 35.087 8.17642 33.8498 8.00175L33.845 8.00661ZM33.2967 2.59682C33.3501 3.12567 33.384 3.48956 33.418 3.85345C34.0051 3.76611 34.5 3.68848 35.0967 3.60115C34.5242 3.28093 34.0245 2.99953 33.2967 2.59682Z" fill="#FCFCEE"></path>
<path d="M34.0245 8.75379C35.5528 8.73439 36.8143 9.26324 37.7119 10.3597C38.1679 10.9177 38.4978 11.7474 38.5173 12.4654C38.5997 15.0612 36.8725 17.0795 34.1409 16.8418C33.1754 16.7545 32.4331 16.3663 31.846 15.5803C31.191 14.707 30.5748 13.8239 30.3759 12.7274C30.143 11.4466 30.5506 10.418 31.6083 9.62712C32.3603 9.06431 33.1366 8.65191 34.0245 8.75379Z" fill="#FCFCEE"></path>
</g>
</g>
<defs>
<clipPath id="clip0_1749_13149">
<rect width="74" height="74" fill="white" transform="translate(0.836884 0.619019)"></rect>
</clipPath>
<clipPath id="clip1_1749_13149">
<rect width="67.974" height="74" fill="white" transform="translate(3.39987 0.879272)"></rect>
</clipPath>
</defs>
</svg>