<svg width="80" height="80" viewBox="0 0 80 80" fill="none" xmlns="http://www.w3.org/2000/svg">
<path d="M71.2005 70.4H70.0643V16.7063C70.0643 16.2639 69.7063 15.9063 69.2643 15.9063H68.5032L68.5027 8.8C68.5027 8.35759 68.1447 8 67.7027 8H41.5621C41.1202 8 40.7621 8.35759 40.7621 8.8V15.9063H40.001C39.559 15.9063 39.201 16.2639 39.201 16.7063V27.1032H26.097V18.3063C26.097 17.8639 25.7389 17.5063 25.297 17.5063C24.855 17.5063 24.497 17.8639 24.497 18.3063V27.1032H10.7381C10.2961 27.1032 9.93811 27.4608 9.93811 27.9032V70.4003H8.80195C8.35999 70.4003 8.00195 70.7579 8.00195 71.2003C8.00195 71.6428 8.35999 72.0003 8.80195 72.0003H71.202C71.6439 72.0003 72.002 71.6428 72.002 71.2003C72.002 70.7579 71.6439 70.4003 71.202 70.4003L71.2005 70.4ZM59.7582 70.4H49.5078V53.3863H59.7582V70.4ZM60.5582 51.7863H48.7079C48.2659 51.7863 47.9079 52.1439 47.9079 52.5863V70.4H40.8012V46.5166C41.5757 47.1652 42.5721 47.5576 43.6588 47.5576C45.1726 47.5576 46.5105 46.7974 47.3168 45.6407C48.1231 46.7974 49.4611 47.5576 50.9749 47.5576C52.4887 47.5576 53.8267 46.7974 54.6329 45.6407C55.4392 46.7974 56.7772 47.5576 58.291 47.5576C59.8048 47.5576 61.1428 46.7974 61.9486 45.6407C62.7548 46.7974 64.0928 47.5576 65.6062 47.5576C66.6932 47.5576 67.6896 47.1652 68.4643 46.5166L68.4651 70.4H61.3584V52.5863C61.3584 52.1443 60.9999 51.7863 60.5584 51.7863H60.5582ZM68.4649 17.5063V36H40.8009V17.5063H68.4649ZM40.8009 37.6H46.517V43.1C46.517 44.6759 45.2349 45.9576 43.659 45.9576C42.0831 45.9576 40.8009 44.6759 40.8009 43.1V37.6ZM48.117 37.6H53.8327V43.1C53.8327 44.6759 52.5505 45.9576 50.9751 45.9576C49.3992 45.9576 48.117 44.6759 48.117 43.1V37.6ZM55.4327 37.6H61.1488V43.1C61.1488 44.6759 59.8667 45.9576 58.2912 45.9576C56.7149 45.9576 55.4332 44.6754 55.4332 43.1L55.4327 37.6ZM62.7488 37.6H68.4649V43.1C68.4649 44.6759 67.1828 45.9576 65.6069 45.9576C64.031 45.9576 62.7493 44.6754 62.7493 43.1L62.7488 37.6ZM42.3625 9.6H66.9043V15.9063H42.3625V9.6ZM11.5374 28.7029H39.2014V70.4H11.5374V28.7029Z" fill="#231F20"/>
<path d="M45.943 31.6343H52.4194C52.8613 31.6343 53.2194 31.2767 53.2194 30.8343V26.0758C53.2194 23.8495 51.4077 22.0374 49.181 22.0374C46.9542 22.0374 45.1426 23.849 45.1426 26.0758V30.8343C45.143 31.2762 45.5011 31.6343 45.943 31.6343ZM46.743 26.0758C46.743 24.7311 47.8368 23.6374 49.1814 23.6374C50.5261 23.6374 51.6198 24.7311 51.6198 26.0758V30.0343H46.7435L46.743 26.0758Z" fill="#231F20"/>
<path d="M56.843 31.6343H63.3193C63.7613 31.6343 64.1193 31.2767 64.1193 30.8343V26.0758C64.1193 23.8495 62.3081 22.0374 60.0814 22.0374C57.8551 22.0374 56.043 23.849 56.043 26.0758V30.8343C56.043 31.2762 56.401 31.6343 56.843 31.6343ZM57.643 26.0758C57.643 24.7311 58.7367 23.6374 60.0814 23.6374C61.4256 23.6374 62.5193 24.7311 62.5193 26.0758V30.0343H57.643V26.0758Z" fill="#231F20"/>
<path d="M23.0849 35.3772H16.6086C16.1666 35.3772 15.8086 35.7348 15.8086 36.1772V45.7741C15.8086 46.2165 16.1666 46.5741 16.6086 46.5741H23.0849C23.5269 46.5741 23.8849 46.2165 23.8849 45.7741V36.1772C23.8849 35.7352 23.5269 35.3772 23.0849 35.3772ZM22.2849 44.9741H17.4086V36.9772H22.2849V44.9741Z" fill="#231F20"/>
<path d="M33.9834 35.3772H27.507C27.0651 35.3772 26.707 35.7348 26.707 36.1772V45.7741C26.707 46.2165 27.0651 46.5741 27.507 46.5741H33.9834C34.4253 46.5741 34.7834 46.2165 34.7834 45.7741V36.1772C34.7834 35.7352 34.4253 35.3772 33.9834 35.3772ZM33.1834 44.9741H28.307V36.9772H33.1834V44.9741Z" fill="#231F20"/>
<path d="M23.0849 53.249H16.6086C16.1666 53.249 15.8086 53.6066 15.8086 54.049V63.6459C15.8086 64.0884 16.1666 64.4459 16.6086 64.4459H23.0849C23.5269 64.4459 23.8849 64.0884 23.8849 63.6459V54.049C23.8849 53.6066 23.5269 53.249 23.0849 53.249ZM22.2849 62.8455H17.4086V54.8486H22.2849V62.8455Z" fill="#231F20"/>
<path d="M33.9834 53.249H27.507C27.0651 53.249 26.707 53.6066 26.707 54.049V63.6459C26.707 64.0884 27.0651 64.4459 27.507 64.4459H33.9834C34.4253 64.4459 34.7834 64.0884 34.7834 63.6459V54.049C34.7834 53.6066 34.4253 53.249 33.9834 53.249ZM33.1834 62.8455H28.307V54.8486H33.1834V62.8455Z" fill="#231F20"/>
</svg>
