<svg width="100%" height="100%" viewBox="0 0 32 32" fill="none" xmlns="http://www.w3.org/2000/svg">
<path d="M12.0151 23.7051V22.8626C12.0151 22.6301 12.2038 22.4413 12.4363 22.4413C12.6688 22.4413 12.8576 22.6301 12.8576 22.8626V23.7051C12.8576 23.8164 12.8126 23.9239 12.7338 24.0026C12.6551 24.0814 12.5476 24.1263 12.4363 24.1263C12.2038 24.1251 12.0151 23.9364 12.0151 23.7051ZM30.6085 28.9952C30.6085 29.7676 29.9797 30.4001 29.2035 30.4001H2.79616C2.01993 30.4001 1.39117 29.7676 1.39117 28.9952C1.39117 28.2189 2.01993 27.5864 2.79616 27.5864H3.4949V14.4687C3.1474 14.3437 2.83113 14.1425 2.56242 13.875C2.07744 13.39 1.81243 12.7475 1.81243 12.0612V9.33372C1.81243 9.29872 1.82243 9.26372 1.83493 9.23497C1.83868 9.23122 1.83493 9.22872 1.83868 9.22872L3.49491 5.91123V2.96371C3.49491 2.60621 3.64241 2.25496 3.89366 2.00248C4.14991 1.74748 4.49741 1.59998 4.85865 1.59998H27.1412C27.5024 1.59998 27.8499 1.74748 28.1049 2.00248C28.3574 2.25497 28.5037 2.60622 28.5037 2.96371L28.5049 5.91123L30.1624 9.22872C30.1662 9.22872 30.1624 9.23247 30.1662 9.23497C30.1787 9.26372 30.1887 9.29872 30.1887 9.33372V12.0612C30.1887 12.7475 29.9237 13.3899 29.4387 13.875C29.1699 14.1437 28.8549 14.345 28.5062 14.4687V27.5864H29.2049C29.9799 27.5864 30.6087 28.2189 30.6087 28.9952H30.6085ZM29.7084 9.5739H25.5384V12.0614C25.5384 12.6164 25.7559 13.1439 26.1484 13.5364C26.5447 13.9289 27.0684 14.1464 27.6235 14.1464C27.7609 14.1464 27.8947 14.1339 28.026 14.1052C28.1922 14.0764 28.3522 14.0252 28.5047 13.9489C28.7222 13.8527 28.9235 13.7127 29.0985 13.5364C29.491 13.1439 29.7085 12.6202 29.7085 12.0614L29.7084 9.5739ZM3.97357 5.72659H28.0248L28.026 2.96407C28.026 2.73032 27.9298 2.5041 27.7673 2.34158C27.601 2.17533 27.3748 2.08033 27.141 2.08033L4.85852 2.07908C4.62602 2.07908 4.39854 2.17533 4.23228 2.34033C4.06978 2.50283 3.97353 2.73033 3.97353 2.96282L3.97357 5.72659ZM2.43858 9.09518H29.5627L28.5052 6.98391L28.1152 6.20517H3.88387L3.49388 6.98391L2.43858 9.09518ZM20.8884 9.57395V12.0614C20.8884 12.6165 21.1059 13.144 21.4984 13.5365C21.8947 13.929 22.4184 14.1465 22.9734 14.1465C23.5285 14.1465 24.0522 13.929 24.4485 13.5365C24.841 13.144 25.0585 12.6202 25.0585 12.0614V9.57395H20.8884ZM16.2397 9.57395V12.0614C16.2397 12.6202 16.4572 13.144 16.8497 13.5365C17.246 13.929 17.7697 14.1465 18.3248 14.1465C18.8835 14.1465 19.4073 13.929 19.7998 13.5365C20.1923 13.1439 20.4098 12.6202 20.4098 12.0614V9.57395H16.2397ZM11.5897 9.57395V12.0614C11.5897 12.6165 11.8072 13.144 12.1997 13.5365C12.5922 13.929 13.1159 14.1465 13.6747 14.1465C14.2309 14.1465 14.7535 13.929 15.1497 13.5365C15.5422 13.144 15.7597 12.6202 15.7597 12.0614V9.57395H11.5897ZM6.94098 9.57395V12.0614C6.94098 12.6165 7.15848 13.144 7.55099 13.5365C7.9435 13.929 8.46724 14.1465 9.02601 14.1465C9.58226 14.1465 10.1048 13.929 10.501 13.5365C10.8935 13.144 11.111 12.6202 11.111 12.0614V9.57395H6.94098ZM3.49453 13.9489C3.64829 14.0252 3.80703 14.0764 3.9733 14.1052C4.10455 14.1339 4.2383 14.1464 4.3758 14.1464C4.93205 14.1464 5.45457 13.9289 5.85082 13.5364C6.24332 13.1439 6.46083 12.6202 6.46083 12.0614V9.57392H2.29082V12.0614C2.29082 12.6202 2.50832 13.1439 2.90083 13.5364C3.07708 13.7127 3.27705 13.8527 3.49453 13.9489ZM3.9733 14.5939V27.5873H6.3008L6.30205 20.6799C6.30205 18.5374 8.04582 16.7934 10.1921 16.7934C12.3346 16.7934 14.0785 18.5372 14.0785 20.6799V27.5873H28.0273L28.0261 14.5939C27.8948 14.6164 27.7611 14.6264 27.6236 14.6264C26.9373 14.6264 26.2948 14.3614 25.8098 13.8764C25.5923 13.6589 25.4235 13.4102 25.2985 13.1414C25.1735 13.4102 25.0048 13.6589 24.7873 13.8764C24.3023 14.3614 23.6598 14.6264 22.9735 14.6264C22.2897 14.6264 21.6448 14.3614 21.1597 13.8764C20.9422 13.6589 20.7735 13.4102 20.6485 13.1414C20.5235 13.4102 20.3547 13.6589 20.1372 13.8764C19.6522 14.3614 19.0097 14.6264 18.3234 14.6264C17.6397 14.6264 16.9947 14.3614 16.5097 13.8764C16.2934 13.6577 16.1247 13.4089 15.9997 13.1402C15.8747 13.409 15.7059 13.6577 15.4884 13.8752C15.0034 14.3602 14.3584 14.6252 13.6747 14.6252C12.9884 14.6252 12.3459 14.3602 11.8609 13.8752C11.6434 13.6577 11.4747 13.409 11.3496 13.1402C11.2246 13.409 11.0521 13.6577 10.8384 13.8752C10.3534 14.3602 9.71087 14.6252 9.02461 14.6252C8.33834 14.6252 7.69587 14.3602 7.21085 13.8752C6.99335 13.6577 6.8246 13.409 6.69958 13.1402C6.57458 13.409 6.40208 13.6577 6.18831 13.8752C5.70333 14.3602 5.06081 14.6252 4.37455 14.6252C4.2383 14.6252 4.10455 14.6164 3.9733 14.5939ZM10.1909 17.2727C8.30967 17.2727 6.78089 18.799 6.78089 20.68V27.5874H13.5987V20.68C13.5987 18.7988 12.0687 17.2727 10.1914 17.2727H10.1909ZM30.1296 28.9952C30.1296 28.4815 29.7146 28.0665 29.2034 28.0665H2.79607C2.2848 28.0665 1.8698 28.4815 1.8698 28.9952C1.8698 29.5027 2.2848 29.9215 2.79607 29.9215H29.2048C29.7147 29.9215 30.1297 29.5027 30.1297 28.9952H30.1296ZM26.1361 17.2613V22.6487C26.1361 23.1525 25.7261 23.5624 25.2224 23.5624L16.5572 23.5612C16.0534 23.5612 15.6435 23.1512 15.6435 22.6474V17.26C15.6435 16.7562 16.0535 16.3463 16.5572 16.3463H25.2224C25.7261 16.3463 26.1361 16.7562 26.1361 17.2613ZM25.2224 16.8263H21.1299V19.715H25.6572V17.2612C25.6572 17.0212 25.4622 16.8262 25.2222 16.8262L25.2224 16.8263ZM16.122 17.2613V19.715H20.6493L20.6506 16.8263H16.5568C16.3168 16.8263 16.1218 17.0213 16.1218 17.2613L16.122 17.2613ZM16.557 23.0825H20.6495V20.1938H16.1222V22.6475C16.1222 22.8875 16.3172 23.0825 16.5572 23.0825L16.557 23.0825ZM25.6574 22.6475V20.1938H21.13V23.0825H25.2225C25.4625 23.0825 25.6575 22.8875 25.6575 22.6475L25.6574 22.6475Z" fill="#231F20"></path>
</svg>