<svg width="100%" height="100%" viewBox="0 0 75 75" fill="none" xmlns="http://www.w3.org/2000/svg">
<g clip-path="url(#clip0_1749_13040)">
<g clip-path="url(#clip1_1749_13040)">
<path d="M36.0644 64.15C35.3256 64.1605 34.9461 63.4936 35.1561 62.8442C36.1734 59.6704 37.1867 56.4931 38.2202 53.3227C38.9711 51.0218 39.7139 48.7209 40.5254 46.4374C41.1552 44.6672 41.902 42.8272 42.4228 40.9906C42.9154 39.2658 43.86 37.6946 44.296 35.9418C44.4373 35.3797 45.16 34.1262 44.6271 33.6304C43.9933 33.0404 42.1362 33.2987 41.3409 33.3441C39.718 33.4349 38.0951 33.5466 36.4721 33.6374C35.3983 33.6968 34.3244 33.7561 33.2505 33.7841C32.8186 33.7945 32.3745 33.7491 31.9506 33.6688C30.7274 33.4384 30.2752 32.171 31.127 31.3924C33.2828 29.4127 35.4386 27.4329 37.6187 25.4707C38.2848 24.8736 39.0317 24.3464 39.7301 23.7773C40.1944 23.4002 40.3801 22.9708 41.0704 22.8939C41.3409 22.8625 41.6437 22.9184 41.8294 23.093C42.0918 23.3374 42.0514 23.7354 41.8617 24.0252C41.022 25.3031 39.5848 26.5007 38.4544 27.604C37.1181 28.8994 35.7414 30.1633 34.3809 31.4412C34.3042 31.5146 34.2437 31.5984 34.1387 31.7171C34.607 31.9196 35.0713 31.8393 35.5113 31.8183C38.5916 31.6612 41.6639 31.4762 44.7563 31.5041C45.4789 31.5111 46.028 31.7834 46.6012 32.0173C47.4127 32.3525 47.227 33.4873 47.0897 34.0983C46.8475 35.1632 46.5851 36.1967 46.1693 37.2302C45.2084 39.6254 44.4252 42.0625 43.4725 44.4647C42.6731 46.4828 42.0555 48.5463 41.3772 50.5958C40.6102 52.9177 39.8028 55.2256 38.9913 57.537C38.8177 58.0398 38.5513 58.5147 38.3655 59.014C38.2929 59.206 38.3292 59.426 38.3131 59.6808C38.8984 59.6424 39.1003 59.3073 39.3869 59.0768C41.353 57.4882 42.8225 55.5259 44.6069 53.8011C45.5758 52.8619 46.5366 51.9157 47.4732 50.9555C48.0344 50.3794 48.5471 49.7649 49.084 49.1713C50.5011 47.6036 51.8898 46.0219 53.3432 44.4787C54.5543 43.1903 55.8623 41.9717 57.0815 40.6868C58.9547 38.7141 60.719 36.7274 62.6043 34.7722C63.6014 33.7387 64.5946 32.7715 65.5433 31.7031C66.492 30.6347 67.5093 29.5663 68.559 28.5468C69.0717 28.0475 69.5198 27.4783 69.972 26.9371C70.4403 26.375 72.1722 25.0692 70.7269 24.6537C69.6975 24.3569 68.3087 24.5454 67.2308 24.5489C65.9753 24.5559 64.7197 24.5769 63.4682 24.6153C62.4307 24.6467 61.373 24.7933 60.3516 24.7759C59.2696 24.7584 58.1877 24.7165 57.1058 24.727C55.826 24.7375 54.9338 23.6411 55.2971 22.6076C56.3387 19.6503 57.2511 16.658 58.2604 13.6902C58.9386 11.6966 59.6088 9.70289 60.1416 7.66382C60.4606 6.44528 60.7391 5.34893 60.828 4.09896C60.8481 3.78472 59.6128 5.21974 59.6007 5.23371C59.0678 5.91805 58.3815 6.52907 57.7275 7.15755C56.266 8.56813 54.8531 10.0136 53.4078 11.4417C52.2774 12.559 51.256 13.7566 50.1458 14.8843C49.5443 15.4954 48.862 16.054 48.1918 16.6127C47.7558 16.9758 47.4086 17.0177 47.1099 16.8047C46.7344 16.5358 46.6416 16.047 46.908 15.663C47.013 15.5128 47.1341 15.3697 47.2633 15.237C49.3384 13.1281 51.4013 11.0122 53.5006 8.92427C54.3969 8.03393 55.3859 7.20992 56.3145 6.34053C56.7868 5.8971 57.2349 5.43273 57.6709 4.96137C58.7246 3.82313 59.7379 2.65346 60.828 1.53966C61.272 1.08226 61.8574 0.726126 62.4065 0.349039C62.576 0.233818 62.8263 0.174462 63.0484 0.157004C63.7064 0.0976482 63.9769 0.32809 63.884 0.907686C63.771 1.6025 63.6257 2.29732 63.448 2.98166C62.8465 5.28608 62.2853 7.60098 61.591 9.88794C60.8239 12.4193 59.8994 14.9123 59.1041 17.4367C58.7933 18.4213 58.5308 19.4129 58.2725 20.408C58.1756 20.7816 57.356 22.6984 57.8486 22.9498C57.9132 22.9812 57.9899 22.9917 58.0666 23.0022C59.2252 23.1349 60.396 23.058 61.5667 23.058C65.0629 23.0301 68.563 23.0266 72.0592 22.9812C73.6134 22.9638 74.1584 23.7598 74.1665 24.8597C74.1665 25.0552 74.005 25.2856 73.8395 25.4393C71.8533 27.3212 69.9478 29.266 68.1351 31.2736C67.2631 32.2408 66.4436 33.1975 65.4908 34.1018C63.3875 36.0955 61.6556 38.3266 59.7178 40.4075C58.8054 41.3852 57.8486 42.3349 56.9443 43.316C54.6593 45.795 52.4025 48.2949 50.1175 50.7739C49.2819 51.6782 48.3977 52.5441 47.5298 53.424C44.5625 56.4302 41.6073 59.4469 38.6118 62.4287C38.0668 62.9699 37.2836 63.8498 36.452 64.0907C36.3147 64.1291 36.1896 64.15 36.0725 64.15H36.0644Z" fill="#0f332b"></path>
<path d="M42.0274 18.9032C42.4876 19.4408 42.0839 20.3871 41.0907 20.6175C39.8837 20.8968 38.2486 20.6769 37.0012 20.7013C35.4065 20.7327 33.8119 20.7607 32.2172 20.7781C30.7679 20.7921 29.3145 20.7222 27.8652 20.7257C26.4401 20.7292 25.015 20.7816 23.5899 20.813C22.7462 20.8305 21.9024 20.8724 21.0587 20.8584C20.2028 20.8444 19.8435 20.3836 19.9767 19.6678C20.0494 19.2698 20.3441 19.172 20.6913 19.1336C21.1798 19.0812 21.6723 19.0707 22.1648 19.0533C24.4902 18.973 26.8115 18.8927 29.1369 18.8228C31.87 18.7425 34.5991 18.6692 37.3322 18.5994C38.5514 18.568 39.7747 18.5191 40.9939 18.5261C41.4985 18.5261 41.8376 18.6797 42.0274 18.9032Z" fill="#0f332b"></path>
<path d="M33.1455 50.8786C33.6219 52.1077 27.7278 51.6887 27.1545 51.6992C26.3996 51.7131 25.6446 51.7515 24.8897 51.755C23.1295 51.7655 21.3734 51.783 19.6132 51.8074C18.0307 51.8283 16.4481 51.9052 14.8656 51.8807C13.6746 51.8807 12.516 51.7864 11.3331 51.7166C11.103 51.7026 10.8648 51.6887 10.6508 51.6084C10.0978 51.3954 9.87975 50.8542 10.3925 50.5609C10.7275 50.3689 11.2564 50.3374 11.652 50.306C12.7824 50.2222 13.9128 50.1594 15.0472 50.1384C17.2031 50.0965 19.3589 50.0686 21.5106 50.0686C24.4779 50.0721 27.4452 50.107 30.4124 50.1384C31.3289 50.1489 32.7782 49.9359 33.1415 50.8751L33.1455 50.8786Z" fill="#0f332b"></path>
<path d="M16.505 28.7701C18.4267 28.7701 20.3443 28.7736 22.2659 28.7701C23.0411 28.7701 23.2429 29.0111 23.029 29.65C22.8634 30.1528 22.5041 30.2994 21.9349 30.4426C19.9931 30.9209 18.0108 30.6521 16.0569 30.7464C13.8526 30.8546 11.6363 30.7743 9.42394 30.7708C8.79819 30.7708 8.15225 30.2017 8.1361 29.671C8.12399 29.2729 8.4187 28.9622 8.9193 28.9203C9.6702 28.8609 10.4251 28.8155 11.1801 28.8085C12.9564 28.7946 14.7287 28.8051 16.505 28.8051C16.505 28.7946 16.505 28.7806 16.505 28.7701Z" fill="#0f332b"></path>
<path d="M7.24769 41.0953C7.24769 40.7741 7.46166 40.4459 7.91381 40.2993C8.24889 40.1875 8.61627 40.1736 8.97557 40.1596C11.6723 40.0514 14.4297 39.8593 17.1265 40.0304C17.8128 40.0758 19.363 39.9815 19.6537 40.631C19.8434 41.0604 19.3953 41.8774 18.7978 41.8146C18.7696 41.8146 18.7413 41.8146 18.709 41.8146C15.2169 41.8425 11.7248 41.8635 8.23678 41.9019C7.59488 41.9089 7.24365 41.5073 7.24365 41.0988L7.24769 41.0953Z" fill="#0f332b"></path>
<path d="M36.5289 10.4989C36.5491 10.471 36.5733 10.4431 36.6016 10.4116C37.0497 9.9333 38.0993 10.0171 38.7291 9.98917C39.6132 9.94727 42.5442 9.49686 42.637 10.6595C42.6895 11.3055 41.8175 11.6686 41.1837 11.7C40.1138 11.7524 39.0359 11.714 37.9701 11.8152C37.2273 11.8851 36.0323 11.1903 36.5289 10.4989Z" fill="#0f332b"></path>
<path d="M5.69741 29.0356C5.78622 29.1927 5.81448 29.3743 5.81852 29.5488C5.82256 29.7094 5.81448 29.8735 5.7297 30.0167C5.58033 30.2716 5.06358 30.3414 4.76484 30.3693C3.81612 30.4601 2.85933 30.5125 1.91061 30.6033C1.12741 30.6766 0.953815 30.6242 0.622773 30.1075C0.243286 29.5139 0.449178 29.0356 1.23238 28.9553C2.03979 28.8715 5.1201 28.3128 5.63281 28.9483C5.65703 28.9762 5.67722 29.0076 5.69337 29.0391L5.69741 29.0356Z" fill="#0f332b"></path>
</g>
</g>
<defs>
<clipPath id="clip0_1749_13040">
<rect width="74" height="74" fill="white" transform="translate(0.5 0.499756)"></rect>
</clipPath>
<clipPath id="clip1_1749_13040">
<rect width="73.7174" height="64" fill="white" transform="translate(0.441406 0.150024)"></rect>
</clipPath>
</defs>
</svg>