<svg width="516" height="280" viewBox="0 0 516 280" fill="none" xmlns="http://www.w3.org/2000/svg">
<path d="M47.5373 224.75C47.3277 224.633 47.1676 224.44 47.0952 224.209C47.0228 223.978 47.0434 223.729 47.1532 223.516C47.263 223.302 47.4535 223.14 47.6832 223.065C47.9131 222.989 48.1629 223.007 48.3806 223.109C48.3806 223.109 48.3806 223.109 48.3806 223.109C49.2878 223.536 50.1209 223.95 50.9879 224.412C58.0816 228.057 64.7281 234.267 67.0991 242.42C69.5691 250.455 69.1727 258.574 69.9422 266.307C70.0561 267.573 70.1908 268.827 70.353 270.069C70.4748 271.001 70.6086 271.905 70.7641 272.831C70.8453 273.313 70.7314 273.809 70.4475 274.207C70.1636 274.606 69.7329 274.875 69.2503 274.957C68.7677 275.038 68.2726 274.924 67.874 274.64C67.4753 274.356 67.2058 273.925 67.1247 273.443C67.1247 273.443 67.1247 273.443 67.1247 273.443C66.961 272.469 66.8208 271.52 66.6935 270.547C66.5241 269.25 66.3842 267.946 66.2665 266.637C65.6193 250.847 64.9976 233.843 49.9637 226.186C49.1612 225.686 48.3871 225.226 47.5373 224.75Z" fill="#1E1E1E"/>
<path d="M102.195 257.624C102.431 257.662 102.676 257.613 102.877 257.48C103.078 257.347 103.218 257.142 103.268 256.908C103.317 256.675 103.272 256.43 103.143 256.227C103.013 256.024 102.81 255.88 102.578 255.819C102.578 255.819 102.578 255.819 102.578 255.819C101.868 255.632 101.158 255.456 100.44 255.29C94.4966 253.949 88.2206 253.112 81.8853 254.548C75.5177 255.768 69.7259 261.212 68.179 267.601C67.8883 268.61 67.6616 269.645 67.4917 270.671C67.3624 271.455 67.2714 272.175 67.197 272.965C67.1514 273.452 67.3013 273.938 67.6137 274.315C67.926 274.691 68.3753 274.929 68.8625 274.974C69.3498 275.02 69.8352 274.87 70.212 274.557C70.5887 274.245 70.826 273.796 70.8715 273.308C70.8715 273.308 70.8715 273.308 70.8715 273.308C70.9381 272.601 71.0191 271.963 71.1326 271.274C71.2817 270.374 71.4786 269.479 71.7256 268.622C74.338 256.908 88.7478 255.478 100.068 257.304C100.779 257.403 101.485 257.509 102.195 257.624Z" fill="#1E1E1E"/>
<path d="M0.998598 261.836C0.762449 261.846 0.526151 261.774 0.340255 261.624C0.154372 261.474 0.0343338 261.26 0.00625432 261.026C-0.0218252 260.792 0.0440738 260.555 0.189161 260.365C0.334235 260.175 0.546829 260.049 0.778743 260.004C0.778743 260.004 0.778743 260.004 0.778743 260.004C1.23888 259.913 1.70387 259.826 2.16893 259.744C6.02467 259.095 10.147 258.589 14.349 259.93C18.65 261.173 21.8442 265.433 22.7347 269.528C22.9047 270.195 23.0395 270.859 23.1495 271.539C23.2297 272.036 23.293 272.516 23.3473 273.027C23.3988 273.514 23.2548 274.001 22.9471 274.382C22.6393 274.762 22.193 275.005 21.7064 275.056C21.2197 275.108 20.7325 274.964 20.3519 274.656C19.9714 274.349 19.7287 273.902 19.6772 273.416C19.6772 273.416 19.6772 273.416 19.6772 273.416C19.6297 272.968 19.5748 272.553 19.5062 272.128C19.4122 271.546 19.2984 270.988 19.1586 270.44C17.9069 263.07 9.98761 261.232 2.38333 261.781C1.92341 261.797 1.46008 261.815 0.998598 261.836Z" fill="#1E1E1E"/>
<path d="M142.205 257.44C142.441 257.451 142.677 257.379 142.863 257.229C143.049 257.078 143.169 256.864 143.197 256.63C143.225 256.396 143.16 256.159 143.014 255.97C142.869 255.78 142.657 255.654 142.425 255.608C142.425 255.608 142.425 255.608 142.425 255.608C141.965 255.518 141.5 255.431 141.035 255.349C137.179 254.699 133.057 254.194 128.855 255.534C124.554 256.777 121.359 261.037 120.469 265.133C120.299 265.8 120.164 266.464 120.054 267.143C119.974 267.641 119.911 268.12 119.856 268.632C119.805 269.119 119.949 269.606 120.257 269.986C120.564 270.367 121.011 270.61 121.497 270.661C121.984 270.713 122.471 270.569 122.852 270.261C123.232 269.953 123.475 269.507 123.526 269.02C123.526 269.02 123.526 269.02 123.526 269.02C123.574 268.573 123.629 268.158 123.697 267.732C123.791 267.151 123.905 266.593 124.045 266.044C125.297 258.675 133.216 256.837 140.82 257.386C141.28 257.401 141.744 257.42 142.205 257.44Z" fill="#1E1E1E"/>
<path d="M30.6084 255.594C30.8067 255.469 30.9618 255.28 31.0328 255.053C31.1039 254.827 31.0861 254.584 30.9818 254.376C30.8776 254.167 30.6942 254.007 30.4704 253.928C30.2467 253.849 30.0019 253.86 29.7832 253.944C29.7832 253.944 29.7832 253.944 29.7832 253.944C29.4283 254.082 29.0874 254.225 28.74 254.384C22.2975 256.754 20.3821 264.907 20.4242 270.641C20.4102 271.139 20.4013 271.628 20.3961 272.127C20.3923 272.492 20.3906 272.85 20.3906 273.221C20.3906 273.711 20.585 274.18 20.9311 274.526C21.2771 274.872 21.7465 275.067 22.2359 275.067C22.7253 275.067 23.1946 274.872 23.5407 274.526C23.8867 274.18 24.0811 273.711 24.0811 273.221C24.0811 273.221 24.0811 273.221 24.0811 273.221C24.0811 272.862 24.0828 272.516 24.0864 272.165C24.0915 271.686 24.1 271.218 24.1133 270.745C24.2667 264.948 24.7813 259.285 29.7518 256.165C30.0321 255.968 30.3116 255.781 30.6084 255.594Z" fill="#1E1E1E"/>
<path d="M126.905 245.865C127.093 245.724 127.327 245.648 127.565 245.665C127.802 245.681 128.022 245.787 128.179 245.961C128.335 246.136 128.417 246.366 128.408 246.604C128.399 246.842 128.298 247.066 128.138 247.238C128.138 247.238 128.138 247.238 128.138 247.238C127.877 247.519 127.626 247.805 127.387 248.097C123.301 252.97 122.88 259.567 122.639 266.018C122.623 266.547 122.613 267.072 122.606 267.607C122.602 268 122.6 268.386 122.6 268.786C122.6 269.276 122.405 269.745 122.059 270.091C121.713 270.437 121.244 270.632 120.754 270.632C120.265 270.632 119.796 270.437 119.45 270.091C119.104 269.745 118.909 269.276 118.909 268.786C118.909 268.786 118.909 268.786 118.909 268.786C118.909 268.373 118.911 267.972 118.916 267.564C118.923 267.008 118.934 266.462 118.95 265.908C119.16 259.303 120.331 251.453 125.923 246.664C126.242 246.385 126.569 246.12 126.905 245.865Z" fill="#1E1E1E"/>
<path d="M109.781 260.703C109.55 260.71 109.316 260.644 109.13 260.502C108.943 260.359 108.818 260.154 108.782 259.927C108.746 259.7 108.802 259.466 108.936 259.273C109.069 259.08 109.271 258.946 109.493 258.881C109.493 258.881 109.493 258.881 109.493 258.881C109.776 258.801 110.05 258.729 110.339 258.664C112.636 258.103 115.658 258.173 117.95 259.949C120.212 261.676 121.351 264.109 122.148 266.381C122.277 266.757 122.394 267.126 122.508 267.506C122.591 267.783 122.669 268.055 122.747 268.338C122.876 268.81 122.813 269.314 122.571 269.74C122.328 270.165 121.927 270.476 121.455 270.606C120.983 270.735 120.479 270.672 120.054 270.429C119.629 270.187 119.317 269.786 119.188 269.314C119.188 269.314 119.188 269.314 119.188 269.314C119.117 269.057 119.047 268.813 118.973 268.566C118.872 268.228 118.768 267.903 118.656 267.577C117.327 263.45 115.147 260.54 110.565 260.7C110.304 260.696 110.049 260.696 109.781 260.703Z" fill="#1E1E1E"/>
<path d="M51.7321 262.168C51.4973 262.172 51.2635 262.096 51.0806 261.944C50.8978 261.792 50.7811 261.578 50.7559 261.345C50.7307 261.113 50.7988 260.878 50.9449 260.691C51.0909 260.503 51.3032 260.379 51.5335 260.333C51.5335 260.333 51.5335 260.333 51.5335 260.333C51.9333 260.255 52.3249 260.187 52.7301 260.13C59.3389 258.656 67.6055 263.165 69.5259 270.136C69.717 270.669 69.8886 271.212 70.0401 271.753C70.1547 272.162 70.2535 272.551 70.3488 272.964C70.4588 273.44 70.3749 273.941 70.1155 274.356C69.8562 274.771 69.4425 275.066 68.9657 275.176C68.4888 275.287 67.9878 275.203 67.5728 274.943C67.1577 274.684 66.8628 274.27 66.7527 273.793C66.7527 273.793 66.7527 273.793 66.7527 273.793C66.6699 273.435 66.5846 273.1 66.4865 272.749C66.3568 272.286 66.2112 271.826 66.0515 271.38C64.2701 265.701 59.1586 262.148 52.8522 262.175C52.4778 262.164 52.111 262.162 51.7321 262.168Z" fill="#1E1E1E"/>
<path d="M98.1491 244.567C98.3851 244.527 98.6007 244.401 98.7475 244.209C98.8943 244.018 98.9604 243.778 98.9311 243.541C98.9019 243.304 98.7794 243.087 98.5905 242.937C98.4016 242.787 98.1619 242.717 97.9232 242.736C97.9232 242.736 97.9232 242.736 97.9232 242.736C97.1345 242.798 96.3924 242.868 95.605 242.96C82.7047 243.399 69.576 253.993 68.039 267.454C67.8276 268.499 67.648 269.552 67.4963 270.598C67.3813 271.392 67.2871 272.141 67.1997 272.936C67.1463 273.422 67.2884 273.91 67.5947 274.292C67.901 274.673 68.3464 274.918 68.8328 274.971C69.3193 275.024 69.8071 274.882 70.1888 274.576C70.5705 274.27 70.8149 273.824 70.8682 273.338C70.8682 273.338 70.8682 273.338 70.8682 273.338C70.9512 272.583 71.0404 271.876 71.1486 271.128C71.2914 270.143 71.4597 269.157 71.6563 268.186C73.3607 255.772 83.3761 246.864 95.9276 244.983C96.6786 244.83 97.3896 244.696 98.1491 244.567Z" fill="#1E1E1E"/>
<path d="M70.54 241.564C72.1263 241.444 73.6917 241.304 75.1319 240.786C78.5758 239.549 80.7674 236.516 80.7882 233.444C80.7882 232.267 80.2873 231.609 79.2228 231.31C77.5948 230.851 75.9668 230.412 74.3388 230.053C72.2307 229.594 71.9176 228.656 73.2325 227.04C74.2761 225.744 75.1945 224.347 75.9459 222.891C76.3216 222.153 76.1755 221.195 76.4051 220.377C77.0313 218.123 76.3216 216.248 74.297 215.19C70.54 213.215 65.9899 214.013 64.8211 218.302C64.4454 219.679 64.1532 221.115 63.5479 222.392C62.9635 223.609 62.1495 224.806 61.1059 225.664C60.8554 225.883 59.3109 224.806 58.4342 224.188C56.2844 222.651 54.3224 220.856 52.0474 219.519C48.6661 217.504 45.2848 219.519 45.2013 223.37C45.1596 225.005 46.0571 225.923 47.1216 226.781C47.4973 227.08 49.3549 228.118 48.9374 229.594C48.52 231.05 45.5144 231.11 44.8674 231.27C41.2983 232.147 38.9815 234.741 37.0612 237.773C36.4142 238.811 35.8089 240.007 35.7045 241.185C35.308 245.952 40.1294 249.124 44.8465 247.349C46.5372 246.711 48.2069 246.232 49.334 247.289C50.4611 248.346 50.148 249.484 50.315 250.361C51.1081 254.371 54.6146 256.965 59.123 256.805C62.9217 256.685 65.322 254.271 65.8021 250.062C66.0525 247.907 66.2404 245.753 66.5535 243.618C66.8874 241.663 68.912 241.743 70.5192 241.623L70.54 241.564Z" fill="#F3E7CF" stroke="#1E1E1E" stroke-width="3.50685"/>
<path d="M277.85 190.18V181.963C277.85 175.823 272.872 170.845 266.732 170.845H219.362C213.222 170.845 208.245 175.823 208.245 181.963V190.18C208.245 196.32 213.222 201.297 219.362 201.297H266.732C272.872 201.297 277.85 196.32 277.85 190.18Z" fill="#F3E7CF"/>
<path d="M53.603 236.989C53.9539 235.341 54.9188 233.531 56.834 232.339C58.8954 231.059 60.913 231.383 62.8721 232.604C63.7785 233.163 64.0709 235.223 63.1498 235.959C61.337 237.415 59.3048 239.784 57.4042 239.931C55.489 240.093 53.6176 238.857 53.603 236.974V236.989Z" fill="#1E1E1E"/>
<path d="M266.391 228.077C265.677 228.174 265.028 228.546 264.587 229.117C264.146 229.687 263.949 230.408 264.039 231.123C264.129 231.837 264.499 232.486 265.068 232.929C265.637 233.373 266.358 233.572 267.073 233.489C267.073 233.489 267.073 233.489 267.073 233.489C272.348 232.876 277.623 232.261 282.898 231.642C284.426 231.463 285.955 231.284 287.483 231.104C292.416 230.558 296.921 227.162 298.804 222.531C301.048 217.166 303.289 211.799 305.528 206.431C306.358 204.432 308.038 202.817 310.051 202.066C313.633 200.704 317.214 199.34 320.794 197.975C324.215 196.679 327.096 194.015 328.657 190.694C340.185 166.44 351.654 142.159 363.062 117.849C379.867 82.0408 396.432 46.1204 412.758 10.0877C414.029 7.16768 417.111 5.10764 420.365 5.0774C424.41 5.01762 428.454 4.95508 432.498 4.88978C437.808 4.80402 443.119 4.71351 448.429 4.61823C448.976 4.60838 449.499 4.38832 449.886 3.99949C450.272 3.61073 450.489 3.08623 450.489 2.54009C450.489 1.99395 450.272 1.46945 449.886 1.08069C449.499 0.691864 448.975 0.471816 448.429 0.461966C448.429 0.461966 448.429 0.461966 448.429 0.461966C443.119 0.366747 437.808 0.27629 432.498 0.190595C428.454 0.125336 424.41 0.0628381 420.365 0.0031023C415.189 -0.112638 410.078 3.03278 407.844 7.78154C390.561 43.3652 373.518 79.0611 356.713 114.869C345.305 139.179 333.956 163.517 322.668 187.883C321.843 189.69 320.296 191.159 318.436 191.889C314.87 193.293 311.305 194.698 307.741 196.105C304.121 197.511 301.15 200.461 299.719 204.054C297.553 209.452 295.39 214.851 293.23 220.251C292.196 222.924 289.631 224.947 286.753 225.319C285.228 225.525 283.703 225.73 282.178 225.936C276.915 226.647 271.653 227.361 266.391 228.077Z" fill="#1E1E1E"/>
<ellipse cx="242.806" cy="245.202" rx="27.7937" ry="26.827" transform="rotate(-19.8544 242.806 245.202)" fill="#F3E7CF"/>
<path d="M270.517 242.42L274.005 242.057L270.517 242.42ZM269.607 251.467L272.995 252.371L269.607 251.467ZM267.906 255.667L270.968 257.376L267.906 255.667ZM262.928 263.253L260.321 260.908L262.928 263.253ZM259.481 266.184L261.375 269.135L259.481 266.184ZM233.574 270.902L234.497 267.519L233.574 270.902ZM229.384 269.132L227.602 272.152L229.384 269.132ZM222.378 263.417L219.679 265.656L222.378 263.417ZM219.637 259.828L222.508 257.814L219.637 259.828ZM217.221 255.976L214.159 257.687L217.221 255.976ZM216.635 238.287L213.311 237.172L216.635 238.287ZM218.353 234.142L215.215 232.578L218.353 234.142ZM223.499 226.824L220.966 224.398L223.499 226.824ZM243.819 218.603L244.005 215.101L243.819 218.603ZM252.665 220.113L254.01 216.874L252.665 220.113ZM260.54 224.433L262.967 221.902L260.54 224.433ZM266.472 231.185L263.353 232.789L266.472 231.185ZM268.11 234.526L264.916 235.974L268.11 234.526ZM269.614 237.95L266.259 238.972C266.637 240.214 266.894 241.483 267.029 242.782L270.517 242.42L274.005 242.057C273.824 240.312 273.478 238.601 272.968 236.928L269.614 237.95ZM270.517 242.42L267.029 242.782C267.16 244.042 267.148 245.297 266.994 246.553L270.475 246.98L273.956 247.406C274.174 245.626 274.191 243.842 274.005 242.057L270.517 242.42ZM270.475 246.98L266.994 246.553C266.828 247.911 266.569 249.247 266.218 250.562L269.607 251.467L272.995 252.371C273.43 250.74 273.75 249.085 273.956 247.406L270.475 246.98ZM269.607 251.467L266.218 250.562C265.9 251.756 265.442 252.886 264.844 253.958L267.906 255.667L270.968 257.376C271.851 255.794 272.527 254.124 272.995 252.371L269.607 251.467ZM267.906 255.667L264.844 253.958C264.121 255.253 263.38 256.534 262.619 257.801L265.626 259.606L268.632 261.411C269.431 260.08 270.21 258.735 270.968 257.376L267.906 255.667ZM265.626 259.606L262.619 257.801C261.956 258.906 261.19 259.941 260.321 260.908L262.928 263.253L265.536 265.598C266.704 264.299 267.737 262.903 268.632 261.411L265.626 259.606ZM262.928 263.253L260.321 260.908C259.512 261.808 258.602 262.581 257.587 263.232L259.481 266.184L261.375 269.135C262.919 268.144 264.308 266.963 265.536 265.598L262.928 263.253ZM259.481 266.184L257.587 263.232C256.377 264.009 255.147 264.738 253.897 265.419L255.575 268.498L257.254 271.577C258.651 270.815 260.025 270.001 261.375 269.135L259.481 266.184ZM255.575 268.498L253.897 265.419C252.633 266.108 251.339 266.765 250.014 267.391L251.512 270.562L253.01 273.733C254.455 273.05 255.87 272.332 257.254 271.577L255.575 268.498ZM251.512 270.562L250.014 267.391C248.949 267.894 247.839 268.226 246.673 268.389L247.158 271.862L247.644 275.335C249.512 275.074 251.304 274.539 253.01 273.733L251.512 270.562ZM247.158 271.862L246.673 268.389C245.4 268.567 244.132 268.609 242.863 268.515L242.606 272.013L242.348 275.51C244.116 275.64 245.882 275.581 247.644 275.335L247.158 271.862ZM242.606 272.013L242.863 268.515C241.347 268.403 239.832 268.291 238.32 268.179L238.059 271.676L237.798 275.173C239.313 275.286 240.83 275.398 242.348 275.51L242.606 272.013ZM238.059 271.676L238.32 268.179C237.032 268.083 235.759 267.863 234.497 267.519L233.574 270.902L232.651 274.286C234.342 274.747 236.059 275.043 237.798 275.173L238.059 271.676ZM233.574 270.902L234.497 267.519C233.322 267.199 232.214 266.731 231.166 266.112L229.384 269.132L227.602 272.152C229.188 273.089 230.874 273.801 232.651 274.286L233.574 270.902ZM229.384 269.132L231.166 266.112C229.98 265.412 228.851 264.642 227.778 263.802L225.616 266.563L223.454 269.324C224.77 270.355 226.153 271.298 227.602 272.152L229.384 269.132ZM225.616 266.563L227.778 263.802C226.779 263.02 225.88 262.146 225.077 261.178L222.378 263.417L219.679 265.656C220.804 267.011 222.063 268.235 223.454 269.324L225.616 266.563ZM222.378 263.417L225.077 261.178C224.173 260.088 223.317 258.967 222.508 257.814L219.637 259.828L216.766 261.842C217.684 263.151 218.655 264.422 219.679 265.656L222.378 263.417ZM219.637 259.828L222.508 257.814C221.714 256.683 220.972 255.501 220.282 254.266L217.221 255.976L214.159 257.687C214.964 259.126 215.832 260.512 216.766 261.842L219.637 259.828ZM217.221 255.976L220.282 254.266C219.777 253.362 219.485 252.41 219.395 251.378L215.901 251.682L212.408 251.985C212.583 254.006 213.17 255.917 214.159 257.687L217.221 255.976ZM215.901 251.682L219.395 251.378C219.256 249.786 219.074 248.206 218.847 246.639L215.376 247.141L211.906 247.643C212.113 249.077 212.281 250.525 212.408 251.985L215.901 251.682ZM215.376 247.141L218.847 246.639C218.686 245.527 218.713 244.428 218.927 243.325L215.485 242.655L212.043 241.986C211.678 243.861 211.632 245.752 211.906 247.643L215.376 247.141ZM215.485 242.655L218.927 243.325C219.188 241.985 219.532 240.678 219.96 239.402L216.635 238.287L213.311 237.172C212.784 238.742 212.361 240.348 212.043 241.986L215.485 242.655ZM216.635 238.287L219.96 239.402C220.386 238.132 220.897 236.901 221.492 235.707L218.353 234.142L215.215 232.578C214.474 234.063 213.839 235.595 213.311 237.172L216.635 238.287ZM218.353 234.142L221.492 235.707C222.081 234.524 222.756 233.391 223.517 232.308L220.647 230.293L217.777 228.277C216.815 229.647 215.961 231.081 215.215 232.578L218.353 234.142ZM220.647 230.293L223.517 232.308C224.276 231.227 225.114 230.208 226.031 229.249L223.499 226.824L220.966 224.398C219.804 225.611 218.74 226.905 217.777 228.277L220.647 230.293ZM223.499 226.824L226.031 229.249C226.886 228.357 227.829 227.575 228.863 226.901L226.948 223.963L225.032 221.026C223.549 221.993 222.192 223.118 220.966 224.398L223.499 226.824ZM226.948 223.963L228.863 226.901C230.069 226.114 231.298 225.36 232.547 224.637L230.792 221.601L229.037 218.565C227.679 219.35 226.344 220.17 225.032 221.026L226.948 223.963ZM230.792 221.601L232.547 224.637C233.654 223.997 234.816 223.468 236.038 223.049L234.899 219.732L233.761 216.415C232.114 216.98 230.538 217.697 229.037 218.565L230.792 221.601ZM234.899 219.732L236.038 223.049C237.231 222.639 238.451 222.365 239.701 222.223L239.307 218.738L238.913 215.254C237.155 215.453 235.436 215.84 233.761 216.415L234.899 219.732ZM239.307 218.738L239.701 222.223C241.014 222.074 242.324 222.035 243.632 222.105L243.819 218.603L244.005 215.101C242.307 215.011 240.609 215.062 238.913 215.254L239.307 218.738ZM243.819 218.603L243.632 222.105C245.062 222.181 246.492 222.302 247.92 222.468L248.323 218.984L248.727 215.5C247.155 215.318 245.581 215.185 244.005 215.101L243.819 218.603ZM248.323 218.984L247.92 222.468C249.096 222.604 250.226 222.898 251.32 223.352L252.665 220.113L254.01 216.874C252.314 216.171 250.55 215.712 248.727 215.5L248.323 218.984ZM252.665 220.113L251.32 223.352C252.68 223.917 254.033 224.504 255.38 225.115L256.828 221.92L258.275 218.726C256.86 218.085 255.439 217.468 254.01 216.874L252.665 220.113ZM256.828 221.92L255.38 225.115C256.399 225.576 257.305 226.189 258.112 226.963L260.54 224.433L262.967 221.902C261.587 220.578 260.018 219.516 258.275 218.726L256.828 221.92ZM260.54 224.433L258.112 226.963C259.2 228.008 260.284 229.054 261.364 230.103L263.807 227.587L266.251 225.072C265.161 224.013 264.066 222.957 262.967 221.902L260.54 224.433ZM263.807 227.587L261.364 230.103C262.176 230.891 262.836 231.783 263.353 232.789L266.472 231.185L269.591 229.581C268.725 227.898 267.609 226.391 266.251 225.072L263.807 227.587ZM266.472 231.185L263.353 232.789C264.032 234.108 264.549 235.165 264.916 235.974L268.11 234.526L271.303 233.077C270.87 232.122 270.296 230.953 269.591 229.581L266.472 231.185ZM268.11 234.526L264.916 235.974C265.126 236.437 265.336 236.875 265.532 237.224C265.617 237.376 265.779 237.655 266.002 237.934C266.098 238.054 266.352 238.362 266.753 238.648C267.02 238.839 268.321 239.717 270.02 239.104L268.829 235.806L267.638 232.507C269.316 231.901 270.592 232.772 270.83 232.942C271.201 233.207 271.42 233.479 271.476 233.55C271.62 233.729 271.682 233.852 271.647 233.79C271.604 233.712 271.494 233.496 271.303 233.077L268.11 234.526ZM268.829 235.806L270.02 239.104C268.621 239.609 267.468 239.086 266.975 238.775C266.498 238.474 266.217 238.132 266.12 238.01C265.902 237.735 265.79 237.501 265.782 237.484C265.735 237.39 265.736 237.375 265.791 237.526C265.887 237.789 266.041 238.256 266.259 238.972L269.614 237.95L272.968 236.928C272.742 236.185 272.543 235.566 272.377 235.114C272.302 234.908 272.194 234.628 272.063 234.363C272.012 234.26 271.863 233.964 271.614 233.649C271.501 233.507 271.206 233.151 270.716 232.843C270.21 232.523 269.046 231.999 267.638 232.507L268.829 235.806Z" fill="#1E1E1E"/>
<path d="M242.563 214.832L242.563 203.714" stroke="#1E1E1E" stroke-width="7.0137" stroke-linecap="round" stroke-linejoin="round"/>
<path d="M69.5171 271.268C69.0256 271.272 68.5542 271.473 68.2066 271.823C67.859 272.174 67.6638 272.646 67.6638 273.137C67.6638 273.629 67.859 274.1 68.2066 274.451C68.5542 274.802 69.0256 275.002 69.5171 275.006C69.5171 275.006 69.5171 275.006 69.5171 275.006C76.9212 275.07 84.3254 275.144 91.7295 275.221C114.706 275.461 137.682 275.73 160.659 275.785C204.32 275.89 247.98 275.995 291.641 275.994C331.213 275.994 370.785 275.781 410.357 275.605C437.423 275.484 464.488 275.233 491.553 275.004C498.957 274.942 506.361 274.881 513.766 274.825C514.21 274.822 514.636 274.641 514.951 274.324C515.265 274.008 515.441 273.581 515.441 273.137C515.441 272.692 515.265 272.266 514.951 271.949C514.636 271.633 514.21 271.452 513.766 271.448C513.766 271.448 513.766 271.448 513.766 271.448C506.361 271.393 498.957 271.332 491.553 271.269C464.488 271.041 437.423 270.79 410.357 270.669C370.785 270.493 331.213 270.28 291.641 270.28C247.98 270.28 204.32 270.384 160.659 270.489C137.682 270.544 114.706 270.813 91.7295 271.053C84.3254 271.13 76.9212 271.205 69.5171 271.268Z" fill="#1E1E1E"/>
<path d="M211.362 175.679C211.373 174.852 211.046 174.059 210.46 173.475C209.875 172.89 209.077 172.562 208.245 172.562C207.412 172.562 206.614 172.89 206.029 173.475C205.443 174.059 205.116 174.852 205.127 175.679C205.127 175.679 205.127 175.679 205.127 175.679C205.153 177.565 205.178 179.451 205.201 181.337C205.252 185.413 205.296 189.488 205.335 193.563C205.243 199.238 210.361 204.271 215.979 204.111C224.829 204.053 233.679 204.025 242.529 204.025C250.919 204.025 259.309 204.042 267.699 204.076C274.586 204.263 280.84 198.084 280.715 191.147C280.736 187.877 280.761 184.607 280.788 181.337C280.803 179.451 280.82 177.565 280.837 175.679C280.844 174.886 280.531 174.127 279.97 173.566C279.409 173.006 278.646 172.691 277.85 172.691C277.054 172.691 276.291 173.006 275.73 173.566C275.169 174.127 274.855 174.886 274.863 175.679C274.863 175.679 274.863 175.679 274.863 175.679C274.88 177.565 274.896 179.451 274.912 181.337C274.939 184.607 274.963 187.877 274.985 191.147C275.122 195.023 271.626 198.595 267.699 198.518C259.309 198.553 250.919 198.57 242.529 198.57C233.679 198.57 224.829 198.541 215.979 198.484C213.357 198.524 211.046 196.128 211.154 193.563C211.193 189.488 211.237 185.413 211.288 181.337C211.311 179.451 211.336 177.565 211.362 175.679Z" fill="#1E1E1E"/>
<path d="M152.429 105.324C150.36 100.909 153.63 95.9102 158.505 95.9102H324.465C330.682 95.9102 334.893 102.245 332.427 107.951C321.218 133.887 312.273 151.422 296.934 177.547C295.378 180.198 292.525 181.828 289.451 181.828H200.997C197.88 181.828 194.999 180.15 193.431 177.456C177.7 150.436 165.22 132.625 152.429 105.324Z" fill="#F3E7CF"/>
<path d="M195.888 95.8698L195.839 99.3763L195.888 95.8698ZM213.142 95.8872L213.206 92.3809L213.142 95.8872ZM224.644 95.8798L224.501 99.3837L224.644 95.8798ZM287.908 95.9258L288.219 99.4188L287.908 95.9258ZM299.41 95.778L299.448 99.2847L299.41 95.778ZM327.803 97.184L326.278 100.342L327.803 97.184ZM330.897 111.496L334.16 112.782L330.897 111.496ZM328.691 116.807L331.904 118.211L328.691 116.807ZM326.221 122.001L329.339 123.606L326.221 122.001ZM323.772 127.206L320.547 125.828L323.772 127.206ZM321.399 132.445L324.562 133.96L321.399 132.445ZM316.162 142.684L313.093 140.988L316.162 142.684ZM313.522 147.793L316.681 149.316L313.522 147.793ZM310.888 152.905L313.962 154.593L310.888 152.905ZM308.207 157.993L305.077 156.412L308.207 157.993ZM305.382 163.002L302.409 161.141L305.382 163.002ZM302.513 167.99L299.409 166.357L302.513 167.99ZM296.512 177.744L299.236 179.953L296.512 177.744ZM286.532 181.705L286.361 178.203L286.532 181.705ZM275.029 181.982L274.943 178.477L275.029 181.982ZM223.268 181.867L223.244 178.36V178.36L223.268 181.867ZM217.517 181.727L217.322 185.228L217.517 181.727ZM211.765 181.699L211.604 178.196L211.765 181.699ZM206.014 181.848L206.034 185.355L206.014 181.848ZM188.88 169.873L185.744 171.442L188.88 169.873ZM186.025 164.879L183.082 166.787L186.025 164.879ZM182.956 160.014L185.945 158.179L182.956 160.014ZM179.89 155.148L176.945 157.052L179.89 155.148ZM176.864 150.259L173.846 152.045L176.864 150.259ZM173.935 145.309L170.917 147.095L173.935 145.309ZM168.434 135.201L171.462 133.432L168.434 135.201ZM165.576 130.215L168.634 128.497L165.576 130.215ZM159.882 120.225L156.737 121.777L159.882 120.225ZM161.381 95.8843L161.412 99.391C163.365 99.3735 165.318 99.3259 167.271 99.2483L167.132 95.7442L166.993 92.2401C165.112 92.3149 163.23 92.3607 161.349 92.3776L161.381 95.8843ZM167.132 95.7442L167.271 99.2483C169.084 99.1762 170.897 99.185 172.71 99.2745L172.883 95.7719L173.056 92.2693C171.035 92.1695 169.014 92.1598 166.993 92.2401L167.132 95.7442ZM172.883 95.7719L172.71 99.2745C174.74 99.3747 176.77 99.3767 178.8 99.2805L178.634 95.7776L178.468 92.2747C176.664 92.3602 174.86 92.3584 173.056 92.2693L172.883 95.7719ZM178.634 95.7776L178.8 99.2805C180.642 99.1933 182.483 99.1659 184.324 99.1984L184.386 95.6921L184.448 92.1858C182.454 92.1506 180.461 92.1802 178.468 92.2747L178.634 95.7776ZM184.386 95.6921L184.324 99.1984C186.244 99.2323 188.164 99.2637 190.084 99.2926L190.137 95.7862L190.19 92.2797C188.276 92.2509 186.362 92.2195 184.448 92.1858L184.386 95.6921ZM190.137 95.7862L190.084 99.2926C192.002 99.3216 193.921 99.3494 195.839 99.3763L195.888 95.8698L195.937 92.3633C194.021 92.3365 192.106 92.3086 190.19 92.2797L190.137 95.7862ZM195.888 95.8698L195.839 99.3763C197.789 99.4035 199.738 99.4038 201.687 99.3772L201.639 95.8706L201.591 92.3641C199.707 92.3899 197.822 92.3896 195.937 92.3633L195.888 95.8698ZM201.639 95.8706L201.687 99.3772C203.588 99.3512 205.488 99.3387 207.389 99.3398L207.391 95.8329L207.393 92.3261C205.459 92.325 203.525 92.3377 201.591 92.3641L201.639 95.8706ZM207.391 95.8329L207.389 99.3398C209.285 99.3408 211.181 99.3587 213.078 99.3934L213.142 95.8872L213.206 92.3809C211.268 92.3454 209.33 92.3271 207.393 92.3261L207.391 95.8329ZM213.142 95.8872L213.078 99.3934C215.052 99.4296 217.027 99.4171 219.002 99.3561L218.893 95.8509L218.785 92.3457C216.925 92.4032 215.066 92.415 213.206 92.3809L213.142 95.8872ZM218.893 95.8509L219.002 99.3561C220.835 99.2994 222.668 99.3086 224.501 99.3837L224.644 95.8798L224.788 92.3759C222.787 92.2939 220.786 92.2838 218.785 92.3457L218.893 95.8509ZM224.644 95.8798L224.501 99.3837C226.433 99.4629 228.365 99.5298 230.297 99.5844L230.396 96.0789L230.495 92.5735C228.592 92.5197 226.69 92.4539 224.788 92.3759L224.644 95.8798ZM230.396 96.0789L230.297 99.5844C232.253 99.6396 234.208 99.6623 236.164 99.6525L236.147 96.1457L236.129 92.6389C234.251 92.6483 232.373 92.6265 230.495 92.5735L230.396 96.0789ZM236.147 96.1457L236.164 99.6525C238.087 99.6428 240.01 99.6284 241.933 99.6092L241.898 96.1025L241.863 92.5959C239.952 92.6149 238.04 92.6292 236.129 92.6389L236.147 96.1457ZM241.898 96.1025L241.933 99.6092C243.88 99.5898 245.827 99.5455 247.774 99.4764L247.649 95.9718L247.525 92.4671C245.638 92.5341 243.75 92.5771 241.863 92.5959L241.898 96.1025ZM247.649 95.9718L247.774 99.4764C249.666 99.4092 251.559 99.3621 253.451 99.3349L253.401 95.8284L253.35 92.3219C251.408 92.3498 249.467 92.3982 247.525 92.4671L247.649 95.9718ZM253.401 95.8284L253.451 99.3349C255.321 99.308 257.191 99.3187 259.061 99.3669L259.152 95.8612L259.242 92.3555C257.278 92.3049 255.314 92.2937 253.35 92.3219L253.401 95.8284ZM259.152 95.8612L259.061 99.3669C260.995 99.4167 262.928 99.4533 264.861 99.4766L264.903 95.97L264.945 92.4634C263.044 92.4405 261.143 92.4045 259.242 92.3555L259.152 95.8612ZM264.903 95.97L264.861 99.4766C266.827 99.5003 268.793 99.4828 270.759 99.424L270.654 95.9188L270.549 92.4135C268.681 92.4693 266.813 92.4859 264.945 92.4634L264.903 95.97ZM270.654 95.9188L270.759 99.424C272.615 99.3686 274.47 99.3619 276.326 99.404L276.405 95.898L276.485 92.3921C274.506 92.3472 272.528 92.3544 270.549 92.4135L270.654 95.9188ZM276.405 95.898L276.326 99.404C278.225 99.447 280.124 99.5046 282.023 99.5768L282.157 96.0725L282.29 92.5682C280.355 92.4946 278.42 92.4359 276.485 92.3921L276.405 95.898ZM282.157 96.0725L282.023 99.5768C284.089 99.6554 286.155 99.6027 288.219 99.4188L287.908 95.9258L287.597 92.4328C285.827 92.5904 284.058 92.6355 282.29 92.5682L282.157 96.0725ZM287.908 95.9258L288.219 99.4188C290.005 99.2598 291.79 99.2019 293.575 99.2449L293.659 95.7391L293.744 92.2333C291.694 92.1838 289.645 92.2504 287.597 92.4328L287.908 95.9258ZM293.659 95.7391L293.575 99.2449C295.532 99.2922 297.49 99.3054 299.448 99.2847L299.41 95.778L299.373 92.2713C297.497 92.2912 295.62 92.2785 293.744 92.2333L293.659 95.7391ZM299.41 95.778L299.448 99.2847C301.35 99.2645 303.253 99.2562 305.155 99.2596L305.162 95.7528L305.168 92.2459C303.236 92.2424 301.305 92.2509 299.373 92.2713L299.41 95.778ZM305.162 95.7528L305.155 99.2596C307.011 99.263 308.867 99.3151 310.722 99.416L310.913 95.9144L311.103 92.4127C309.125 92.3051 307.147 92.2495 305.168 92.2459L305.162 95.7528ZM310.913 95.9144L310.722 99.416C312.701 99.5236 314.679 99.5793 316.658 99.583L316.664 96.0761L316.671 92.5693C314.815 92.5658 312.959 92.5136 311.103 92.4127L310.913 95.9144ZM316.664 96.0761L316.658 99.583C318.6 99.5866 320.541 99.5695 322.483 99.5317L322.414 96.0255L322.346 92.5193C320.455 92.5561 318.563 92.5728 316.671 92.5693L316.664 96.0761ZM322.414 96.0255L322.483 99.5317C323.865 99.5048 325.113 99.7792 326.278 100.342L327.803 97.184L329.329 94.0263C327.141 92.9695 324.797 92.4716 322.346 92.5193L322.414 96.0255ZM327.803 97.184L326.278 100.342C327.276 100.824 327.974 101.507 328.466 102.462L331.583 100.855L334.7 99.2484C333.504 96.9274 331.682 95.1631 329.329 94.0263L327.803 97.184ZM331.583 100.855L328.466 102.462C328.963 103.425 329.119 104.4 328.94 105.501L332.401 106.066L335.862 106.63C336.281 104.06 335.892 101.561 334.7 99.2484L331.583 100.855ZM332.401 106.066L328.94 105.501C328.682 107.083 328.249 108.651 327.634 110.21L330.897 111.496L334.16 112.782C334.952 110.772 335.521 108.72 335.862 106.63L332.401 106.066ZM330.897 111.496L327.634 110.21C326.947 111.955 326.228 113.686 325.477 115.402L328.691 116.807L331.904 118.211C332.689 116.416 333.441 114.606 334.16 112.782L330.897 111.496ZM328.691 116.807L325.477 115.402C324.74 117.09 323.948 118.754 323.103 120.395L326.221 122.001L329.339 123.606C330.251 121.834 331.106 120.035 331.904 118.211L328.691 116.807ZM326.221 122.001L323.103 120.395C322.186 122.176 321.334 123.987 320.547 125.828L323.772 127.206L326.997 128.584C327.718 126.898 328.498 125.238 329.339 123.606L326.221 122.001ZM323.772 127.206L320.547 125.828C319.813 127.545 319.043 129.246 318.236 130.929L321.399 132.445L324.562 133.96C325.412 132.186 326.223 130.394 326.997 128.584L323.772 127.206ZM321.399 132.445L318.236 130.929C317.419 132.634 316.583 134.33 315.728 136.016L318.855 137.603L321.983 139.189C322.862 137.456 323.722 135.713 324.562 133.96L321.399 132.445ZM318.855 137.603L315.728 136.016C314.879 137.689 314.001 139.346 313.093 140.988L316.162 142.684L319.231 144.381C320.179 142.667 321.096 140.936 321.983 139.189L318.855 137.603ZM316.162 142.684L313.093 140.988C312.134 142.723 311.223 144.484 310.362 146.271L313.522 147.793L316.681 149.316C317.485 147.647 318.335 146.002 319.231 144.381L316.162 142.684ZM313.522 147.793L310.362 146.271C309.557 147.942 308.708 149.591 307.815 151.217L310.888 152.905L313.962 154.593C314.915 152.858 315.821 151.099 316.681 149.316L313.522 147.793ZM310.888 152.905L307.815 151.217C306.872 152.933 305.96 154.664 305.077 156.412L308.207 157.993L311.337 159.575C312.184 157.899 313.059 156.238 313.962 154.593L310.888 152.905ZM308.207 157.993L305.077 156.412C304.26 158.028 303.371 159.604 302.409 161.141L305.382 163.002L308.354 164.863C309.43 163.145 310.424 161.382 311.337 159.575L308.207 157.993ZM305.382 163.002L302.409 161.141C301.344 162.843 300.344 164.581 299.409 166.357L302.513 167.99L305.616 169.624C306.469 168.003 307.382 166.416 308.354 164.863L305.382 163.002ZM302.513 167.99L299.409 166.357C298.535 168.018 297.632 169.661 296.7 171.287L299.742 173.032L302.784 174.776C303.759 173.077 304.703 171.359 305.616 169.624L302.513 167.99ZM299.742 173.032L296.7 171.287C295.839 172.787 294.869 174.203 293.789 175.535L296.512 177.744L299.236 179.953C300.555 178.327 301.738 176.601 302.784 174.776L299.742 173.032ZM296.512 177.744L293.789 175.535C293.017 176.487 292.121 177.082 291.046 177.407L292.06 180.764L293.074 184.121C295.537 183.377 297.609 181.959 299.236 179.953L296.512 177.744ZM292.06 180.764L291.046 177.407C289.562 177.855 288.003 178.123 286.361 178.203L286.532 181.705L286.702 185.208C288.894 185.102 291.021 184.741 293.074 184.121L292.06 180.764ZM286.532 181.705L286.361 178.203C284.487 178.294 282.614 178.35 280.74 178.372L280.78 181.878L280.821 185.385C282.781 185.362 284.741 185.303 286.702 185.208L286.532 181.705ZM280.78 181.878L280.74 178.372C278.807 178.394 276.875 178.429 274.943 178.477L275.029 181.982L275.115 185.488C277.017 185.441 278.919 185.407 280.821 185.385L280.78 181.878ZM275.029 181.982L274.943 178.477C273.128 178.521 271.312 178.487 269.497 178.373L269.278 181.873L269.059 185.373C271.077 185.5 273.096 185.538 275.115 185.488L275.029 181.982ZM269.278 181.873L269.497 178.373C267.423 178.244 265.349 178.253 263.276 178.402L263.527 181.9L263.777 185.398C265.538 185.271 267.298 185.263 269.059 185.373L269.278 181.873ZM263.527 181.9L263.276 178.402C261.513 178.528 259.751 178.537 257.989 178.43L257.775 181.93L257.562 185.431C259.634 185.557 261.706 185.546 263.777 185.398L263.527 181.9ZM257.775 181.93L257.989 178.43C255.945 178.305 253.901 178.292 251.857 178.389L252.024 181.892L252.191 185.395C253.981 185.309 255.771 185.321 257.562 185.431L257.775 181.93ZM252.024 181.892L251.857 178.389C250.087 178.473 248.317 178.446 246.547 178.308L246.273 181.804L245.999 185.3C248.062 185.462 250.127 185.493 252.191 185.395L252.024 181.892ZM246.273 181.804L246.547 178.308C244.46 178.144 242.372 178.133 240.284 178.275L240.522 181.774L240.759 185.272C242.506 185.154 244.252 185.163 245.999 185.3L246.273 181.804ZM240.522 181.774L240.284 178.275C238.474 178.398 236.665 178.437 234.855 178.393L234.77 181.899L234.685 185.405C236.71 185.454 238.735 185.41 240.759 185.272L240.522 181.774ZM234.77 181.899L234.855 178.393C232.906 178.346 230.957 178.326 229.008 178.332L229.019 181.839L229.03 185.345C230.915 185.339 232.8 185.359 234.685 185.405L234.77 181.899ZM229.019 181.839L229.008 178.332C227.087 178.338 225.166 178.347 223.244 178.36L223.268 181.867L223.292 185.374C225.204 185.361 227.117 185.351 229.03 185.345L229.019 181.839ZM223.268 181.867L223.244 178.36C221.4 178.373 219.556 178.328 217.711 178.225L217.517 181.727L217.322 185.228C219.312 185.339 221.302 185.387 223.292 185.374L223.268 181.867ZM217.517 181.727L217.711 178.225C215.676 178.112 213.64 178.102 211.604 178.196L211.765 181.699L211.927 185.203C213.725 185.12 215.524 185.128 217.322 185.228L217.517 181.727ZM211.765 181.699L211.604 178.196C209.734 178.282 207.864 178.331 205.994 178.341L206.014 181.848L206.034 185.355C207.999 185.344 209.963 185.293 211.927 185.203L211.765 181.699ZM206.014 181.848L205.994 178.341C204.271 178.351 202.579 178.219 200.916 177.945L200.346 181.405L199.776 184.865C201.836 185.204 203.923 185.367 206.034 185.355L206.014 181.848ZM200.346 181.405L200.916 177.945C199.708 177.746 198.714 177.263 197.85 176.479L195.493 179.075L193.136 181.672C195.019 183.381 197.26 184.451 199.776 184.865L200.346 181.405ZM195.493 179.075L197.85 176.479C196.685 175.421 195.632 174.213 194.693 172.844L191.802 174.829L188.91 176.813C190.146 178.614 191.554 180.236 193.136 181.672L195.493 179.075ZM191.802 174.829L194.693 172.844C193.697 171.393 192.805 169.88 192.017 168.305L188.88 169.873L185.744 171.442C186.676 173.305 187.732 175.096 188.91 176.813L191.802 174.829ZM188.88 169.873L192.017 168.305C191.099 166.469 190.083 164.691 188.968 162.972L186.025 164.879L183.082 166.787C184.055 168.287 184.942 169.839 185.744 171.442L188.88 169.873ZM186.025 164.879L188.968 162.972C187.94 161.386 186.932 159.788 185.945 158.179L182.956 160.014L179.967 161.848C180.985 163.507 182.024 165.153 183.082 166.787L186.025 164.879ZM182.956 160.014L185.945 158.179C184.927 156.522 183.891 154.877 182.835 153.244L179.89 155.148L176.945 157.052C177.971 158.639 178.979 160.238 179.967 161.848L182.956 160.014ZM179.89 155.148L182.835 153.244C181.819 151.673 180.834 150.082 179.882 148.473L176.864 150.259L173.846 152.045C174.846 153.734 175.879 155.403 176.945 157.052L179.89 155.148ZM176.864 150.259L179.882 148.473C178.906 146.823 177.929 145.173 176.953 143.523L173.935 145.309L170.917 147.095C171.893 148.745 172.87 150.395 173.846 152.045L176.864 150.259ZM173.935 145.309L176.953 143.523C176.017 141.942 175.137 140.33 174.311 138.685L171.177 140.258L168.043 141.832C168.941 143.621 169.899 145.375 170.917 147.095L173.935 145.309ZM171.177 140.258L174.311 138.685C173.416 136.902 172.466 135.151 171.462 133.432L168.434 135.201L165.406 136.971C166.335 138.561 167.214 140.181 168.043 141.832L171.177 140.258ZM168.434 135.201L171.462 133.432C170.505 131.795 169.562 130.15 168.634 128.497L165.576 130.215L162.519 131.933C163.467 133.62 164.429 135.299 165.406 136.971L168.434 135.201ZM165.576 130.215L168.634 128.497C167.673 126.787 166.678 125.096 165.65 123.422L162.662 125.258L159.674 127.094C160.655 128.69 161.603 130.303 162.519 131.933L165.576 130.215ZM162.662 125.258L165.65 123.422C164.702 121.879 163.828 120.296 163.027 118.674L159.882 120.225L156.737 121.777C157.634 123.594 158.613 125.366 159.674 127.094L162.662 125.258ZM159.882 120.225L163.027 118.674C162.164 116.924 161.276 115.187 160.364 113.463L157.264 115.103L154.165 116.744C155.046 118.409 155.903 120.086 156.737 121.777L159.882 120.225ZM157.264 115.103L160.364 113.463C159.501 111.833 158.69 110.178 157.93 108.498L154.735 109.942L151.539 111.387C152.359 113.199 153.234 114.985 154.165 116.744L157.264 115.103ZM154.735 109.942L157.93 108.498C157.192 106.864 156.55 105.213 156.003 103.543L152.67 104.634L149.338 105.726C149.964 107.64 150.699 109.527 151.539 111.387L154.735 109.942ZM152.67 104.634L156.003 103.543C155.72 102.677 155.787 101.966 156.228 101.166L153.159 99.4698L150.09 97.7732C148.706 100.276 148.448 103.008 149.338 105.726L152.67 104.634ZM153.159 99.4698L156.228 101.166C156.866 100.014 157.383 99.7522 157.602 99.6808L156.517 96.3461L155.432 93.0114C153 93.8027 151.278 95.6239 150.09 97.7732L153.159 99.4698ZM156.517 96.3461L157.602 99.6808C158.254 99.4688 158.684 99.3377 158.929 99.2709C159.073 99.2318 159.056 99.2416 158.956 99.2583C158.948 99.2596 158.678 99.31 158.312 99.2931C158.174 99.2867 157.628 99.2613 157.003 98.9669C156.657 98.8041 156.143 98.4915 155.707 97.9158C155.235 97.2915 154.998 96.5456 154.998 95.8046H158.505H162.012C162.012 94.0141 160.784 92.995 159.992 92.6219C159.356 92.3226 158.795 92.2942 158.636 92.2869C158.229 92.2681 157.897 92.3244 157.806 92.3394C157.54 92.3837 157.275 92.4524 157.087 92.5036C156.669 92.6172 156.105 92.7921 155.432 93.0114L156.517 96.3461ZM158.505 95.8046H154.998C154.998 97.9508 156.741 98.8437 156.846 98.9008C157.245 99.1167 157.595 99.2053 157.706 99.2327C157.985 99.3019 158.231 99.328 158.332 99.3383C158.584 99.3637 158.868 99.3757 159.127 99.3829C159.673 99.398 160.444 99.3998 161.412 99.391L161.381 95.8843L161.349 92.3776C160.4 92.3862 159.734 92.3833 159.321 92.3718C159.101 92.3657 159.026 92.3589 159.038 92.3602C159.047 92.3611 159.079 92.3644 159.127 92.3716C159.168 92.3777 159.265 92.3933 159.394 92.4252C159.475 92.4452 159.803 92.526 160.187 92.7339C160.379 92.8379 160.762 93.0674 161.133 93.4861C161.534 93.9382 162.012 94.7295 162.012 95.8046H158.505Z" fill="#1E1E1E"/>
<path d="M319.207 233.138C319.381 233.868 318.529 234.582 317.482 235.287C316.668 235.835 315.844 236.421 314.593 236.718C313.552 236.966 312.764 236.91 311.895 236.863C310.38 236.78 309.058 236.422 308.861 235.596C308.676 234.817 309.058 233.766 310.24 233.033C311.028 232.544 312.332 232.287 313.476 232.016C314.619 231.744 315.899 231.386 316.823 231.468C318.208 231.591 319.022 232.359 319.207 233.138Z" fill="#F3E7CF"/>
<path d="M367.048 206.694C367.058 205.943 368.059 205.459 369.246 205.032C370.17 204.7 371.112 204.332 372.397 204.35C373.467 204.365 374.218 204.611 375.049 204.87C376.498 205.321 377.692 205.991 377.681 206.84C377.67 207.64 377.042 208.566 375.718 208.988C374.833 209.269 373.506 209.199 372.331 209.183C371.156 209.167 369.827 209.201 368.951 208.895C367.638 208.437 367.037 207.494 367.048 206.694Z" fill="#F3E7CF"/>
<path d="M467.548 230.285C467.64 231.029 466.715 231.646 465.597 232.231C464.727 232.687 463.844 233.179 462.569 233.337C461.507 233.469 460.729 233.327 459.871 233.185C458.374 232.936 457.099 232.435 456.995 231.593C456.896 230.798 457.391 229.795 458.646 229.196C459.483 228.797 460.807 228.685 461.974 228.54C463.14 228.396 464.452 228.181 465.362 228.364C466.725 228.638 467.449 229.49 467.548 230.285Z" fill="#F3E7CF"/>
<path d="M438.597 198.061C438.447 198.797 437.373 199.086 436.127 199.284C435.158 199.438 434.163 199.623 432.904 199.366C431.856 199.152 431.164 198.77 430.396 198.361C429.056 197.647 428.008 196.766 428.178 195.935C428.338 195.15 429.127 194.357 430.507 194.19C431.428 194.079 432.719 194.395 433.871 194.63C435.022 194.865 436.334 195.08 437.138 195.543C438.342 196.238 438.757 197.277 438.597 198.061Z" fill="#F3E7CF"/>
<path d="M468.082 170.509C467.932 171.245 466.858 171.534 465.612 171.732C464.643 171.886 463.648 172.071 462.389 171.814C461.341 171.6 460.649 171.218 459.881 170.809C458.541 170.095 457.493 169.214 457.663 168.383C457.823 167.598 458.612 166.805 459.992 166.638C460.913 166.527 462.204 166.843 463.355 167.078C464.507 167.313 465.819 167.528 466.622 167.991C467.827 168.686 468.242 169.725 468.082 170.509Z" fill="#F3E7CF"/>
<path d="M387.332 183.106C387.108 182.39 387.907 181.616 388.9 180.84C389.674 180.235 390.454 179.591 391.681 179.206C392.701 178.885 393.492 178.884 394.362 178.87C395.879 178.845 397.223 179.108 397.478 179.918C397.718 180.682 397.411 181.758 396.285 182.573C395.533 183.116 394.251 183.465 393.129 183.817C392.008 184.17 390.757 184.617 389.829 184.601C388.439 184.577 387.572 183.869 387.332 183.106Z" fill="#F3E7CF"/>
<path d="M353.684 230.237C353.857 230.968 353.25 232.012 352.204 232.716C351.389 233.265 350.32 233.521 349.069 233.818C348.028 234.066 347.24 234.01 346.371 233.963C344.856 233.879 343.941 233.783 343.745 232.958C343.56 232.179 343.772 231.274 344.953 230.541C345.742 230.052 346.808 229.387 347.952 229.115C349.095 228.844 350.375 228.486 351.3 228.568C352.685 228.691 353.499 229.459 353.684 230.237Z" fill="#F3E7CF"/>
<path d="M390.816 231.411C390.343 231.994 389.146 232.151 387.949 231.752C387.017 231.442 386.162 230.752 385.163 229.943C384.331 229.27 383.893 228.611 383.401 227.894C382.541 226.644 382.058 225.861 382.592 225.201C383.096 224.579 383.942 224.194 385.244 224.682C386.113 225.008 387.291 225.447 388.204 226.186C389.118 226.926 390.182 227.721 390.682 228.503C391.43 229.675 391.319 230.788 390.816 231.411Z" fill="#F3E7CF"/>
<path d="M347.65 202.693C348.003 203.355 347.998 204.436 347.166 205.384C346.517 206.122 345.233 206.725 344.1 207.331C343.156 207.835 342.31 208.212 341.458 208.387C339.972 208.692 339.131 208.604 338.731 207.855C338.354 207.149 338.099 205.966 339.055 204.957C339.693 204.283 340.704 203.368 341.74 202.814C342.777 202.26 344.005 201.842 344.919 201.686C346.29 201.452 347.272 201.987 347.65 202.693Z" fill="#F3E7CF"/>
<path d="M417.296 208.808C417.322 209.558 416.841 210.527 415.677 211.011C414.77 211.389 413.351 211.365 412.067 211.41C410.997 211.448 410.073 211.414 409.23 211.196C407.761 210.816 407.045 210.367 407.016 209.519C406.987 208.719 407.28 207.544 408.582 207.059C409.452 206.734 410.761 206.357 411.936 206.316C413.11 206.275 414.397 206.44 415.287 206.702C416.62 207.096 417.267 208.008 417.296 208.808Z" fill="#F3E7CF"/>
<path d="M501.568 208.865C501.344 209.581 500.568 210.335 499.309 210.405C498.329 210.46 496.998 209.966 495.772 209.582C494.751 209.263 493.89 208.923 493.168 208.438C491.908 207.592 491.382 206.93 491.636 206.12C491.875 205.356 492.541 204.346 493.931 204.32C494.858 204.303 496.219 204.383 497.34 204.734C498.462 205.085 499.621 205.668 500.373 206.211C501.5 207.025 501.807 208.101 501.568 208.865Z" fill="#F3E7CF"/>
<path d="M416.092 151.656C416.31 152.374 416.095 153.434 415.094 154.202C414.315 154.799 412.938 155.142 411.708 155.516C410.685 155.827 409.782 156.032 408.912 156.038C407.395 156.049 406.587 155.798 406.34 154.987C406.108 154.221 406.088 153.011 407.222 152.206C407.978 151.669 409.147 150.968 410.272 150.626C411.396 150.284 412.682 150.113 413.609 150.138C414.999 150.175 415.859 150.89 416.092 151.656Z" fill="#F3E7CF"/>
<path d="M241.108 257.499C241.394 257.462 241.669 257.336 241.871 257.124C242.074 256.912 242.187 256.635 242.187 256.349C242.187 256.062 242.074 255.785 241.871 255.574C241.669 255.362 241.394 255.235 241.108 255.198C240.569 255.121 240.045 255.007 239.537 254.857C234.925 253.518 231.959 249.241 232.012 244.951C232.012 244.951 232.012 244.951 232.012 244.951C231.959 240.661 234.925 236.385 239.537 235.046C240.045 234.896 240.569 234.782 241.108 234.705C241.394 234.668 241.669 234.541 241.871 234.329C242.074 234.117 242.187 233.841 242.187 233.554C242.187 233.268 242.074 232.991 241.871 232.779C241.669 232.567 241.394 232.441 241.108 232.403C240.451 232.327 239.783 232.305 239.112 232.34C232.965 232.507 227.254 238.373 227.41 244.951C227.41 244.951 227.41 244.951 227.41 244.951C227.254 251.53 232.965 257.396 239.112 257.563C239.783 257.598 240.451 257.576 241.108 257.499Z" fill="#231F20"/>
</svg>
