<svg width="123" height="66" viewBox="0 0 123 66" fill="none" xmlns="http://www.w3.org/2000/svg">
<path d="M29.5571 25.675C22.7571 29.275 25.3904 37.175 27.5571 40.675L11.5571 41.175C4.0571 40.675 2.12297 46.702 2.55705 50.175C3.05701 54.175 11.4211 58.533 24.5571 60.175C40.5571 62.175 46.5571 57.675 57.5571 47.675C64.0571 61.675 80.5571 66.175 102.057 60.175C123.557 54.175 121.557 35.175 117.057 30.175C112.557 25.175 108.057 20.675 89.0571 29.175C96.0571 21.675 93.5571 14.175 91.0571 10.675C88.5571 7.17496 75.0571 1.67496 62.0571 2.17496C44.8698 2.83601 44.2237 20.0083 45.5571 28.175C43.0571 25.8416 36.3571 22.075 29.5571 25.675Z" fill="#F3E7CF"/>
<path d="M25.4314 41.9909C26.1581 43.1648 27.699 43.5274 28.873 42.8006C30.0469 42.0739 30.4095 40.5331 29.6827 39.3591L27.5571 40.675L25.4314 41.9909ZM45.5571 28.175L43.8513 30.0026L49.2042 34.9987L48.0244 27.7721L45.5571 28.175ZM71.4996 2.64311L71.6918 0.150504L71.4996 2.64311ZM89.0571 29.175L86.8934 27.9226L90.078 31.457L89.0571 29.175ZM117.057 30.175L115.199 31.8474V31.8474L117.057 30.175ZM57.5571 47.675L59.8246 46.6222L58.3922 43.5371L55.8754 45.8251L57.5571 47.675ZM24.5571 60.175L24.247 62.6557V62.6557L24.5571 60.175ZM2.55705 50.175L5.03775 49.8649V49.8649L2.55705 50.175ZM11.3908 43.6694C12.7685 43.7613 13.9597 42.7189 14.0516 41.3413C14.1434 39.9636 13.1011 38.7723 11.7234 38.6805L11.5571 41.175L11.3908 43.6694ZM27.5571 40.675L29.6827 39.3591C28.7503 37.8528 27.7569 35.432 27.6936 33.1433C27.6352 31.03 28.3316 29.1525 30.7268 27.8844L29.5571 25.675L28.3874 23.4655C23.9826 25.7974 22.5956 29.6699 22.6955 33.2816C22.7906 36.7179 24.1972 39.9972 25.4314 41.9909L27.5571 40.675ZM29.5571 25.675L30.7268 27.8844C33.4512 26.4421 36.1477 26.4592 38.5043 27.1098C40.914 27.7751 42.865 29.0821 43.8513 30.0026L45.5571 28.175L47.2629 26.3473C45.7491 24.9345 43.1001 23.1915 39.8348 22.2901C36.5165 21.374 32.4629 21.3078 28.3874 23.4655L29.5571 25.675ZM45.5571 28.175L48.0244 27.7721C47.406 23.9848 47.4617 17.7912 50.4365 12.8946C53.2464 8.26939 59.0428 4.19019 71.3075 5.13571L71.4996 2.64311L71.6918 0.150504C58.0139 -0.903974 50.1723 3.69942 46.1633 10.2985C42.3191 16.6261 42.3747 24.1985 43.0897 28.5778L45.5571 28.175ZM89.0571 29.175L90.078 31.457C99.4546 27.2622 104.764 26.5167 108.077 27.0774C111.216 27.6086 112.961 29.3613 115.199 31.8474L117.057 30.175L118.915 28.5025C116.653 25.9886 113.898 22.9913 108.912 22.1475C104.1 21.3332 97.6595 22.5877 88.0362 26.8929L89.0571 29.175ZM117.057 30.175L115.199 31.8474C115.92 32.6487 116.747 34.295 117.178 36.5897C117.599 38.8319 117.6 41.4848 116.891 44.1589C115.51 49.3622 111.349 54.9865 101.385 57.767L102.057 60.175L102.729 62.583C114.266 59.3635 119.854 52.4877 121.723 45.441C122.639 41.9902 122.64 38.5805 122.092 35.6665C121.555 32.8049 120.444 30.2012 118.915 28.5025L117.057 30.175ZM102.057 60.175L101.385 57.767C90.919 60.6877 81.9058 60.9822 74.8532 59.0167C67.874 57.0717 62.7415 52.9049 59.8246 46.6222L57.5571 47.675L55.2895 48.7277C58.8726 56.4451 65.2401 61.5282 73.5109 63.8332C81.7083 66.1177 91.6951 65.6622 102.729 62.583L102.057 60.175ZM57.5571 47.675L55.8754 45.8251C50.3421 50.8553 46.3763 54.1964 41.9331 56.1332C37.5983 58.0228 32.5855 58.6591 24.8672 57.6943L24.5571 60.175L24.247 62.6557C32.5286 63.6909 38.5158 63.0772 43.931 60.7167C49.2378 58.4035 53.772 54.4946 59.2387 49.5248L57.5571 47.675ZM24.5571 60.175L24.8672 57.6943C18.4793 56.8958 13.3779 55.4497 9.88726 53.7992C8.13793 52.972 6.88048 52.1343 6.07106 51.373C5.24069 50.592 5.06316 50.0682 5.03775 49.8649L2.55705 50.175L0.0763524 50.485C0.300919 52.2817 1.35639 53.8027 2.6454 55.0151C3.95536 56.2472 5.70368 57.3517 7.74987 58.3193C11.8503 60.2582 17.4989 61.8121 24.247 62.6557L24.5571 60.175ZM2.55705 50.175L5.03775 49.8649C4.88613 48.6519 5.16928 46.9396 6.10329 45.656C6.92621 44.5251 8.42966 43.472 11.3908 43.6694L11.5571 41.175L11.7234 38.6805C7.18455 38.3779 3.97093 40.0884 2.0603 42.7142C0.260761 45.1873 -0.206114 48.2251 0.0763524 50.485L2.55705 50.175ZM71.4996 2.64311L71.3075 5.13571C77.1085 5.58293 83.1224 8.03797 86.5581 11.9336C88.2393 13.8398 89.289 16.0657 89.4791 18.6118C89.6701 21.1687 89.0096 24.2663 86.8934 27.9226L89.0571 29.175L91.2208 30.4273C93.7275 26.0963 94.7464 22.0043 94.4652 18.2395C94.1833 14.4638 92.6094 11.2358 90.3081 8.62634C85.7786 3.49058 78.3907 0.66695 71.6918 0.150504L71.4996 2.64311Z" fill="black"/>
</svg>
