<svg width="100%" height="100%" viewBox="0 0 74 75" fill="none" xmlns="http://www.w3.org/2000/svg">
<g clip-path="url(#clip0_1743_12717)">
<path d="M0.632129 30.0626C2.64718 29.9561 4.54599 29.8543 6.43026 29.7526C6.82745 29.1592 9.84277 21.2419 10.3175 19.5466C9.89848 19.2293 9.46011 18.912 9.03384 18.5754C8.68266 18.2993 8.32906 18.0207 8.01179 17.7083C7.87858 17.5751 7.79865 17.3571 7.76475 17.1658C7.66302 16.5869 7.58794 16.0033 7.51771 15.4196C7.45232 14.8843 7.62185 14.6276 8.18374 14.5283C9.25424 14.3394 10.3296 14.1698 11.4073 14.0269C14.4856 13.6249 17.5639 13.218 20.6471 12.8571C22.5144 12.6392 24.389 12.4987 26.2611 12.3267C26.6002 12.2953 26.9417 12.2928 27.2759 12.2444C28.7 12.041 30.003 12.5229 31.2866 12.9952C35.5008 14.5404 39.8337 15.7635 43.9655 17.5436C46.6103 18.6819 49.2381 19.859 51.8853 20.9925C53.5322 21.6997 55.2009 22.3487 56.8502 23.0487C57.9353 23.5088 59.0058 24.0053 60.0787 24.497C60.2797 24.589 60.5485 24.6956 60.6236 24.8676C60.7738 25.2091 60.9167 25.6135 60.8731 25.9695C60.7932 26.6138 60.5776 27.2435 60.4129 27.878C60.316 28.2583 60.0835 28.4351 59.6718 28.4181C59.1583 28.3963 58.6449 28.4302 58.0588 28.6749C58.8314 29.0914 59.5216 29.4668 60.2143 29.8398C62.813 31.2324 65.4166 32.6178 68.0105 34.0225C68.788 34.4439 69.5606 34.8799 70.2896 35.3764C70.5487 35.5507 70.6722 35.9237 70.9483 36.3427C70.8515 36.8198 70.6965 37.5828 70.5366 38.365C69.7882 38.583 69.052 38.7986 68.2527 39.0335C68.0929 40.0822 67.2549 40.7918 66.7075 41.7388C67.2864 42.5768 67.8798 43.4003 68.4368 44.2479C69.27 45.517 70.0716 46.8079 70.8999 48.0819C71.3577 48.7867 71.8542 49.4648 72.3046 50.172C72.6316 50.6879 72.9101 51.2328 73.2129 51.7656C73.38 52.0611 73.5374 52.3639 73.7239 52.6472C73.9879 53.0493 73.9249 53.2503 73.4502 53.3569C73.208 53.4101 72.9561 53.4174 72.7091 53.4489C70.7328 53.708 68.7589 53.9866 66.7802 54.2142C66.3467 54.2651 65.8938 54.1367 65.3537 54.081C63.8787 51.0536 62.3795 47.9753 60.8464 44.8316C60.2845 44.9406 59.713 45.0472 59.1438 45.161C54.7867 46.0329 50.4369 46.9508 46.0702 47.7646C43.331 48.2756 40.5627 48.622 37.8089 49.0579C36.8232 49.2129 35.8472 49.4285 34.8638 49.5883C34.4691 49.6513 34.2971 49.8499 34.1857 50.2229C33.292 53.2212 32.3862 56.2172 31.4731 59.2107C31.1898 60.1431 30.8773 61.0683 30.5746 61.9935C30.5334 62.1194 30.468 62.2381 30.4293 62.3229C28.763 62.6232 27.1403 62.9138 25.5176 63.2142C25.365 63.2432 25.2269 63.3401 25.0744 63.374C24.3187 63.5363 23.689 63.4975 23.052 62.8557C22.5241 62.3253 22.5846 61.9233 22.7977 61.3686C23.7399 58.9128 24.6747 56.4521 25.6096 53.9914C25.6823 53.8025 25.7404 53.6063 25.8179 53.3738C24.7789 52.4874 23.7447 51.5985 23.1344 50.2761C22.1075 50.3658 21.0685 50.419 20.0464 50.5716C19.7146 50.6201 19.4918 50.5934 19.2399 50.4118C17.8691 49.4357 16.6218 48.312 15.406 47.1543C13.1342 44.9939 10.8818 42.8166 8.61727 40.6489C8.56883 40.6029 8.50828 40.5714 8.39445 40.4915C8.32421 40.6853 8.23945 40.8572 8.19827 41.0364C7.73568 42.974 7.28036 44.914 6.82019 46.8539C6.78386 47.0065 6.72089 47.1543 6.67972 47.3068C6.59495 47.6314 6.39877 47.7937 6.05728 47.8276C5.17811 47.9099 4.30137 48.0116 3.42221 48.1012C2.88211 48.1569 2.32264 48.1352 1.80193 48.2732C1.12863 48.45 0.603066 48.295 0.128365 47.8324C0.060551 46.9968 0.465015 46.2775 0.731429 45.5291C1.79466 42.538 2.88453 39.5566 3.96472 36.5728C3.99378 36.4905 4.01316 36.4033 4.0398 36.304C3.34228 35.6428 2.64718 34.9913 1.9642 34.3325C1.5234 33.9062 1.08745 33.4751 0.666036 33.0319C0.552205 32.9132 0.426264 32.7316 0.435952 32.5839C0.477125 31.7749 0.559471 30.9684 0.634551 30.0675L0.632129 30.0626ZM8.15468 14.756C8.14499 15.0732 8.27578 15.3251 8.59305 15.4898C8.93454 15.6666 9.26393 15.87 9.59089 16.0735C11.9208 17.5267 14.2652 18.9556 16.5709 20.4475C19.0655 22.0629 21.5214 23.7438 23.999 25.3883C25.5878 26.4418 27.1814 27.4881 28.7775 28.5295C29.3297 28.888 29.8989 29.2198 30.4559 29.5685C30.795 29.7817 31.1389 29.864 31.5506 29.7817C32.0156 29.6896 32.4952 29.6824 32.9675 29.6315C33.3477 29.5903 33.7328 29.5661 34.1058 29.4862C34.4981 29.4014 34.8711 29.2174 35.2635 29.152C37.2301 28.8153 39.2015 28.5102 41.1682 28.1735C42.912 27.8756 44.6436 27.5196 46.3899 27.2411C48.5841 26.8923 50.7881 26.6114 52.9824 26.2771C54.5954 26.0325 56.2011 25.7491 57.8117 25.4924C58.3615 25.4052 58.9137 25.3471 59.4659 25.2769C59.4054 25.117 59.34 25.071 59.2649 25.0419C57.2377 24.1943 55.2009 23.3684 53.1858 22.4941C51.6673 21.8353 50.1899 21.0845 48.6713 20.4233C44.0551 18.4131 39.388 16.5361 34.6313 14.877C33.1346 14.3563 31.6596 13.763 30.1919 13.1623C29.601 12.9201 29.0052 12.8935 28.3924 12.9274C27.9855 12.9492 27.5811 13.0049 27.1766 13.0436C24.0426 13.3464 20.9086 13.6467 17.7746 13.9567C14.9797 14.2328 12.1848 14.5283 9.38987 14.7971C8.99994 14.8335 8.60032 14.7705 8.15226 14.7511L8.15468 14.756ZM20.5792 47.9366C20.2547 48.6946 20.0609 49.3703 20.1869 50.1526C20.4509 50.1333 20.6737 50.1211 20.8941 50.0969C21.5698 50.0243 22.2455 49.9564 22.9213 49.8717C24.2461 49.7046 25.5709 49.5229 26.8981 49.3582C27.2565 49.3146 27.4479 49.1403 27.5665 48.7915C27.8305 48.0189 28.1405 47.2633 28.4287 46.5003C28.5765 46.108 28.7194 45.7132 28.8429 45.3814C28.5498 45.224 28.2931 45.1295 28.0873 44.9697C27.1718 44.2649 26.2708 43.5383 25.3626 42.8238C23.4371 41.3077 21.5141 39.7916 19.5862 38.2803C17.4985 36.643 15.4108 35.0058 13.3158 33.3783C12.3156 32.6008 11.2548 31.896 10.3029 31.0629C9.73136 30.564 9.17674 30.3872 8.45016 30.4961C7.82772 30.5906 7.18832 30.6633 6.56346 30.6366C5.56078 30.593 4.57505 30.6875 3.58448 30.7892C2.94024 30.8546 2.296 30.9079 1.56215 30.9733C1.73653 31.1283 1.84794 31.23 1.96178 31.3293C3.73464 32.8479 5.51234 34.3591 7.27551 35.8874C8.09897 36.5994 8.874 37.3696 9.70957 38.0671C12.0758 40.0459 14.4808 41.9762 16.692 44.1365C17.7964 45.2143 18.942 46.2485 20.0561 47.3141C20.262 47.5127 20.4557 47.5563 20.727 47.5079C21.485 47.3722 22.2455 47.2463 23.0084 47.1422C24.5125 46.9363 26.0165 46.7474 27.5229 46.5585C27.6949 46.5367 27.8717 46.5754 28.0412 46.5851C28.0703 47.2124 28.0751 47.2463 27.5883 47.3141C26.9393 47.4037 26.2805 47.4352 25.629 47.4933C23.9603 47.6387 22.2915 47.784 20.5841 47.9341L20.5792 47.9366ZM13.2214 21.6149C12.6692 23.7099 12.1364 25.7177 11.5963 27.7618C11.7924 27.7715 11.9281 27.7957 12.0613 27.7812C14.6019 27.4929 17.1449 27.212 19.6831 26.8923C20.0634 26.8439 20.3467 26.9286 20.6301 27.1248C21.0757 27.4348 21.5117 27.7569 21.9525 28.0718C23.3499 29.0769 24.7498 30.082 26.1473 31.0871C26.2829 31.1864 26.421 31.2833 26.5784 31.3947C25.7283 31.4867 24.9266 31.5037 24.1613 31.6732C22.2044 32.1067 20.2111 32.1794 18.2275 32.3586C17.1667 32.4555 16.1011 32.4894 15.0378 32.5621C14.7399 32.5814 14.4469 32.642 14.0206 32.7001C14.7472 33.2402 15.3527 33.6737 15.9388 34.1315C18.3026 35.9673 20.6688 37.8007 23.0157 39.6559C24.2243 40.6102 25.3941 41.6177 26.5881 42.5913C27.4091 43.2598 28.2423 43.9137 29.1263 44.6185C30.6787 40.7071 32.19 36.8925 33.7304 33.0125C32.8197 33.1748 32.0205 33.3177 31.2212 33.4606C30.7538 33.5454 30.3348 33.5187 30.003 33.0925C29.8577 32.9036 29.6058 32.797 29.3999 32.6565C25.4643 29.973 21.5286 27.2895 17.5954 24.6036C16.1713 23.6324 14.7496 22.6612 13.2214 21.6173V21.6149ZM39.4801 32.0801C38.4992 35.5023 37.5135 38.9536 36.5132 42.446C37.9131 42.3782 39.2185 42.1287 40.5167 41.8308C43.4981 41.1478 46.5376 40.7773 49.519 40.0798C51.6527 39.5784 53.8446 39.3265 56.0098 38.9705C56.6032 38.8736 57.1966 38.7937 57.8021 38.7041C57.6664 38.3376 57.463 38.0623 57.1917 37.8782C55.5036 36.7326 53.7986 35.6089 52.1274 34.4391C50.5483 33.3347 48.991 32.1988 47.4555 31.0362C47.1915 30.8376 46.9857 30.7553 46.6781 30.7868C44.2634 31.0241 41.9069 31.5788 39.4801 32.0825V32.0801ZM72.9295 52.7707C72.68 52.2742 72.525 51.8117 72.2489 51.4411C71.1784 50.0025 70.229 48.4839 69.2675 46.975C68.0372 45.0448 66.7414 43.1532 65.4772 41.2423C63.5639 38.3481 61.6481 35.4539 59.742 32.5548C59.3448 31.9493 58.9743 31.3245 58.6037 30.6996C58.3591 30.2903 58.1508 29.8616 57.9014 29.4571C57.6906 29.1181 57.3976 28.842 56.9616 28.9316C56.1915 29.0938 55.4286 29.2997 54.6003 29.5007C54.6826 29.7453 54.7359 29.9633 54.8279 30.1619C55.196 30.9394 55.5642 31.7192 55.959 32.487C56.998 34.502 58.0612 36.505 59.1002 38.52C59.9285 40.1306 60.517 41.8551 61.5125 43.3881C62.0405 44.1995 62.3892 45.1223 62.8445 45.982C64.1209 48.3822 65.4191 50.7726 66.693 53.1752C66.8359 53.4465 67.0127 53.507 67.2936 53.4731C68.7541 53.2987 70.2145 53.1365 71.6749 52.9645C72.0721 52.9185 72.4645 52.8434 72.9295 52.7707ZM36.024 32.4264C35.8399 32.8818 35.7018 33.3177 35.496 33.7173C34.6822 35.3207 34.0985 37.016 33.5051 38.7065C32.9941 40.1597 32.5824 41.6565 31.9696 43.0636C31.3157 44.5652 30.7901 46.108 30.2016 47.629C29.4193 49.6561 28.528 51.6445 27.7482 53.6717C27.0579 55.4664 26.4718 57.3022 25.8058 59.1065C25.3747 60.2715 24.8782 61.4147 24.4132 62.5675C24.3526 62.7177 24.2945 62.8678 24.2315 63.0228C24.6215 62.892 24.9387 62.7588 25.2681 62.6765C26.4791 62.3713 27.6901 62.0783 28.9059 61.7925C29.5646 61.6375 29.9522 61.3299 30.1653 60.5985C31.5337 55.9193 32.9505 51.2546 34.394 46.5996C35.8108 42.0294 37.2785 37.4738 38.7196 32.9108C38.7971 32.6686 38.814 32.4095 38.8746 32.0801C37.8453 32.206 36.9273 32.315 36.0215 32.4264H36.024ZM31.5264 32.6299C32.4734 32.4918 33.3453 32.3683 34.2172 32.2399C35.3821 32.068 36.5108 31.7168 37.6588 31.4891C39.6787 31.0871 41.7252 30.8231 43.7645 30.5179C45.8474 30.2055 47.9399 29.9488 50.0155 29.6025C52.716 29.1496 55.4068 28.624 58.1048 28.1517C58.6546 28.0548 59.2213 28.0573 59.8341 28.0088C60.006 27.3694 60.1756 26.7421 60.3645 26.0495C60.1513 26.0495 59.9963 26.0301 59.8486 26.0519C58.594 26.2432 57.3322 26.3958 56.0922 26.6453C53.4474 27.1781 50.7905 27.6358 48.107 27.9095C45.1087 28.2147 42.1418 28.716 39.1773 29.2464C36.8813 29.6582 34.5926 30.099 32.2966 30.5107C32.0496 30.5543 31.897 30.6487 31.7565 30.8546C31.3859 31.3923 31.4877 31.9711 31.5288 32.6323L31.5264 32.6299ZM1.12621 47.8469C1.52098 47.7815 1.80435 47.7355 2.08772 47.6895C3.31806 47.4982 4.54841 47.3044 5.77875 47.1228C6.1372 47.0695 6.34307 46.9072 6.41815 46.5367C6.62886 45.4952 6.8541 44.4538 7.09387 43.4172C7.32638 42.4073 7.55646 41.3949 7.84225 40.397C7.92944 40.0919 7.84951 39.932 7.65818 39.7504C6.888 39.0117 6.12509 38.2682 5.35491 37.5295C5.31132 37.4883 5.24351 37.4689 5.1103 37.4011C3.79034 40.8621 2.47765 44.3012 1.12621 47.8445V47.8469ZM58.6061 29.7962C59.1002 30.748 59.6234 31.5231 60.1804 32.2811C61.1032 33.5405 62.0162 34.8096 62.9269 36.0787C63.2926 36.5898 63.6462 37.1105 63.9925 37.6094C66.0875 37.28 68.0808 36.8126 70.0014 36.086C66.228 34.0031 62.4788 31.9324 58.6061 29.7962ZM10.3659 29.8422C11.124 27.0037 11.8893 24.1313 12.6692 21.2128C12.2986 20.9634 11.9378 20.7188 11.5284 20.4427C10.3441 23.6106 9.19369 26.6864 8.01179 29.8446H10.3659V29.8422ZM53.5782 29.6775C52.2485 29.9246 50.9383 30.1692 49.6038 30.4162C51.6649 31.7749 53.6726 33.0973 55.678 34.4221C55.7071 34.4027 55.7337 34.3809 55.7628 34.3616C55.041 32.8139 54.3193 31.2663 53.5758 29.68L53.5782 29.6775ZM64.414 38.1568C64.7094 38.6121 64.8039 39.0747 65.3609 38.9487C66.8383 38.6121 68.3157 38.2803 69.7858 37.9218C70.3598 37.7814 70.5245 37.4084 70.3695 36.7133C68.4198 37.1856 66.4726 37.6578 64.414 38.1568ZM26.3313 52.0611C26.6317 51.2595 26.869 50.6225 27.1306 49.9274C26.2781 49.9613 25.537 50.0073 24.7159 50.2422C25.2633 50.8574 25.7501 51.4048 26.3338 52.0611H26.3313ZM67.2234 39.266C66.5889 39.3944 65.9931 39.421 65.407 39.702C65.6709 40.1064 65.9035 40.4649 66.1553 40.8524C66.5792 40.3607 67.0006 39.9248 67.2234 39.266Z" fill="#f3e7cf" stroke="#f3e7cf" stroke-width="0.242194" stroke-miterlimit="10"></path>
</g>
<defs>
<clipPath id="clip0_1743_12717">
<rect width="74" height="51.4953" fill="white" transform="translate(0 12.0747)"></rect>
</clipPath>
</defs>
</svg>