<svg width="100%" height="100%" viewBox="0 0 75 75" fill="none" xmlns="http://www.w3.org/2000/svg">
<g clip-path="url(#clip0_1749_13197)">
<path d="M39.1474 74.4957C39.013 74.4957 38.8745 74.4705 38.7443 74.416C38.2111 74.1934 37.955 73.5762 38.1775 73.043C38.929 71.2461 38.7611 69.0922 38.5973 67.0098L38.5848 66.8502C38.1859 61.7238 38.0389 56.5218 38.1481 51.3786C38.1817 49.6782 38.2489 47.7007 38.5596 45.7442C38.9332 43.4098 39.6596 41.1258 40.3607 38.9174C41.4901 35.3612 42.5566 32.0024 42.2459 28.526C42.1955 27.9466 42.6195 27.4386 43.1989 27.3882C43.7699 27.3421 44.2864 27.7619 44.3367 28.3413C44.6852 32.2375 43.5054 35.9574 42.3592 39.5556C41.6791 41.6884 40.9779 43.8969 40.6294 46.0801C40.3355 47.9022 40.2768 49.7916 40.2432 51.4248C40.1382 56.4966 40.2852 61.6356 40.6756 66.6907L40.6882 66.8502C40.8688 69.1804 41.0577 71.5903 40.113 73.8533C39.9451 74.2564 39.5546 74.4999 39.1432 74.4999L39.1474 74.4957Z" fill="#0f332b"></path>
<path d="M55.9918 19.726C57.2514 20.1626 60.0308 18.2019 60.9377 17.4798C61.6893 16.8794 64.9347 14.0496 62.8019 13.4912C61.1854 13.0671 59.5144 13.529 57.9316 14.1504C57.9945 14.0706 58.0407 13.9782 58.0575 13.8691C58.1163 13.508 57.814 13.1679 57.4697 13.0503C57.1255 12.9328 56.7476 12.9832 56.3865 13.0335C55.2193 13.2015 54.0563 13.3652 52.8891 13.5332C54.9674 12.0175 57.0415 10.5018 59.1198 8.98616C59.3927 8.78883 59.674 8.57471 59.8083 8.26822C60.077 7.65943 59.6026 6.91209 58.9686 6.70217C58.3346 6.49644 57.6335 6.70217 57.0499 7.02965C56.0842 7.57126 55.2697 8.3102 54.3208 8.877C53.6281 9.28846 52.4945 9.76709 52.062 10.4892C52.6624 9.48159 53.4979 8.63769 54.1907 7.69302C54.8834 6.74835 55.446 5.62314 55.3663 4.45175C55.3537 4.27542 55.3243 4.09488 55.2151 3.95633C54.959 3.63304 54.451 3.72961 54.0689 3.88495C52.9479 4.33839 51.9445 5.06474 51.1384 5.96742C51.5582 5.27467 51.9403 4.56092 52.272 3.82617C52.4651 3.39792 52.6456 2.95288 52.6582 2.48265C52.6708 2.01241 52.4777 1.51278 52.0704 1.27347C51.7471 1.08454 51.3441 1.08873 50.9746 1.15591C49.6521 1.39943 48.4177 2.38188 47.8089 3.56587C47.3849 4.38878 46.1631 5.83307 46.0959 6.71056C46.2219 5.08573 46.3478 3.4651 46.4738 1.84027C46.499 1.51278 46.5158 1.15591 46.331 0.883005C46.1379 0.601704 45.7726 0.488344 45.4326 0.500939C43.4802 0.563917 42.2501 3.26357 41.8218 4.82962C41.36 6.52163 41.3306 8.28501 41.3894 10.0442C41.3138 8.19684 41.2424 6.35369 41.1668 4.50634C41.1333 3.64984 41.0829 2.74295 40.6 2.0334C39.5756 0.534528 37.0397 0.862014 35.9439 2.31051C34.8481 3.759 34.9236 5.79948 35.482 7.52508C36.0404 9.25067 37.0145 10.8209 37.6107 12.5339C35.9901 10.5564 34.0797 8.73425 31.7286 7.735C30.1835 7.07583 28.4327 6.81553 26.7743 7.11782C25.4769 7.35294 22.9788 8.41936 24.4189 10.166C24.7086 10.5186 25.1747 10.6614 25.6197 10.7663C26.4174 10.9595 27.2277 11.1022 28.0464 11.1904C28.7644 11.266 29.4949 11.3038 30.1961 11.4801C30.7209 11.6102 31.2205 11.816 31.7202 12.0217C31.8881 12.0931 32.0602 12.1603 32.2282 12.2316C32.0854 12.1896 31.9469 12.1519 31.8041 12.1099C30.3388 11.6942 28.8484 11.2744 27.3243 11.2786C26.8625 11.2786 26.3796 11.3247 25.9808 11.5641C25.5819 11.8034 25.288 12.2694 25.3888 12.7229C25.4644 13.0629 25.7289 13.3023 26.0479 13.4618C25.1495 13.3526 24.23 13.3316 23.7388 13.487C23.0208 13.7137 22.3868 14.3939 22.4792 15.137C22.5926 16.0691 23.6716 16.5267 24.5995 16.6779C27.2277 17.1019 30.322 16.6821 32.1778 18.5966C28.6972 18.0004 24.9395 19.7764 23.1887 22.8413C22.7941 23.5341 22.4876 24.3234 22.5968 25.1127C22.7059 25.902 23.3441 26.6578 24.1376 26.6746C24.7884 26.6872 25.3426 26.2337 25.8548 25.8265C28.6049 23.6264 31.8545 22.0478 35.2847 21.2417C31.3717 22.1779 29.1003 25.3184 27.3789 28.7025C27.1899 29.0761 26.9968 29.4624 26.9506 29.8822C26.9086 30.3021 27.0472 30.7639 27.4041 30.9907C27.7861 31.2342 28.2858 31.1418 28.7182 31.0116C32.4045 29.9116 34.34 26.6746 36.095 23.4543C35.2175 28.27 30.3682 32.2922 31.3843 37.0785C33.6851 36.4193 34.9866 34.0598 36.0404 31.9101C37.1992 29.5548 38.3538 27.2036 39.5126 24.8482C39.1893 28.8326 40.1088 32.9052 42.1031 36.3648C42.3928 36.9148 43.2703 36.856 43.6986 36.4026C44.1268 35.9491 44.2192 35.2857 44.2822 34.6686C44.5341 32.2124 44.6096 29.7437 44.5718 27.275C45.8986 31.7338 48.2792 35.6972 52.0914 38.4808C53.4559 35.4789 53.33 31.9143 51.999 28.9082C53.8464 31.0998 55.9205 33.0479 58.4858 34.2655C58.6663 32.3972 58.8133 30.3945 58.1373 28.6815C59.103 29.4666 60.2282 30.0418 61.0427 29.3658C61.4499 29.0257 61.4751 28.4128 61.387 27.8921C61.1518 26.494 60.4507 24.6971 59.3759 23.744C59.3423 23.7146 59.3045 23.6894 59.2709 23.66C60.5137 24.2814 61.7102 24.9868 62.8522 25.7761C62.6885 22.5306 59.0694 20.7756 55.996 19.7134L55.9918 19.726ZM45.9322 22.6482C44.5844 22.5516 43.2199 22.455 41.931 22.0394C40.642 21.6237 39.4203 20.8554 38.7359 19.6882C37.8374 18.1683 38.0431 16.0775 39.2187 14.7591C41.8218 11.8454 46.1421 13.3862 48.678 15.3259C49.1231 15.666 49.5807 16.0187 49.8872 16.4889C50.4372 17.3286 50.4372 18.3993 50.4162 19.3985C50.4036 20.0745 50.3826 20.784 50.0467 21.3718C49.291 22.6902 47.4478 22.7489 45.9322 22.644V22.6482Z" fill="#0f332b"></path>
<path d="M40.4782 68.0049C40.1171 68.0049 39.7687 67.816 39.5755 67.4885C38.9374 66.4095 39.0171 65.2549 39.3572 64.2304C38.9583 64.0751 38.6812 63.6846 38.6896 63.2354C38.761 59.0662 39.6805 54.8467 41.3515 51.0303C41.8133 49.9722 42.4767 48.6035 43.4802 47.3985C44.2863 46.4329 45.3107 45.5596 46.7088 44.6569C51.81 41.3526 57.5368 40.5675 62.0251 42.5534C62.3316 42.6878 62.5583 42.9649 62.6254 43.2924C62.6968 43.6199 62.6045 43.9641 62.3777 44.216C61.496 45.1943 61.0216 46.5084 60.522 47.9024C60.4296 48.1585 60.3373 48.4188 60.2407 48.6749C56.9406 57.5044 49.6898 64.7091 40.8351 67.9461C40.7175 67.9881 40.5958 68.0091 40.474 68.0091L40.4782 68.0049ZM53.3089 47.5077C53.5944 47.5077 53.8757 47.6211 54.0814 47.8478C54.4719 48.276 54.4467 48.9394 54.0185 49.3299C49.6982 53.2975 46.0874 58.0922 42.5943 62.7274C41.7168 63.8903 41.2549 64.8224 41.2004 65.5488C48.9928 62.3453 55.3242 55.8376 58.2758 47.9359C58.3681 47.6882 58.4563 47.4405 58.5487 47.1886C58.9349 46.118 59.3296 45.0222 59.9342 44.0187C56.2983 42.9523 51.8814 43.8046 47.8508 46.4203C46.6375 47.2096 45.76 47.9443 45.0924 48.7463C44.2611 49.7455 43.6859 50.9421 43.2744 51.8742C41.9435 54.9097 41.1248 58.2181 40.8687 61.535C40.8855 61.5098 40.9023 61.4888 40.9191 61.4678C44.4668 56.757 48.1405 51.8868 52.5994 47.789C52.8009 47.6043 53.057 47.5119 53.3089 47.5119V47.5077Z" fill="#0f332b"></path>
<path d="M37.5392 60.9303C37.3544 60.9303 37.1655 60.8799 37.0017 60.7834C29.1967 56.1314 22.139 49.8714 16.5927 42.6751C14.3969 39.8285 11.8903 36.0163 12.0037 31.7673C12.0121 31.4693 12.1465 31.188 12.3732 30.9948C12.5999 30.8017 12.898 30.7135 13.1961 30.7555C19.4225 31.6288 25.4684 35.4663 30.2169 41.5625C34.3945 46.924 37.0857 53.1966 39.6888 59.2635C39.9155 59.7967 39.672 60.4139 39.1388 60.6406C38.8533 60.7624 38.5384 60.7498 38.2781 60.628C38.1899 60.7162 38.0892 60.7876 37.9716 60.838C37.8331 60.9009 37.6861 60.9303 37.535 60.9303H37.5392ZM14.1576 33.0563C14.506 36.1464 16.3954 38.9804 18.2553 41.3946C23.2306 47.8435 29.4528 53.5241 36.3426 57.9116C35.9269 56.6688 34.9781 55.447 34.0544 54.3512L25.9176 44.6694C25.544 44.2244 25.6027 43.5652 26.0478 43.1915C26.4928 42.8179 27.152 42.8767 27.5257 43.3217L33.0383 49.884C31.7284 47.4237 30.2715 45.0515 28.5627 42.8599C24.4733 37.6117 19.4015 34.1731 14.1576 33.0605V33.0563Z" fill="#0f332b"></path>
</g>
<defs>
<clipPath id="clip0_1749_13197">
<rect width="74" height="74" fill="white" transform="translate(0.5 0.499756)"></rect>
</clipPath>
</defs>
</svg>