<svg width="100%" height="100%" viewBox="0 0 75 75" fill="none" xmlns="http://www.w3.org/2000/svg">
<g clip-path="url(#clip0_1749_13212)">
<g clip-path="url(#clip1_1749_13212)">
<path d="M74.4395 69.1879C73.8609 69.9307 73.2865 70.6648 72.7208 71.3903C69.3309 70.9023 66.6621 69.2786 64.3043 67.059C63.8638 66.6444 63.4233 66.2298 62.6935 66.2298C62.4862 67.5167 62.8792 68.7129 63.0951 69.9177C63.2333 70.6778 63.5097 71.4162 63.6263 72.1806C63.7342 72.9061 63.7947 73.7827 63.0865 74.18C62.3912 74.573 61.6657 74.1239 61.1 73.6316C58.9797 71.8006 57.6021 69.5982 57.6928 66.6833C57.7014 66.4371 57.6928 66.1953 57.6928 65.6425C56.9457 66.3162 56.3455 66.7826 55.8316 67.331C54.5274 68.7172 53.2708 70.1423 52.7396 72.0467C52.636 72.4138 52.4373 72.7636 52.2257 73.0874C51.7075 73.8863 51.0943 73.9641 50.4552 73.2299C49.6217 72.267 49.0776 71.1485 48.9567 69.853C48.7753 67.9788 49.1942 66.2514 50.2177 64.6709C50.3774 64.4247 50.52 64.17 50.7661 63.7511C49.5785 63.9022 48.5767 64.0793 47.5619 64.144C43.4723 64.3988 39.4649 64.0102 35.6388 62.421C34.8312 62.0885 34.2439 61.5832 34.1748 60.5425C34.8096 60.2359 35.4444 59.9293 36.0836 59.6227C36.0749 59.5493 36.0663 59.4802 36.0577 59.4068C35.2372 59.329 34.4123 59.1779 33.5919 59.1909C30.9144 59.2384 28.7552 58.1026 26.8638 56.3364C23.0031 52.7305 19.6262 48.6885 16.2276 44.6595C13.9734 41.9907 11.4774 39.5163 9.31816 36.7741C7.69876 34.7142 6.41188 32.3909 5.05158 30.141C4.6802 29.5321 4.50747 28.7764 4.36064 28.0639C4.162 27.1138 4.58088 26.7381 5.50502 27.0404C7.45693 27.6795 9.48226 27.7832 11.5033 27.9257C11.784 27.9473 12.069 27.8782 12.3756 27.6493C11.3348 27.3556 10.2941 27.062 9.25338 26.7683C7.96218 26.4056 6.64075 26.0817 5.58707 25.2094C4.86158 24.6135 4.11449 23.9571 3.62652 23.1711C0.888653 18.7664 -0.229811 14.0248 1.16071 8.92906C2.16258 5.24979 4.30018 2.42124 7.95355 0.952988C9.59022 0.292274 11.3435 0.395915 13.0579 0.322503C13.6625 0.296592 14.3448 0.57297 14.8846 0.892531C16.4867 1.84258 17.9981 2.92649 19.0086 4.55453C20.0969 6.3078 21.5133 7.8581 22.2129 9.86184C22.8606 11.7144 23.3098 13.58 23.2666 15.5535C23.2234 17.4018 23.1932 19.25 23.1586 21.1458C23.6768 21.0422 23.8236 20.511 24.005 20.0835C24.575 18.7318 25.1105 17.3672 25.6244 15.994C26.1124 14.6898 27.1488 14.2796 28.2284 15.2037C29.2346 16.063 30.1026 17.1081 30.9317 18.1488C33.9157 21.8972 36.8177 25.7103 39.8362 29.4285C41.3865 31.3372 43.1225 33.0862 44.7635 34.9215C45.8129 36.0918 46.5254 37.4305 47.1041 38.9074C48.0541 41.3429 48.3305 43.826 48.1837 46.3911C48.1707 46.5984 48.1837 46.8057 48.3608 47.0734C48.486 46.8402 48.676 46.62 48.7278 46.3739C48.9999 45.0308 49.1856 43.6662 49.5224 42.3405C49.6174 41.9648 50.0665 41.5848 50.4422 41.3947C50.9086 41.1616 51.2282 41.5718 51.47 41.9518C52.1394 43.0098 52.8605 44.0376 53.4521 45.1345C54.3245 46.7582 55.1536 48.4121 55.9007 50.0963C56.2764 50.9427 56.4362 51.8884 56.7428 52.9724C56.976 52.5362 57.1055 52.2382 57.2782 51.9748C57.818 51.1457 58.3103 50.2734 58.9451 49.5263C59.5972 48.7576 60.4911 48.4769 61.6312 48.8569C61.6269 50.2604 60.7805 51.4436 60.5689 52.9378C60.9791 52.5967 61.2555 52.3419 61.5535 52.1216C62.0069 51.7891 62.4387 51.3746 62.9483 51.2018C63.3974 51.0464 64.1013 50.9859 64.4036 51.2364C64.68 51.4652 64.7447 52.2253 64.5936 52.6398C64.0452 54.1815 63.3499 55.6714 62.7496 57.2001C62.5553 57.6967 62.4733 58.2408 62.3092 58.8756C63.324 58.4524 64.1358 58.0378 64.9909 57.7787C66.6189 57.2821 68.2297 57.3296 69.7239 58.2624C70.6609 58.8454 70.6912 59.0397 70.0391 60.1711C67.8497 59.6616 65.8243 59.8947 64.2093 61.7517C64.6195 62.529 65.3105 62.814 65.928 63.1767C67.9404 64.3513 69.9614 65.513 71.9694 66.6962C72.9367 67.2662 73.8134 67.9442 74.4395 69.1836V69.1879ZM58.8847 63.7424C58.2153 67.3397 59.4331 70.1898 62.4085 72.5606C61.9507 69.9652 61.5275 67.5469 61.0784 64.9948C60.435 64.6407 59.6447 64.2045 58.8545 63.7683C55.2702 61.6005 51.6255 59.5234 48.1189 57.2346C45.5927 55.585 43.2305 53.6806 40.8252 51.8496C39.521 50.8563 38.2471 49.8243 37.0207 48.736C32.7195 44.9099 28.8157 40.6822 25.0069 36.3897C21.2153 32.1145 18.1277 27.2995 15.0746 22.4802C14.1979 21.0983 13.4984 19.6041 12.7167 18.1618C12.5397 17.8379 12.4274 17.5313 12.9024 17.2204C13.6927 17.8293 14.185 18.68 14.7032 19.5091C16.7156 22.735 18.9827 25.7751 21.4874 28.6382C22.9643 30.3267 24.3332 32.1059 25.8403 33.7685C27.3777 35.4613 29.1353 36.9598 30.5862 38.7173C32.4475 40.9672 34.5549 42.9148 36.8566 44.6767C37.1286 44.8883 37.3834 45.1258 37.6511 45.3418C39.1367 46.525 40.592 47.7471 42.112 48.8785C44.1935 50.4245 46.3225 51.8971 48.4299 53.3999C49.5181 54.1772 50.5977 54.9718 51.6946 55.7405C52.8864 56.5739 54.2079 57.1267 55.6804 57.6276C55.3868 56.8373 55.0672 56.2155 54.9377 55.5591C54.8038 54.8897 54.8643 54.1858 54.8254 53.4949C54.8124 53.2401 54.7563 52.9853 54.7261 52.7262C54.4713 50.4375 53.2405 48.5071 52.3596 46.4559C51.9277 45.4497 51.388 44.4954 50.8136 43.3467C50.5934 44.3701 50.4552 45.1777 50.2393 45.9593C49.9413 47.0303 49.6692 48.1271 49.2288 49.1419C48.7278 50.295 47.6655 50.3554 46.9011 49.3665C46.4607 48.7965 46.3311 48.1444 46.3484 47.4189C46.4045 44.8711 46.4045 42.3577 45.3595 39.9092C44.8197 38.6483 44.2021 37.5427 43.2823 36.5409C41.5075 34.5976 39.6592 32.6975 38.083 30.6031C35.099 26.6388 31.9638 22.7738 29.5239 18.4209C29.2087 17.8595 28.8114 17.337 28.4141 16.8274C28.1334 16.469 27.7879 16.1667 27.4727 15.8385C26.7947 17.5529 26.2247 19.168 25.5165 20.7226C25.1494 21.5301 24.5707 22.2556 24.0223 22.9682C23.2363 23.9959 21.8156 23.4475 21.4356 22.1995C21.3362 21.8799 21.3665 21.5129 21.3708 21.1717C21.3924 19.358 21.4183 17.5443 21.4528 15.7305C21.4788 14.1586 21.1506 12.6558 20.723 11.1487C20.1876 9.27022 18.9309 7.81923 17.9636 6.1912C17.1474 4.81795 16.0289 3.75563 14.7334 2.88331C14.2109 2.5292 13.5588 2.16214 12.9672 2.15782C11.3823 2.14918 9.75432 2.08441 8.26015 2.77103C5.56116 4.01041 3.67834 6.09188 2.82329 8.88588C2.01144 11.5417 1.7437 14.3227 2.63328 17.052C3.15581 18.6455 3.75175 20.226 4.4686 21.7417C5.21137 23.318 6.44643 24.4623 8.14355 25.0064C9.49953 25.4383 10.8728 25.814 12.2288 26.2415C12.7945 26.4229 13.4077 26.5827 13.8784 26.9195C14.8457 27.6061 14.6384 28.9837 13.4984 29.3378C12.8247 29.5451 12.0344 29.6401 11.3478 29.5148C9.82341 29.2428 8.33356 28.8023 6.82644 28.4309C6.60189 28.3748 6.3687 28.3489 5.98436 28.2755C6.15278 28.7548 6.2046 29.1089 6.38165 29.381C7.76354 31.5186 9.02883 33.7512 10.6007 35.7333C12.3929 37.9919 14.5132 39.9913 16.4176 42.1677C20.0321 46.2961 23.6639 50.3986 27.6541 54.1772C29.4548 55.883 31.4672 56.9539 33.9805 57.0057C34.5376 57.0187 35.0947 57.1439 35.6517 57.1828C36.9818 57.2821 38.3119 57.4505 39.6419 57.4203C40.3933 57.403 41.0627 57.3814 41.8529 57.9472C41.4816 58.3099 41.2052 58.6813 40.8424 58.9058C39.9269 59.4715 38.9639 59.9682 38.0268 60.508C37.798 60.6418 37.5907 60.8146 37.2884 61.0348C39.1583 61.7042 40.9245 62.0194 42.7382 62.1403C44.6728 62.2699 46.5989 62.6715 48.5378 62.2871C49.5483 62.0885 50.5415 61.7819 51.5564 61.5962C51.9364 61.5271 52.5669 61.5271 52.7051 61.7387C52.8821 62.0151 52.7051 62.5376 52.6316 62.9479C52.6057 63.1033 52.433 63.2285 52.351 63.3797C51.8932 64.2606 51.4441 65.1459 50.9863 66.0269C50.3861 67.1885 50.3343 68.4365 50.4336 69.6975C50.4897 70.4273 50.7229 71.1053 51.3059 71.7444C51.4355 71.5069 51.5391 71.3774 51.5823 71.2305C52.2214 69.0541 53.6162 67.3483 55.0499 65.6684C56.0518 64.4938 57.1832 63.5395 58.8804 63.7511L58.8847 63.7424ZM60.8539 60.9096C60.6639 58.0897 61.6873 55.8484 62.5208 53.5294C60.9489 54.527 59.9902 56.0816 58.7551 57.3814C58.1678 57.1353 57.9994 56.7812 58.1808 56.2284C58.3967 55.572 58.5738 54.907 58.781 54.2463C59.0445 53.4128 59.3165 52.5837 59.5843 51.7503C58.5824 52.6485 58.0901 53.7842 57.7705 54.9891C57.4812 56.0859 57.0753 57.1051 56.2548 57.9644C57.7403 58.9145 59.1783 59.8343 60.8496 60.9009L60.8539 60.9096ZM71.2353 68.7777C68.5018 66.8992 66.0187 64.9732 63.3283 63.4013C59.7311 61.2939 56.285 58.8886 52.3639 57.3685C52.1221 57.2735 51.8716 57.2044 51.6211 57.1223C51.7334 57.3901 51.8975 57.5283 52.0746 57.6405C55.0284 59.5018 57.9821 61.363 60.9359 63.2113C62.6503 64.2822 64.3431 65.3921 66.0964 66.3939C67.5517 67.2231 69.0804 67.9226 70.5832 68.6654C70.7214 68.7345 70.8985 68.7215 71.2353 68.7734V68.7777ZM45.2472 52.4067C46.4002 53.9613 49.7513 56.2932 50.805 56.44C48.8919 55.0538 47.0696 53.7281 45.2472 52.4067ZM64.1315 59.9898C63.2204 60.1236 62.5769 60.685 61.7132 61.2162C62.2358 61.5185 62.5899 61.7214 62.8447 61.8683C63.3024 61.1989 63.6997 60.6202 64.1315 59.9854V59.9898Z" fill="#0E332B"></path>
</g>
</g>
<defs>
<clipPath id="clip0_1749_13212">
<rect width="74" height="74" fill="white" transform="translate(0.5 0.32251)"></rect>
</clipPath>
<clipPath id="clip1_1749_13212">
<rect width="73.8791" height="74" fill="white" transform="translate(0.560455 0.32251)"></rect>
</clipPath>
</defs>
</svg>