<svg width="75" height="75" viewBox="0 0 75 75" fill="none" xmlns="http://www.w3.org/2000/svg">
<g clip-path="url(#clip0_1749_13135)">
<g clip-path="url(#clip1_1749_13135)">
<path d="M38.3037 74.711C38.1848 74.1618 38.0348 73.7146 37.998 73.256C37.8735 71.6368 37.831 70.0092 37.6782 68.3929C37.5394 66.9294 37.3017 65.4772 37.1007 63.9741C36.6817 63.96 36.5204 64.2685 36.3138 64.5346C34.8276 66.4425 33.3444 68.3476 31.8413 70.2413C31.6629 70.4678 31.3714 70.6065 31.1336 70.7848C30.4797 69.896 30.4627 69.661 31.06 68.9222C32.5801 67.0398 34.1143 65.1687 35.6372 63.2891C36.1383 62.672 36.6365 62.0549 37.1092 61.418C37.2196 61.2708 37.2762 61.05 37.2819 60.8604C37.3611 58.0976 37.4291 55.3349 37.497 52.5721C37.5027 52.374 37.497 52.1786 37.3668 51.9493C37.0073 52.7165 36.6138 53.4694 36.2968 54.2535C35.1702 57.022 33.4208 59.2752 30.9269 60.9481C30.3268 61.3501 29.823 61.8992 29.2229 62.3012C28.1331 63.0287 27.0178 63.7194 25.8827 64.3733C25.6166 64.5261 25.2316 64.478 24.824 64.5346C24.6768 63.9968 24.4645 63.541 24.4447 63.0796C24.3994 61.9417 24.3456 60.7868 24.4758 59.6573C24.6768 57.8797 24.8268 56.0822 25.4411 54.3753C25.4609 54.3186 25.4269 54.2422 25.3958 54.0243C24.8693 54.5847 24.3994 55.0659 23.9465 55.567C22.4151 57.2597 20.9035 58.9666 19.3607 60.6481C18.8257 61.2312 18.7408 61.9021 18.7238 62.6437C18.6899 64.1581 18.6021 65.6697 18.5313 67.1813C18.5087 67.6625 18.4776 68.1438 18.4408 68.625C18.387 69.3072 18.1945 69.9016 17.4557 70.1677C16.7112 69.4261 16.9801 68.54 17.0339 67.7022C17.1217 66.3264 17.2377 64.9507 17.3311 63.575C17.3453 63.3825 17.3113 63.19 17.2887 62.7796C15.0836 65.0696 13.02 67.2153 10.9451 69.3723C10.3959 69.0184 10.4101 68.6561 10.6847 68.2711C11.0668 67.7361 11.4433 67.1955 11.8679 66.6973C12.8813 65.5169 13.9201 64.3619 14.9477 63.1929C15.0581 63.0655 15.1572 62.9268 15.4034 62.6097C13.4701 63.1844 11.7632 63.8213 9.88923 63.8722C9.79299 63.6939 9.69108 63.5184 9.60333 63.3401C9.40801 62.9381 9.54955 62.6692 9.95151 62.5305C10.4724 62.3493 10.9932 62.154 11.5282 62.0181C13.2011 61.5879 14.8797 61.1746 16.5612 60.7755C17.1188 60.6424 17.5802 60.4018 17.9709 59.9715C19.8957 57.8429 21.8291 55.7227 23.7738 53.611C24.7589 52.541 25.7666 51.4964 26.7658 50.4406C26.9923 50.2 27.2131 49.9594 27.3518 49.6027C27.0687 49.7697 26.78 49.9339 26.5026 50.1066C23.9181 51.7201 21.1695 52.8948 18.0982 53.1213C16.5499 53.2345 14.9901 53.2486 13.4361 53.2713C12.952 53.2769 12.4057 53.2034 12.3718 52.5523C12.3576 52.2749 12.4906 51.9607 12.635 51.7116C12.8954 51.2672 13.2804 50.8878 13.504 50.4293C14.7127 47.9383 16.6121 46.053 18.6984 44.3121C20.0911 43.1487 21.597 42.1863 23.2614 41.4673C23.4709 41.3767 23.6719 41.272 23.8587 41.0172C23.6436 40.9917 23.4256 40.9323 23.2105 40.9493C20.1109 41.1757 17.0113 41.4107 13.9145 41.6569C13.6484 41.6768 13.3427 41.7136 13.136 41.8551C11.8254 42.7496 10.529 43.6696 9.23817 44.598C8.14553 45.385 7.07269 46.2002 5.98571 46.9928C5.88097 47.0692 5.73661 47.0834 5.61772 47.123C4.96666 46.2342 4.96666 46.1634 5.76491 45.5463C7.20857 44.4254 8.66071 43.3157 10.2233 42.1127C9.94585 42.0646 9.77317 42.008 9.59767 42.008C6.65658 42.0221 3.71266 42.0391 0.771568 42.0702C0.239398 42.0759 0.0242652 41.8155 -0.0323486 41.2012C1.68305 40.7341 3.47205 40.7908 5.22991 40.6436C6.96796 40.4964 8.71449 40.4398 10.6365 40.335C8.52201 38.6394 6.14989 37.6883 4.36089 35.9559C4.59867 35.3841 4.94118 35.5228 5.25256 35.6898C6.70753 36.4824 8.13986 37.3203 9.61182 38.0818C10.5601 38.5715 11.6046 38.8885 12.5303 39.415C13.4333 39.9274 14.3193 39.9642 15.3043 39.8255C16.397 39.6698 17.5066 39.6557 18.6078 39.5679C18.8682 39.5481 19.1286 39.4886 19.607 39.4122C19.2786 39.2254 19.1513 39.1376 19.0154 39.0782C16.9575 38.1667 15.3695 36.6947 14.1692 34.8265C13.2917 33.4621 12.5218 32.0298 11.7518 30.6003C11.248 29.6633 11.4489 29.1991 12.4708 28.9103C12.9945 28.7603 13.5578 28.7122 14.107 28.681C18.0643 28.4631 21.8801 29.2274 25.642 30.3568C25.7383 30.3851 25.8402 30.3851 26.1289 30.4248C25.4382 29.6718 24.8608 29.0236 24.2635 28.3951C22.8113 26.8637 21.3337 25.355 19.8957 23.8066C19.3268 23.1923 18.6955 22.8555 17.8491 22.7564C15.6554 22.5016 13.4729 22.1676 11.2876 21.8534C10.7158 21.7713 10.1327 21.6694 9.95434 20.8485C11.18 20.6447 12.3151 20.9476 13.4616 21.0523C14.5938 21.1571 15.7318 21.2278 16.9914 21.3212C16.2526 20.472 15.5648 19.6936 14.8882 18.9038C14.1919 18.0886 13.487 17.279 12.819 16.444C12.1793 15.6429 11.1687 15.0682 11.1064 13.8454C11.7235 13.5821 12.1227 13.8793 12.4623 14.2162C13.7899 15.5296 15.0892 16.8686 16.4083 18.1905C16.8895 18.6717 17.3906 19.1331 18.0558 19.77C17.9256 18.2981 17.8152 17.0186 17.6935 15.7363C17.6538 15.3258 17.6085 14.9097 17.5151 14.5078C17.4245 14.1143 17.4359 13.8001 17.9058 13.7293C18.3134 13.6699 18.6955 13.7548 18.7918 14.2304C18.9503 15.0088 19.0946 15.7901 19.2022 16.577C19.4287 18.2443 19.624 19.9172 19.8476 21.5873C19.8674 21.7458 19.9495 21.9242 20.0599 22.0346C22.166 24.1321 24.2833 26.2183 26.5281 28.231C26.4261 27.996 26.3412 27.7554 26.2252 27.5318C25.2797 25.723 24.2805 23.9198 23.9323 21.8874C23.6634 20.3277 23.519 18.7397 23.4681 17.1573C23.4398 16.3562 23.737 15.541 23.8814 14.754C24.5296 14.4087 25.1212 14.4964 25.6619 14.7172C26.7149 15.1503 27.8047 15.5466 28.7586 16.1496C30.6326 17.3328 32.3763 18.7142 33.769 20.4607C34.4313 21.2901 34.9352 22.2497 35.5636 23.2348C35.6146 23.0197 35.6967 22.8498 35.691 22.6856C35.6344 20.9617 35.6712 19.2322 35.2692 17.5338C35.1305 16.9478 34.8729 16.5062 34.4512 16.059C33.217 14.754 32.0705 13.3642 30.8845 12.0139C30.3382 11.3912 29.7635 10.7939 29.2314 10.1598C29.0134 9.90222 28.8209 9.59651 28.7077 9.27947C28.5294 8.77844 28.8379 8.43309 29.3474 8.57463C29.6616 8.66238 29.9815 8.86053 30.2164 9.09265C31.7479 10.5901 33.2538 12.113 34.7739 13.6246C34.8616 13.7123 34.9692 13.7803 35.2721 14.0124C35.006 9.46064 34.5021 5.13534 34.1992 0.815698C35.1815 0.603396 35.2806 0.648687 35.6174 1.29975C36.5317 3.07459 37.4262 4.86359 38.3858 6.61579C38.7821 7.34045 39.2916 8.00849 39.804 8.65955C40.5088 9.55688 41.2392 10.4316 42.0006 11.2836C43.7472 13.2396 46.0768 13.9558 48.5707 14.2077C50.4276 14.3945 52.2959 14.4823 54.1613 14.5134C54.8265 14.5247 55.6248 14.4144 56.1258 14.0407C56.5815 13.7038 57.0203 13.517 57.5213 13.4463C59.1376 13.2198 60.7087 12.8518 62.3476 11.9545C62.2599 12.5065 62.308 12.9537 62.124 13.2566C60.9917 15.1107 60.3605 17.163 59.6981 19.2011C59.3499 20.2767 59.1433 21.4033 58.9367 22.5215C58.7187 23.7104 58.5941 24.9134 58.3988 26.1051C58.2233 27.1864 58.2715 28.2338 58.6508 29.2727C58.8036 29.6888 58.8291 30.1558 58.9933 30.5663C59.6217 32.126 60.4737 33.5187 62.0448 34.3198C62.1976 34.3962 62.359 34.4642 62.492 34.5661C63.7149 35.5002 65.1161 36.0946 66.5173 36.6862C66.7069 36.7655 66.8937 36.8618 67.0692 36.9722C69.147 38.2601 71.42 38.6224 73.8176 38.4526C74.2083 38.4243 74.7461 38.3281 74.8735 38.8517C75.0122 39.4264 74.514 39.6189 74.0695 39.7349C72.6004 40.1171 71.0917 40.3831 69.6565 40.8672C66.0672 42.0816 62.9732 44.0347 60.904 47.3212C60.5615 47.8675 60.3435 48.5101 60.1652 49.1356C59.6302 50.9954 59.1688 52.892 59.2056 54.831C59.248 56.9795 59.7094 59.077 60.5445 61.0698C61.0399 62.2474 61.606 63.3967 62.141 64.5601C62.1976 64.6846 62.2684 64.8064 62.3193 64.9337C62.475 65.3187 62.6845 65.7122 62.3024 66.083C62.0136 66.3604 61.5664 66.2302 61.0116 65.8849C60.4624 65.5423 59.8765 65.2168 59.2622 65.03C58.0733 64.6705 56.8533 64.4016 55.6389 64.1298C55.2086 64.0336 54.7416 63.9543 54.3113 64.0138C52.3638 64.294 50.405 64.5346 48.4886 64.9649C46.8439 65.3329 45.505 66.3632 44.1803 67.388C42.4054 68.7608 41.1486 70.598 39.6879 72.2539C39.4841 72.4832 39.4247 72.8625 39.3568 73.1852C39.2322 73.7768 38.9774 74.2665 38.3066 74.6996L38.3037 74.711ZM36.9082 19.8323C37.2196 19.8323 37.4234 19.838 37.6272 19.8323C38.0433 19.8181 38.4594 19.8125 38.8699 19.7729C42.0261 19.4813 45.021 20.0871 47.7611 21.6468C48.6273 22.1393 49.8388 22.5356 49.819 23.9425C49.819 24.0953 50.0794 24.2482 50.2096 24.4095C51.0136 25.4031 51.8458 26.374 52.6072 27.3987C53.1196 28.0923 53.5895 28.8311 53.966 29.6039C54.2887 30.2606 54.4047 31.0164 54.6991 31.6929C55.7691 34.1556 56.4994 36.7032 56.658 39.3867C56.7627 41.1474 56.7938 42.9194 56.1909 44.6207C55.7889 45.7586 55.3417 46.8796 54.9312 48.0147C54.4302 49.3961 53.7084 50.6614 52.7601 51.7682C50.7729 54.0837 48.5933 56.1954 45.9381 57.7579C45.8504 57.8089 45.7796 57.8853 45.6126 58.024C45.9155 58.9157 46.224 59.813 46.5524 60.7811C46.3061 61.5681 45.6466 61.6728 44.8455 61.5907C43.5745 61.4633 42.4082 61.7803 41.5817 62.7881C40.7183 63.8411 40.1522 65.0838 39.8465 66.4085C39.5889 67.5125 39.4388 68.6448 39.2605 69.7657C39.2294 69.9667 39.286 70.179 39.3115 70.5074C41.61 67.1445 44.4945 64.7554 48.1489 63.3627C51.792 61.9757 55.5115 61.4577 59.3443 62.7626C58.8716 60.8009 58.3705 58.9695 58.0025 57.1097C57.7987 56.068 57.6968 54.9754 57.7648 53.9223C57.8497 52.5863 58.1044 51.253 58.3818 49.9367C58.6762 48.5497 59.0924 47.1881 59.9359 46.0134C61.5947 43.6979 63.6045 41.79 66.2483 40.6181C66.8088 40.369 67.3495 40.0689 68.0034 39.7377C67.5901 39.4858 67.3183 39.2792 67.0155 39.1405C65.9143 38.6423 64.782 38.2035 63.6979 37.6713C62.8685 37.2637 62.0023 36.8561 61.3031 36.2673C58.9848 34.3255 57.8016 31.6929 57.0118 28.8481C56.6863 27.679 56.9382 26.5241 57.0118 25.3522C57.1675 22.9432 57.7336 20.6532 58.6791 18.4396C59.2027 17.2111 59.6443 15.9458 60.1907 14.5219C58.8716 14.9805 57.7138 15.3909 56.5476 15.7844C55.9956 15.9712 55.4436 16.2175 54.8746 16.2826C51.4665 16.6732 48.1064 16.3166 44.8172 15.3881C44.0387 15.1673 43.2716 14.7512 42.6205 14.2615C41.4911 13.4095 40.4579 12.4329 39.3851 11.5072C38.5868 10.8194 37.998 9.97582 37.5281 9.03603C37.1035 8.18682 36.6336 7.35743 36.1099 6.38367C36.3789 10.9354 36.6365 15.3258 36.9025 19.8323H36.9082ZM44.1519 56.8493C44.2227 56.8295 44.2935 56.8068 44.3643 56.787C44.3841 56.4926 44.4039 56.1982 44.4265 55.9038C44.6332 53.2713 45.8843 51.1284 47.5743 49.1951C47.7299 49.0168 47.9649 48.9148 48.163 48.7733C49.8671 47.542 51.5684 46.3106 53.3602 45.017C53.1252 44.8273 52.8988 44.5584 52.6101 44.4282C51.1353 43.7517 49.6407 43.1232 48.1602 42.458C46.6175 41.7617 45.0464 41.1163 43.5603 40.3124C41.4685 39.1829 39.6653 37.6855 38.4396 35.5908C38.3972 35.52 38.3037 35.4804 38.1197 35.336C38.1197 36.9353 38.066 38.4186 38.1367 39.8934C38.1933 41.02 38.332 42.1552 38.5755 43.2563C38.9123 44.7707 39.3794 46.2568 39.7983 47.7543C40.6504 50.8114 42.1365 53.5798 43.699 56.3143C43.8123 56.5153 43.9991 56.6766 44.1519 56.8549V56.8493ZM51.8741 42.71C51.6844 42.0476 51.6023 41.6456 51.4551 41.2663C50.9286 39.8906 50.7729 38.4526 50.8182 37.0005C50.8352 36.4343 50.9937 35.837 51.2259 35.3162C51.5429 34.6029 51.993 33.9518 52.3893 33.2696C51.2032 32.8139 50.0483 32.3751 48.899 31.9222C47.8092 31.4919 46.7392 30.9994 45.6352 30.6116C42.7253 29.5869 40.0814 28.1602 38.0037 25.8164C37.831 25.6211 37.6159 25.4597 37.4828 25.3437C37.5819 27.1864 37.6612 29.0405 37.7942 30.8946C37.8452 31.608 37.8169 32.4402 38.1707 32.995C39.0369 34.3538 39.9427 35.6898 41.2165 36.7627C43.0933 38.3422 45.2644 39.3952 47.3959 40.5275C48.7915 41.2691 50.2379 41.9202 51.8769 42.7156L51.8741 42.71ZM34.6974 36.8306L34.8333 36.7344C34.7088 36.4683 34.5927 36.1937 34.454 35.9333C33.2906 33.7338 32.1045 31.5457 30.9609 29.3349C29.6135 26.725 28.2944 24.101 26.9781 21.4741C26.7234 20.9674 26.3497 20.4692 26.545 19.8493C27.0942 19.6341 27.2584 19.9993 27.4424 20.3362C28.3199 21.944 29.2059 23.549 30.0777 25.1597C32.1357 28.9613 34.1879 32.7629 36.2458 36.5645C36.3449 36.7485 36.4808 36.9155 36.6025 37.0882C36.6591 36.5589 36.5912 36.0861 36.5345 35.6106C36.209 32.9101 35.9175 30.204 35.5353 27.5091C35.4334 26.7901 35.0569 26.1051 34.7993 25.4088C34.621 24.9247 34.4653 24.4293 34.2304 23.9736C32.6452 20.8655 29.9815 18.8387 27.1366 17.0243C26.5196 16.6308 25.7751 16.4411 25.0221 16.1298C24.9372 16.5204 24.8438 16.7497 24.8438 16.979C24.8381 18.3292 24.7306 19.6936 24.8891 21.024C25.3363 24.7181 26.8847 27.9847 29.1747 30.8748C30.3297 32.3298 31.6827 33.6263 32.9452 34.9963C33.2255 35.302 33.4972 35.6162 33.7859 35.9163C34.0832 36.2277 34.3946 36.5277 34.6974 36.8334V36.8306ZM29.0813 60.0678C28.535 59.2978 28.4416 58.9865 28.6681 58.3892C29.0191 57.4522 29.3672 56.5096 29.8117 55.6123C31.5752 52.0484 33.3812 48.5044 35.1617 44.949C35.4249 44.4254 35.6344 43.8734 35.8608 43.3327C36.1694 42.5911 36.4666 41.8466 36.8233 40.9634C36.6676 40.9096 36.4157 40.8247 36.1637 40.737C36.1949 41.0031 36.2232 41.2691 36.2543 41.5324C36.1892 41.4616 36.1213 41.3909 36.0562 41.3229C35.4391 42.0617 34.8333 42.809 34.1992 43.5337C33.5199 44.315 32.798 45.0623 32.1215 45.8464C31.4704 46.6022 30.8194 47.3665 30.2334 48.1732C29.6446 48.98 29.1464 49.8518 28.5916 50.684C27.632 52.1277 26.6837 53.5912 26.3214 55.3094C25.9647 56.9936 25.6873 58.6977 25.4722 60.4075C25.359 61.3105 25.4524 62.2389 25.4524 63.3712C26.5394 62.7315 27.4537 62.2587 28.2916 61.6756C29.1408 61.0868 29.9107 60.382 30.7231 59.7366C32.1357 58.61 33.4887 57.4324 34.3068 55.7708C34.7654 54.8423 35.2211 53.9139 35.6655 52.9797C37.0894 49.999 37.3951 46.8739 36.8006 43.5082C36.6874 43.797 36.5883 43.9753 36.5515 44.1621C36.1241 46.3644 35.1418 48.3374 34.1115 50.3019C32.6027 53.1779 31.1676 56.0963 29.6984 58.9949C29.5314 59.3205 29.3333 59.6319 29.0842 60.0649L29.0813 60.0678ZM32.8971 37.4194C31.2893 35.4662 29.4918 33.8329 27.2669 32.6978C25.5543 31.8203 23.7228 31.3532 21.8659 30.9343C19.3268 30.3625 16.7791 29.9294 14.1664 30.0228C13.8069 30.0369 13.4502 30.1162 13.0171 30.1785C13.7305 31.9279 14.741 33.3319 15.8309 34.6736C17.2604 36.4343 19.0833 37.643 21.2658 38.3224C23.6974 39.0782 26.2054 39.2367 28.719 39.3698C29.7182 39.4235 30.7203 39.4688 31.7224 39.4773C32.3366 39.483 32.9509 39.415 33.5652 39.3811C33.2226 39.1291 32.8688 39.0272 32.5178 38.9225C30.8958 38.4413 29.2682 37.9827 27.6547 37.4732C24.5919 36.5051 21.5319 35.5228 18.6644 34.0311C18.1237 33.7508 17.6935 33.5045 17.8208 32.7884C18.4945 32.4544 19.1201 32.7629 19.6891 33.0347C22.1575 34.2066 24.7023 35.1803 27.281 36.0833C29.1125 36.7259 31.0005 37.091 32.8999 37.4251L32.8971 37.4194ZM14.09 51.8729C15.5251 51.7682 16.8018 51.737 18.0643 51.5757C21.9706 51.0803 25.4354 49.5461 28.4501 47.0098C29.5597 46.0757 30.6694 45.1387 31.7648 44.1904C32.5857 43.4799 33.3868 42.7496 34.1964 42.0278L34.0662 41.8409C29.4578 44.0687 24.8494 46.2965 20.2439 48.5242C19.6806 47.4542 19.6891 47.358 20.6402 46.8683C21.931 46.2059 23.2331 45.5605 24.5466 44.9462C27.2414 43.6922 29.9475 42.4637 32.6452 41.221C32.9339 41.088 33.2057 40.9238 33.4831 40.7738C32.5971 40.7426 31.7818 40.8587 30.9637 40.9464C28.7586 41.1786 26.6101 41.6088 24.5381 42.4524C21.7951 43.5677 19.5193 45.351 17.3651 47.3098C16.0064 48.5469 14.9222 50.0132 14.0872 51.8786L14.09 51.8729ZM47.9139 23.0112C44.452 21.007 40.7806 20.7042 36.9988 20.9957C36.812 22.0119 37.0243 22.8272 37.5847 23.5348C38.0122 24.0727 38.4226 24.6671 38.9689 25.0549C40.2852 25.9947 41.6468 26.8807 43.0451 27.6875C43.8547 28.1545 44.7775 28.4263 45.7428 28.8254C44.953 25.7173 45.4003 24.7492 47.9139 23.0112ZM38.5953 47.0975L38.3688 47.1287C38.4481 48.1562 38.5727 49.1838 38.5953 50.2113C38.6349 51.8701 38.5811 53.5317 38.6123 55.1933C38.6604 57.9561 38.7397 60.716 38.8218 63.4788C38.8331 63.8185 38.9293 64.1525 39.0312 64.7413C39.6228 63.7647 40.0984 62.9862 40.5711 62.205C41.1486 61.2538 41.9383 60.566 43.031 60.2772C43.5235 60.147 44.0274 60.0565 44.5822 59.9347C43.3282 57.874 41.9808 55.918 40.9051 53.8204C39.821 51.7116 39.0029 49.464 38.5953 47.0947V47.0975Z" fill="#FCFCEE"></path>
</g>
</g>
<defs>
<clipPath id="clip0_1749_13135">
<rect width="74" height="74" fill="white" transform="translate(0.163116 0.619019)"></rect>
</clipPath>
<clipPath id="clip1_1749_13135">
<rect width="74.9171" height="74" fill="white" transform="translate(-0.0238571 0.710938)"></rect>
</clipPath>
</defs>
</svg>