<svg width="313" height="376" viewBox="0 0 313 376" fill="none" xmlns="http://www.w3.org/2000/svg">
<path d="M299.939 128.264C299.141 128.188 298.141 128.139 297.357 128.312C289.712 130 286.508 143.763 285.272 150.243L284.383 155.591C284.175 156.969 284.001 158.484 283.488 159.782C283.259 160.359 282.889 160.889 282.558 161.413L279.589 156.589L274.656 147.588C273.267 145.253 271.677 143.009 270.015 140.861C268.514 138.92 266.887 137.054 265.189 135.283C262.207 132.171 259.096 129.446 254.643 128.91C252.745 128.682 250.972 129.208 249.467 130.385C246.26 132.896 244.642 137.711 244.181 141.616C243.705 145.641 244.369 149.747 245.654 153.562C249.422 164.736 257.876 173.44 265.186 182.384L270.046 188.564C271.092 190.036 271.985 191.619 273.1 193.04C270.534 192.662 268.012 192.036 265.474 191.506L252.718 188.933C244.157 187.3 235.148 186.451 226.933 189.999C222.862 191.757 217.507 195.14 215.836 199.452C214.892 201.887 215.118 204.759 216.183 207.114C217.303 209.592 219.369 211.742 221.951 212.685C224.2 213.507 226.569 213.611 228.933 213.372C231.873 213.075 234.789 212.274 237.657 211.594L248.419 209.348L257.173 208.174C259.931 207.89 263.209 208.404 265.756 207.224C263.385 210.466 260.215 213.211 257.41 216.071C255.372 218.148 253.478 220.454 251.809 222.837C250.513 224.688 249.305 226.699 248.628 228.865C247.982 230.933 248.08 232.473 249.063 234.382L253.05 226.499C255.424 222.074 258.731 218.496 262.366 215.082L266.719 211.186C268.274 209.816 269.735 208.509 271.661 207.666C273.245 206.974 274.769 207.2 276.329 207.809C275.006 209.914 273.432 211.612 271.834 213.494C270.223 215.391 269.026 217.49 267.936 219.716C265.09 225.53 263.845 231.405 263.278 237.816C263.095 239.886 262.856 241.985 263.04 244.065C263.138 245.174 263.481 246.581 264.372 247.332C265.565 244.853 265.304 241.793 265.483 239.091C265.683 236.063 265.863 232.997 266.458 230.016C267.288 225.859 269.058 221.654 271.415 218.135C273.547 214.955 276.12 211.98 278.486 208.973C279.316 210.028 280.108 211.227 280.035 212.634C279.914 214.953 278.588 217.351 277.828 219.526C275.679 225.674 275.402 232.274 276.307 238.685C276.653 241.13 277.27 245.02 279.39 246.543C280.042 247.012 280.934 246.769 281.67 246.66C280.748 244.995 279.865 243.307 279.243 241.505C277.332 235.964 277.612 230.105 278.518 224.409C279.01 221.316 279.747 217.964 281.134 215.138C281.645 214.099 282.431 212.772 283.586 212.386L283.664 212.36C286.07 211.563 286.898 214.992 287.694 216.571C288.029 217.237 288.482 217.895 289.037 218.397C291.726 220.829 295.806 219.751 298.549 222.163C299.783 223.249 300.753 224.744 301.716 226.066L305.252 230.947C306.516 232.745 307.923 235.137 309.982 236.107L310.112 236.17C310.548 236.365 311.555 236.485 312.002 236.318L312.067 236.067C311.728 235.435 311.165 234.868 310.71 234.312L308.821 231.84L303.832 224.394L301.277 220.55C300.986 220.067 300.329 218.982 300.487 218.398C300.967 216.636 302.034 214.865 302.295 213.086C302.433 212.147 302.15 211.192 301.682 210.382C300.884 208.999 299.582 207.863 298.106 207.249C296.821 206.713 294.542 206.323 293.704 205.162C292.885 204.027 294.955 201.316 295.628 200.345C297.931 197.027 299.755 193.528 301.515 189.896C306.357 179.9 309.991 169.022 311.977 158.081C312.327 156.148 312.539 154.195 312.731 152.242C313.322 146.223 313.204 139.238 309.613 134.083C307.347 130.831 303.781 128.959 299.939 128.264Z" fill="black"/>
<path d="M284.246 201.431L283.296 201.497C282.444 201.639 281.555 202.162 281.058 202.872C280.737 203.329 280.607 203.871 280.727 204.42C281.1 206.121 283.717 208.27 285.143 209.138L285.201 209.162C285.932 209.449 286.616 209.655 287.372 209.282C287.73 209.105 288.118 208.675 288.25 208.297L288.46 207.637C288.751 206.274 288.377 204.514 287.623 203.367C286.85 202.19 285.561 201.714 284.246 201.431Z" fill="#F3E7CF"/>
<path d="M272.463 196.343C272.18 196.317 271.926 196.351 271.666 196.464C271.195 196.669 270.811 197.177 270.527 197.59C269.412 199.213 268.738 201.144 268.022 202.964L274.389 202.993C275.199 202.984 276.184 202.934 276.941 202.619C277.966 202.193 278.596 200.999 278.999 200.029C278.335 199.42 277.493 198.959 276.726 198.493C275.377 197.673 273.963 196.845 272.463 196.343Z" fill="#F3E7CF"/>
<path d="M295.409 208.662C294.336 208.632 293.212 208.729 292.229 209.205C291.253 209.677 290.423 210.51 290.067 211.543C289.614 212.862 289.622 214.418 290.245 215.674C290.726 216.646 291.876 216.973 292.834 217.295C293.748 217.56 295.151 217.98 296.08 217.643L296.183 217.602L296.419 217.504C297.375 217.02 297.861 215.701 298.126 214.732C298.509 213.335 298.473 211.651 297.726 210.374C297.159 209.404 296.473 208.94 295.409 208.662Z" fill="#F3E7CF"/>
<path d="M229.648 192.513C227.443 192.936 225.28 193.921 223.429 195.177C221 196.825 218.836 199.107 218.286 202.087C217.894 204.214 218.388 206.065 219.601 207.824C220.03 208.272 220.472 208.704 221.019 209.004C221.767 209.415 222.716 209.704 223.56 209.431L223.669 209.394L223.898 209.319C224.005 209.276 224.104 209.221 224.198 209.152C225.347 208.304 225.3 206.211 225.436 204.89C225.692 202.417 226.189 199.86 227.219 197.585C227.995 195.873 228.955 194.265 229.648 192.513Z" fill="#F3E7CF"/>
<path d="M260.195 193.125C260.098 193.078 259.777 193.096 259.658 193.091C258.871 193.059 258.162 193.029 257.55 193.611C256.944 194.188 256.523 195.088 256.183 195.841C254.849 198.794 254.51 201.722 254.413 204.926C256.751 204.922 259.115 204.549 261.409 204.138C262.379 203.904 263.329 203.597 264.202 203.107C266.414 201.867 267.602 197.882 268.248 195.532C265.632 194.067 263.17 193.46 260.195 193.125Z" fill="#F3E7CF"/>
<path d="M248.088 190.83L247.7 190.783C247.132 190.767 246.906 190.874 246.509 191.275C245.825 191.969 245.338 193.224 244.929 194.102C243.619 196.913 242.261 199.934 241.653 202.992C241.395 204.288 241.395 205.539 241.409 206.853L246.4 206.292C247.788 206.169 249.764 206.094 251.021 205.513C251.231 205.267 251.421 205.031 251.532 204.724C252.045 203.301 252.216 201.618 252.519 200.131L254.084 192.646C252.373 191.398 250.142 191.119 248.088 190.83Z" fill="#F3E7CF"/>
<path d="M241.748 190.124L240.56 190.089C237.944 190.053 235.582 189.833 233.57 191.832C232.577 192.819 231.801 194.125 231.114 195.335C228.365 200.183 227.531 204.93 227.537 210.445L229.073 210.14L234.098 209.167C235.211 208.953 236.704 208.826 237.657 208.199C238.061 207.933 238.308 207.511 238.455 207.058C238.867 205.788 238.957 204.325 239.208 203.007C239.677 200.534 240.281 198.077 240.992 195.663C241.542 193.791 242.142 191.779 243.312 190.19L241.748 190.124Z" fill="#F3E7CF"/>
<path d="M299.277 130.559C298.795 130.483 298.263 130.476 297.777 130.517C296.169 130.653 294.753 131.947 293.75 133.122C290.344 137.109 289.332 142.925 288.365 147.914L286.42 158.1C286.007 160.959 285.725 163.934 285.778 166.824C285.897 173.202 287.207 179.357 288.678 185.535L290.922 195.426C291.289 197.239 291.704 199.07 291.864 200.916C292.447 199.727 293.182 198.688 293.962 197.623C298.664 191.531 301.529 183.864 303.991 176.643C305.999 170.753 307.772 164.828 309.003 158.722L310.078 151.945C310.745 146.75 311.096 140.85 308.048 136.293C305.982 133.203 302.902 131.287 299.277 130.559Z" fill="#F3E7CF"/>
<path d="M255.644 131.893C255.3 131.843 254.874 131.872 254.523 131.903C252.49 132.081 250.65 133.45 249.373 134.962C246.665 138.171 246.083 142.627 246.413 146.678C246.769 151.044 248.496 155.113 250.636 158.879C252.731 162.569 255.434 165.96 258.089 169.259L264.359 177.138L272.69 187.599C275.449 191.044 278.038 194.507 281.431 197.375C282.351 198.055 283.381 198.856 284.502 199.146C285.31 199.355 286.748 199.569 287.489 199.102C288.049 198.748 288.586 198.107 288.704 197.438C289.111 195.137 288.061 192.329 287.678 190.052C284.803 172.945 278.279 156.048 268.102 141.93C265.125 137.801 260.956 132.751 255.644 131.893Z" fill="#F3E7CF"/>
<path d="M199.821 204.46C170.737 204.46 169.243 223.911 158.743 244.123C152.357 256.419 146.191 273.101 144.073 286.619C141.663 302.002 130.313 316.861 128.367 331.948C93.3736 390.553 32.2901 371.82 16.527 357.446C-2.29215 340.284 4.10027 309.188 4.10027 287.249C4.10027 270.724 4.93733 263.495 -6.6005 250.104C-19.9134 234.653 -39.179 226.14 -58.0332 217.996C-87.1608 205.414 -121.303 209.628 -138.116 178.963C-152.354 152.995 -130.277 122.434 -144.33 96.8041C-157.472 72.8348 -193.679 46.8992 -200.987 40.703C-208.294 34.5068 -269.849 12.1927 -269.849 12.1927C-269.849 12.1927 -297.697 4.35201 -329.585 3.20294C-361.473 2.05388 -384.657 14.4918 -384.657 14.4918L-456 53.3736" stroke="black" stroke-width="6.25592" stroke-linecap="round" stroke-dasharray="22.53 45.06"/>
</svg>
