<svg width="75" height="75" viewBox="0 0 75 75" fill="none" xmlns="http://www.w3.org/2000/svg">
<g clip-path="url(#clip0_1749_13138)">
<g clip-path="url(#clip1_1749_13138)">
<path d="M6.7675 49.0846C7.04413 50.0168 7.33592 50.9414 7.59739 51.8774C8.42728 54.8294 9.69673 57.5616 11.5687 60.002C13.3156 62.2756 15.4605 64.0491 18.1017 65.1859C19.5606 65.8149 21.0347 66.4061 22.5012 67.0162C23.4183 67.3989 24.3808 67.5202 25.3585 67.5581C25.7488 67.5732 26.1429 67.5808 26.5332 67.5543C26.9993 67.5202 27.3972 67.6831 27.7837 67.9105C28.1399 68.1189 28.2081 68.4221 27.886 68.6608C27.5828 68.8844 27.2077 69.0511 26.8401 69.1345C25.7715 69.3694 24.7067 69.2406 23.6418 69.017C21.5046 68.5699 19.3977 68.0242 17.4234 67.0844C13.8158 65.3716 11.1519 62.6583 9.12074 59.2479C7.54055 56.5953 6.69551 53.7077 6.09678 50.7216C5.94899 49.9827 5.80878 49.24 5.69888 48.4935C5.65341 48.1789 5.50183 47.9667 5.30099 47.7394C4.70226 47.0611 4.08459 46.3941 3.5768 45.6552C3.22439 45.1436 3.05765 44.5032 2.78102 43.9348C1.89809 42.1121 1.35999 40.1794 1.12125 38.1862C0.909045 36.4241 0.564207 34.6658 0.647574 32.8696C0.730942 31.0318 0.867361 29.2128 1.59114 27.4886C1.69725 27.2385 1.72377 26.9051 1.66314 26.6398C1.12125 24.2979 1.16294 21.9409 1.36378 19.5687C1.54188 17.4656 1.86777 15.4004 2.59155 13.4109C3.33428 11.376 4.35743 9.48885 5.58141 7.70782C5.7292 7.49182 5.92625 7.29477 6.13467 7.13561C6.39235 6.94235 6.4113 6.96509 6.79782 7.32887C5.44499 9.90569 4.53553 12.653 3.73596 15.4572C3.26607 17.098 3.01218 18.7388 2.98944 20.4327C2.97807 21.3119 2.88334 22.1872 2.86439 23.0664C2.85302 23.5022 2.86439 23.9531 2.97428 24.3737C3.24712 25.4613 3.53512 26.5489 3.90269 27.6061C4.09975 28.1745 4.45595 28.6937 4.78184 29.2053C4.88795 29.3682 5.12289 29.5122 5.31994 29.5425C5.9452 29.6448 6.57424 29.7168 7.20708 29.7471C7.76791 29.7737 8.24538 29.516 8.68117 29.1749C9.86726 28.2503 10.7237 27.0794 11.2845 25.6887C11.8719 24.2373 12.4213 22.7708 13.0693 21.346C13.6453 20.0765 14.3388 18.8639 14.9678 17.621C15.3885 16.7911 15.7863 15.9536 16.1956 15.1199C16.3472 14.813 16.567 14.6159 16.9308 14.597C17.3173 14.5781 17.5068 14.7334 17.4272 15.1124C17.34 15.5406 17.196 15.9612 17.0369 16.3705C16.351 18.1629 15.9796 20.0273 15.8015 21.9333C15.6765 23.2824 15.9645 24.567 16.4684 25.7986C16.9611 27.0036 17.9122 27.4621 19.1438 27.0263C19.9168 26.7497 20.6747 26.3594 21.3492 25.8933C24.5361 23.6765 27.3896 21.0769 29.9967 18.2045C31.4367 16.6206 32.4295 14.7865 32.9525 12.6985C33.1116 12.0657 33.4527 11.8459 33.9908 11.9558C34.2901 12.0164 34.4455 12.1642 34.4114 12.5166C34.3205 13.4374 34.1689 14.3658 34.2181 15.2791C34.3318 17.4163 34.6956 19.5043 35.8779 21.3573C36.5752 22.4525 37.4733 23.2748 38.792 23.5211C40.0122 23.7485 41.1945 23.7257 42.1646 22.8011C42.9983 22.0129 43.8281 21.2171 44.6239 20.391C45.4462 19.5384 45.6925 18.4546 45.8138 17.3102C45.973 15.7831 46.189 14.2597 46.4012 12.7364C46.4845 12.1339 46.6664 11.9823 47.178 11.9406C47.6592 11.9027 47.8601 12.0657 47.8601 12.5507C47.8563 13.896 47.7881 15.245 47.8298 16.5902C47.8639 17.7081 47.9548 18.8336 48.1254 19.9401C48.3868 21.6643 49.3152 23.0323 50.6567 24.1085C51.5851 24.855 52.7257 24.9649 53.8019 24.6958C56.1097 24.1161 58.1029 22.9716 59.5391 20.9973C60.4372 19.7658 60.7366 18.3372 60.8957 16.8669C61.07 15.2639 61.2216 13.661 61.3846 12.0581C61.4376 11.5351 61.9568 11.1562 62.4532 11.2926C62.7336 11.3684 62.9117 11.5389 62.8776 11.8724C62.8094 12.5772 62.7829 13.2859 62.6957 13.9869C62.5138 15.4383 62.3547 16.8972 62.097 18.3372C61.7218 20.4176 60.7858 22.2138 59.1526 23.6083C59.0124 23.7295 58.8949 23.8773 58.7206 24.063C59.6528 24.4306 60.5585 24.6011 61.4604 24.7754C63.2111 25.1127 64.9921 25.2984 66.6822 25.9085C67.315 26.1396 67.891 26.4124 68.2738 27.0112C68.3647 27.1552 68.6338 27.2499 68.827 27.2613C71.131 27.4015 72.9575 28.7771 73.6889 30.9636C73.9579 31.7745 74.3103 32.5779 74.4278 33.4153C74.8712 36.6136 74.6476 39.7512 73.3137 42.7487C72.9461 43.5748 72.5899 44.4085 72.2186 45.2308C71.6577 46.4661 70.9074 47.5764 69.9373 48.5351C69.4523 49.0164 68.9748 49.5128 68.5201 50.0244C67.5575 51.1044 66.379 51.8812 65.0906 52.5027C64.3403 52.8627 63.5786 53.1961 62.817 53.5258C62.313 53.7418 62.1311 53.6736 61.8393 53.2189C61.7749 53.1166 61.7105 53.0105 61.6536 52.9044C61.3997 52.4042 61.449 52.2185 61.9416 51.9646C62.3774 51.741 62.8246 51.5402 63.2641 51.3279C64.958 50.517 66.5155 49.5356 67.7129 48.0463C68.1411 47.512 68.6413 47.0383 69.1074 46.5343C70.3352 45.2118 70.9226 43.5369 71.6501 41.934C72.6998 39.6186 72.9007 37.1706 72.7832 34.6848C72.7188 33.3547 72.3019 32.0587 71.6842 30.9105C71.1082 29.8381 69.9942 29.281 68.7474 29.2583C68.0767 29.2469 67.3832 29.3834 66.7315 29.5577C65.0376 30.0124 63.6203 30.9598 62.3926 32.1951C61.9075 32.6802 61.4452 33.1842 60.9753 33.6806C59.8157 34.9121 59.2852 36.4696 58.7737 38.0271C58.6334 38.4553 58.7017 38.9517 58.6183 39.4064C58.5122 39.9824 58.4061 40.566 58.2052 41.1116C57.7316 42.3925 57.3375 43.7074 56.6895 44.92C56.1741 45.8863 55.5109 46.7768 54.6621 47.4059C53.8777 47.9857 52.8925 48.3646 51.9451 48.6412C50.0883 49.1831 48.1746 49.1604 46.2685 48.9065C45.7115 48.8345 45.162 48.7208 44.6125 48.6071C43.5022 48.3722 42.4526 47.9933 41.4901 47.3794C40.1297 46.5154 38.773 45.64 37.405 44.7874C36.0143 43.9234 34.6085 43.0821 33.2102 42.2257C32.3765 41.7142 31.5504 41.1874 30.7129 40.6834C30.2961 40.4333 29.8717 40.1719 29.4245 39.9862C28.7765 39.7209 28.1247 39.755 27.5563 40.2022C27.1319 40.5319 26.7113 40.8767 26.3399 41.2594C24.1875 43.4876 21.7585 45.3748 19.1855 47.0838C18.1472 47.7735 17.1505 48.5351 16.0706 49.1452C15.2255 49.6227 14.2971 49.9789 13.3725 50.2859C12.8571 50.4564 12.266 50.5019 11.7203 50.4602C10.8449 50.392 9.98094 50.1949 9.10937 50.0699C8.53338 49.9865 8.04075 49.7478 7.59739 49.3802C7.39655 49.2134 7.15024 49.1036 6.92666 48.9671C6.87361 49.0012 6.82435 49.0391 6.77129 49.0732L6.7675 49.0846ZM3.09934 29.7434C2.80755 30.2208 2.79618 30.6566 2.78102 31.0886C2.76208 31.5774 2.78102 32.0663 2.75071 32.5551C2.67113 33.9724 2.62187 35.3858 2.87576 36.7955C3.03492 37.6822 3.1486 38.5765 3.27744 39.467C3.56165 41.43 4.18311 43.2565 5.36163 44.8745C6.21804 46.0493 7.40413 46.8147 8.56748 47.6295C9.60958 48.3608 10.7388 48.4139 11.9249 48.3267C13.3308 48.2206 14.5358 47.5537 15.7636 46.9474C17.4348 46.1251 18.9846 45.1095 20.4739 43.9802C22.4595 42.4683 24.4073 40.9184 26.033 39.0161C26.5483 38.4136 27.1167 38.0915 27.8784 37.9626C28.5075 37.8565 29.11 37.9096 29.667 38.1673C30.5045 38.5576 31.323 38.9971 32.1264 39.4557C34.1461 40.6001 36.1659 41.7445 38.1667 42.923C39.5764 43.7567 40.9406 44.6623 42.3465 45.5074C42.7823 45.7689 43.2635 45.9735 43.741 46.1478C45.325 46.7162 46.9772 46.8602 48.6445 46.8223C51.2744 46.7655 53.0933 44.867 53.6276 42.9533C54.2832 40.6039 54.8667 38.2468 54.6659 35.7496C54.5409 34.1694 54.6507 32.5703 54.6545 30.9787C54.6545 30.7172 54.6545 30.4596 54.6545 30.1602C52.5552 30.073 50.5582 29.9935 48.5573 29.9101C47.2159 29.8532 45.8706 29.804 44.5292 29.7396C42.6269 29.6524 40.7246 29.4933 38.8185 29.4819C36.2531 29.4667 33.6838 29.5501 31.1146 29.6145C28.6704 29.6751 26.23 29.7737 23.7858 29.8381C21.3644 29.9025 18.9429 29.9404 16.5215 29.9897C15.5666 30.0086 14.6154 30.0351 13.6605 30.0503C12.9329 30.0617 12.2015 30.02 11.474 30.0655C10.8828 30.1034 10.2348 29.9707 9.74221 30.4596C8.31359 31.8806 4.65679 31.8579 3.28881 30.0276C3.23197 29.948 3.1827 29.8646 3.09934 29.7396V29.7434ZM11.3413 28.9097C11.7279 28.9286 12.1371 28.9779 12.5464 28.9589C14.0091 28.8983 15.4756 28.8149 16.9383 28.7392C19.1817 28.6217 21.4288 28.4928 23.6722 28.3792C26.2338 28.2503 28.7955 28.1253 31.3571 28.0078C32.115 27.9737 32.8729 27.9396 33.6308 27.9396C36.4425 27.9396 39.2543 27.932 42.0661 27.9813C43.5288 28.0078 44.9915 28.1745 46.4542 28.2276C47.9207 28.2806 49.391 28.2579 50.8575 28.3072C51.9565 28.3451 53.0516 28.4436 54.1468 28.5118C54.287 28.5194 54.4272 28.4891 54.5863 28.4739C54.7303 27.663 54.4499 26.9619 54.2604 26.2192C54.071 26.2192 53.927 26.2116 53.7868 26.2192C52.5514 26.2912 51.335 26.2874 50.255 25.5409C50.1792 25.4878 50.0769 25.4613 49.9822 25.4537C48.9931 25.3704 48.0041 25.268 47.015 25.2188C45.5258 25.1468 44.0366 25.1051 42.5435 25.0672C41.6151 25.0445 40.6867 25.0899 39.7583 25.0483C38.7844 25.0028 37.8143 24.8626 36.8366 24.8019C36.128 24.7603 35.4042 24.6958 34.7108 24.8019C34.2371 24.8777 33.7748 24.999 33.2822 25.0028C30.5917 25.0141 27.9012 25.0483 25.2069 25.0558C24.8658 25.0558 24.6081 25.1544 24.3429 25.359C23.6873 25.8668 23.0204 26.3708 22.3345 26.8407C21.3833 27.4924 20.4057 28.0912 19.2461 28.3185C17.5295 28.6596 16.4154 28.1215 15.6461 26.5527C15.4756 26.204 15.3316 25.844 15.1687 25.4689C14.5396 25.4689 13.9295 25.4727 13.3232 25.4689C13.0276 25.4651 12.8306 25.5409 12.698 25.8478C12.2698 26.8558 11.8074 27.8524 11.33 28.9097H11.3413ZM33.1192 16.3136C31.4822 19.2049 28.9925 21.2702 26.6431 23.4946H36.0143C34.1992 21.3611 33.464 18.9245 33.1192 16.3136ZM53.116 46.8564C53.8588 46.6177 54.4423 46.2312 54.9653 45.64C55.6625 44.8518 56.2271 44.0068 56.5379 43.0253C56.9661 41.6763 57.3261 40.3045 57.6482 38.9251C57.8149 38.2165 57.9286 37.4776 57.9172 36.7538C57.8869 34.878 57.9855 33.0023 57.8869 31.1227C57.8149 29.7093 57.4966 28.3754 57.1177 27.0377C57.0229 26.7004 56.8751 26.3783 56.7539 26.0525C56.4318 26.1586 56.4318 26.3215 56.4469 26.5413C56.5341 27.6819 56.6478 28.8263 56.6516 29.9669C56.6591 32.2179 56.5568 34.4688 56.5796 36.7159C56.5985 38.4742 56.3711 40.1757 55.7383 41.8127C55.0562 43.5824 54.5712 45.4581 53.1122 46.8526L53.116 46.8564ZM58.3909 26.5754C58.9328 27.0945 58.857 27.7994 58.8722 28.4663C58.8911 29.4175 58.8722 30.3686 58.8381 31.3198C58.8191 31.7972 58.9783 32.1042 59.4557 32.2823C61.1875 30.3648 63.1808 28.7505 65.3483 27.1741C64.8595 27.0756 64.5108 27.0453 64.1963 26.9354C62.6616 26.3935 61.0625 26.2381 59.4595 26.0941C59.092 26.06 58.7206 26.1017 58.3909 26.5792V26.5754ZM43.6046 23.6424C45.2113 23.6878 46.7877 23.847 48.5005 23.8735C47.5418 22.5775 46.9809 21.2702 46.6588 19.8302C45.9502 21.3573 44.6921 22.3881 43.6046 23.6424ZM14.8125 24.1843V20.9443C14.1683 22.0735 13.6794 23.1384 13.2815 24.3699C13.8613 24.3017 14.3388 24.2411 14.8125 24.1843Z" fill="#FCFCEE"></path>
<path d="M31.3268 51.6121C32.1378 51.29 32.6986 51.5704 32.8009 52.4003C32.8919 53.1203 32.8767 53.8744 32.7668 54.5906C32.5774 55.8525 31.827 56.8074 30.8986 57.6525C29.6064 58.8272 27.4199 58.7249 26.1277 57.3493C25.1084 56.2655 24.4225 55.015 24.2596 53.5296C24.2065 53.0369 24.3316 52.5178 24.4225 52.0176C24.4831 51.6917 24.7673 51.5515 25.0819 51.5287C25.3358 51.5098 25.5518 51.6386 25.529 51.8963C25.4229 52.9877 25.9837 53.935 26.1581 54.9582C26.2793 55.6668 26.6924 56.0874 27.2153 56.4588C28.3256 57.247 30.0574 57.0424 30.7395 55.8866C31.2511 55.0226 31.5732 54.0146 31.4329 52.9422C31.3723 52.4913 31.3572 52.0327 31.3231 51.6045L31.3268 51.6121Z" fill="#FCFCEE"></path>
</g>
</g>
<defs>
<clipPath id="clip0_1749_13138">
<rect width="74" height="74" fill="white" transform="translate(0.593872 0.974854)"></rect>
</clipPath>
<clipPath id="clip1_1749_13138">
<rect width="74" height="62.249" fill="white" transform="translate(0.640015 7.0105)"></rect>
</clipPath>
</defs>
</svg>