<svg width="100%" height="100%" viewBox="0 0 75 75" fill="none" xmlns="http://www.w3.org/2000/svg">
<g clip-path="url(#clip0_1743_12602)">
<g clip-path="url(#clip1_1743_12602)">
<path d="M6.78308 33.8169C6.78308 33.2206 6.7666 32.6374 6.78637 32.0575C6.80285 31.5798 6.79955 31.0856 6.91157 30.6276C7.35966 28.7858 8.21629 28.1664 10.0943 28.2784C10.493 28.3015 10.8883 28.3641 11.4583 28.43C11.175 27.3197 10.9971 26.3049 10.6577 25.3494C10.124 23.8503 9.51772 22.3742 8.58201 21.0563C6.7073 18.4074 5.94951 15.3268 5.50472 12.2034C5.33009 10.9711 5.71229 9.63017 5.98904 8.37487C6.09448 7.89384 6.5821 7.46552 6.97088 7.08992C7.25423 6.81316 7.6463 6.62866 8.01202 6.45403C10.7434 5.14932 13.5505 4.15101 16.6377 4.17078C18.4498 4.18066 20.2849 4.37176 22.0608 3.82812C22.7988 3.60078 23.5435 3.36027 24.2353 3.0242C25.9387 2.20381 27.6751 1.89411 29.5267 2.41138C30.38 2.6486 31.0818 3.09339 31.6485 3.76882C32.0999 4.30915 32.5183 4.88574 33.0257 5.37006C33.4969 5.82144 34.0669 6.17398 34.594 6.56935C37.5198 4.61886 40.4752 2.95831 43.9511 2.5893C46.7319 2.29277 49.4435 2.49046 51.9112 4.00274C52.2275 4.19713 52.5669 4.34869 52.8963 4.52002C54.9391 5.59081 55.8386 7.25136 55.8221 9.58404C55.8023 12.5625 54.7216 15.162 53.2884 17.6562C52.8963 18.3382 52.9029 18.8291 53.2983 19.4782C53.7365 20.1997 54.0363 21.0036 54.435 21.8504C55.061 21.7944 55.7167 21.7054 56.3789 21.6856C59.1168 21.6033 61.7823 22.0481 64.3192 23.053C65.1561 23.3824 65.9403 23.9623 66.6058 24.5817C68.9912 26.8057 70.7473 29.5205 72.4276 32.2881C72.6385 32.6341 72.8065 33.0163 72.9416 33.3985C73.3699 34.6043 73.5808 35.8827 74.276 36.9963C74.4407 37.2599 74.5066 37.6388 74.4901 37.9551C74.4012 39.5333 74.2891 39.6387 72.6319 39.7409C72.0882 39.7738 71.5117 39.6222 70.9977 39.7474C70.0356 39.9781 69.0208 40.2087 68.184 40.6996C66.9748 41.408 65.8842 42.3305 64.7739 43.197C64.4609 43.4409 64.227 43.8033 63.9996 44.1393C62.2699 46.6961 60.751 49.3714 59.4562 52.1785C59.0839 52.9857 58.6259 53.7534 58.1679 54.5178C57.8121 55.1141 57.2586 55.3909 56.5568 55.2393C54.1846 54.7221 51.7663 54.7451 49.3644 54.5936C49.0349 54.5738 48.7087 54.5211 48.1585 54.4552C48.4913 54.7715 48.689 54.9494 48.8768 55.1372C50.2441 56.4979 51.6476 57.8257 52.9622 59.2359C53.7266 60.0563 54.234 61.0611 54.3757 62.2077C54.3988 62.3922 54.4416 62.58 54.4218 62.7579C54.267 64.033 53.7695 64.2834 52.6394 63.664C52.5109 63.5915 52.3692 63.5289 52.2605 63.4334C50.8635 62.1978 49.226 61.9079 47.4007 61.9277C44.1752 61.9606 41.1506 61.2028 38.5939 59.081C38.4324 58.9459 38.238 58.8504 38.0469 58.7285C38.0008 58.8603 37.9448 58.9327 37.958 58.9921C38.3797 61.0513 38.8838 63.1006 39.2133 65.1763C39.5065 66.9983 39.6449 68.8499 39.7734 70.695C39.8195 71.3408 39.7207 72.0524 38.9497 72.3522C38.3369 72.5928 38.0733 72.5335 37.7339 71.9734C37.5494 71.6669 37.3419 71.2848 37.3649 70.952C37.4934 69.0608 36.9597 67.275 36.5841 65.4629C36.1788 63.5091 35.767 61.5554 35.3485 59.5752H32.8511C32.4195 60.4549 31.9747 61.3478 31.5431 62.2473C31.352 62.6492 31.207 63.0709 31.0126 63.4729C30.2153 65.1433 29.0259 66.3163 27.0952 66.5634C26.2484 66.6721 25.3918 66.7512 24.5714 66.9752C23.2535 67.3344 21.962 67.7956 20.6605 68.2239C19.8533 68.4908 19.056 68.7906 18.2389 69.0377C17.7414 69.186 17.2637 69.097 16.9605 68.6226C16.6574 68.1514 16.3741 67.677 16.6937 67.0741C17.804 64.9753 18.8814 62.8568 20.3278 60.9557C21.1844 59.8289 22.2585 59.0151 23.5962 58.5506C24.6703 58.1782 25.7443 57.7928 26.9206 57.3776C26.5285 57.0086 26.2353 56.6198 25.6883 56.6989C24.4264 56.8867 23.3952 56.2146 22.298 55.8126C21.5699 55.5457 20.8681 55.1998 20.1532 54.8934C14.7036 52.5739 9.76482 49.4702 5.5146 45.3189C4.23953 44.0734 3.40926 42.5216 2.89857 40.8413C2.37141 39.1083 2.62181 37.3588 3.41255 35.7509C3.89029 34.779 4.81282 34.2419 5.87043 33.9849C6.11754 33.9256 6.36794 33.8894 6.77649 33.8169H6.78308ZM51.5719 20.035C51.193 20.4435 50.9063 20.7302 50.6427 21.0399C49.6115 22.2556 48.6692 23.5604 47.5457 24.6806C45.1438 27.0693 42.4158 29.0461 39.5889 30.9175C35.8691 33.3787 31.7803 34.9931 27.6849 36.6372C27.4082 36.7492 27.1117 36.9897 26.9832 37.2467C26.0046 39.2433 25.0788 41.2663 24.1003 43.2629C23.6687 44.1459 23.6917 45.052 23.7807 45.9811C23.807 46.2381 23.863 46.4951 23.8762 46.7521C24.0607 50.5048 25.6191 53.4569 28.9304 55.3547C31.0489 56.5671 33.3288 57.1536 35.767 56.6429C37.0684 56.3694 38.3632 55.9971 39.6086 55.5227C40.742 55.0911 41.9051 54.6067 42.8671 53.8918C44.2279 52.877 45.4403 51.6514 46.6693 50.4685C47.2261 49.9315 47.6906 49.2956 48.1651 48.6795C50.0233 46.2546 50.9821 43.3783 52.0397 40.5777C53.7431 36.0771 54.2142 31.3623 53.753 26.5981C53.5355 24.3544 52.7711 22.1996 51.5719 20.0383V20.035ZM46.5243 53.6677C47.404 53.5096 48.0399 53.3317 48.6824 53.2954C50.7548 53.1801 52.8535 52.9001 54.8996 53.101C56.5634 53.2658 57.2586 52.5409 57.8121 51.2692C57.8418 51.2 57.8615 51.1275 57.8978 51.0649C59.387 48.4126 60.8169 45.7274 62.3819 43.1213C63.8086 40.7523 66.072 39.3125 68.5101 38.1561C69.0703 37.8892 69.7193 37.8134 70.3223 37.6355C71.2646 37.3555 71.7423 36.657 71.4985 35.7081C71.281 34.858 71.0372 33.9619 70.5661 33.2436C69.1032 31.0065 67.5053 28.8715 65.6042 26.9671C64.7574 26.1204 63.8448 25.468 62.6982 25.2209C60.2469 24.6937 57.8121 24.015 55.1928 24.2885C55.229 24.5027 55.2785 24.7069 55.3015 24.9145C55.4663 26.4202 55.6771 27.9259 55.7595 29.4382C55.8056 30.2783 55.6442 31.1317 55.5552 31.9784C55.3312 34.1497 55.1401 36.311 54.5767 38.4427C53.9375 40.8611 52.8403 43.0916 51.987 45.421C51.4467 46.8937 50.7284 48.2578 49.8751 49.5757C49.0843 50.798 48.2672 51.9808 47.18 52.9594C46.9987 53.1241 46.8439 53.3152 46.5177 53.6644L46.5243 53.6677ZM21.8631 50.3466C21.8368 50.0831 21.8401 49.9414 21.8104 49.8063C20.9373 45.8394 21.4612 42.0735 23.4281 38.5152C23.5006 38.3867 23.5797 38.2549 23.6225 38.1165C24.3408 35.8761 25.3523 33.7905 26.7295 31.873C27.3258 31.0427 27.8003 30.1268 28.334 29.2405C26.7657 28.4662 25.2435 27.7216 23.7247 26.9671C22.6638 26.44 21.6061 25.9062 20.5452 25.3758C19.0527 24.6311 17.5866 23.8272 16.0578 23.1716C14.8124 22.6411 13.4978 22.249 12.002 22.371C12.1799 22.8092 12.315 23.1485 12.4566 23.4846C13.4187 25.7612 14.0579 28.0939 13.936 30.6045C13.8602 32.1992 13.9162 33.7971 13.9261 35.3951C13.9261 35.7279 13.9261 36.0672 13.9986 36.3901C14.8124 40.1198 16.0578 43.6649 18.4168 46.7422C19.4085 48.0403 20.4826 49.2462 21.8664 50.34L21.8631 50.3466ZM30.9896 6.6649C30.7359 6.21022 30.4328 5.74896 30.212 5.25145C29.9913 4.75395 29.6288 4.56944 29.128 4.41788C27.6256 3.95991 26.2913 4.38164 24.947 5.01423C23.1415 5.86757 21.2207 6.21022 19.224 6.11468C16.5718 5.98948 13.9557 6.10479 11.455 7.12946C11.2508 7.21512 11.0201 7.24477 10.8191 7.33703C9.87355 7.75546 8.92137 8.15742 8.00543 8.63516C7.75503 8.76365 7.51781 9.10631 7.4618 9.38965C7.32671 10.075 7.21469 10.7866 7.24434 11.4818C7.32671 13.63 8.1471 15.5871 8.92796 17.5474C9.17506 18.1636 9.42217 18.7599 10.1997 18.9543C10.4435 19.0136 10.6083 19.4024 10.7401 19.5638C12.1403 19.6791 13.4945 19.6627 14.786 19.9328C16.0677 20.1997 17.29 20.7565 18.5849 21.2046C19.0955 20.4995 19.6128 19.7813 20.1169 19.0861C18.6639 15.9001 19.9423 12.3714 21.9422 10.5922C23.5237 9.18867 25.293 8.12447 27.2995 7.49847C28.4856 7.12946 29.731 6.94495 30.9863 6.66819L30.9896 6.6649ZM37.4835 8.19037C38.7586 9.11948 39.4439 10.3385 40.0633 11.6103C40.1786 11.8442 40.4191 12.1012 40.6564 12.1803C42.3037 12.7206 43.7534 13.597 45.1207 14.6448C45.6578 15.0566 46.1224 14.8523 46.185 14.1868C46.2508 13.485 46.2146 12.7734 46.2904 12.0749C46.3167 11.8278 46.4848 11.4818 46.6792 11.3962C47.0581 11.2314 47.2656 11.551 47.4073 11.8838C47.941 13.1259 48.0333 14.4306 47.661 15.6892C47.1207 17.5013 46.0993 19.063 44.6002 20.2458C42.5904 21.8306 40.5345 23.3594 38.5115 24.9277C35.8164 27.0133 32.772 28.6376 30.413 31.1811C29.6717 31.9784 29.1841 32.8581 28.5515 33.9157C28.8776 33.7741 29.0127 33.7279 29.1346 33.6588C32.5282 31.7478 35.9778 29.9423 39.1869 27.7051C42.0303 25.7217 44.7353 23.5966 47.1437 21.1025C48.2771 19.9263 49.3743 18.7138 50.5044 17.5343C52.6954 15.2411 53.664 12.4867 53.6344 9.34353C53.6245 8.26944 53.1204 7.5446 52.2341 6.98119C50.1716 5.66659 47.9674 4.96151 45.4898 5.16249C42.5739 5.39972 39.8953 6.21352 37.4868 8.19366L37.4835 8.19037ZM11.4946 30.0279C11.1453 29.939 10.9707 29.8632 10.7928 29.8566C10.5358 29.8467 10.2755 29.8797 10.0185 29.9126C9.00703 30.0345 8.66438 30.3673 8.54577 31.3689C8.51611 31.6259 8.5227 31.8862 8.526 32.1465C8.53588 32.7395 8.56554 33.3359 8.56224 33.9289C8.55236 35.3951 8.29866 35.718 6.91157 36.0738C6.80285 36.1002 6.69741 36.1298 6.58869 36.1628C5.57391 36.456 4.92814 37.0754 4.76999 38.1627C4.63161 39.105 4.69421 40.0011 5.12253 40.871C5.66945 41.9879 6.38441 42.9664 7.3333 43.7736C10.572 46.5247 14.1897 48.7223 17.8007 50.9265C17.9424 51.0122 18.1137 51.055 18.2686 51.1176C15.9293 48.0799 13.9557 44.9136 12.6642 41.3059C11.3562 37.6487 11.3825 33.8861 11.4913 30.0312L11.4946 30.0279ZM36.4819 23.1848C34.7324 21.1914 31.7474 19.0169 29.5992 18.1405C29.4312 18.0713 29.2434 18.0482 29.0622 18.0186C27.7146 17.8011 26.4264 17.8407 25.2534 18.694C24.8383 18.9938 24.3309 19.1652 23.8729 19.4057C22.5254 20.1141 21.6951 21.3298 20.6704 22.5555C21.8038 23.221 22.8252 23.8108 23.84 24.4137C25.0162 25.1089 26.1891 25.814 27.3588 26.519C28.1726 27.0067 28.8085 27.8073 29.6816 27.9028C31.9945 26.3016 34.2085 24.7662 36.4852 23.188L36.4819 23.1848ZM21.5304 17.5409C22.6736 17.0401 23.6588 16.5162 24.7065 16.1669C26.7459 15.4882 28.8183 15.307 31.0126 16.2098C33.2168 14.5262 35.6418 12.9842 38.4291 12.0353C38.2841 11.7586 38.126 11.5741 38.0898 11.3665C37.8492 9.99259 36.7554 9.65323 35.6549 9.47202C34.3469 9.25457 33.0093 9.14255 31.6848 9.10301C28.2187 8.99428 25.3622 10.5132 22.8746 12.7371C21.504 13.9628 20.9439 15.5838 21.5304 17.5409ZM32.7523 16.872C34.6369 18.5392 36.4819 20.1668 38.4126 21.8734C40.4158 20.203 42.854 18.9246 44.7616 16.7633C44.1422 16.2921 43.615 15.8968 43.0912 15.4981C41.1308 14.0188 39.0683 13.6432 36.7784 14.77C35.4243 15.4355 34.024 15.9989 32.7523 16.8753V16.872Z" fill="#f3e7cf"></path>
<path d="M56.7742 15.8144C57.0872 15.597 57.3871 15.2971 57.7495 15.1587C59.1168 14.6415 59.3804 13.462 59.5748 12.2396C59.756 11.1095 59.8944 9.96952 60.0789 8.83943C60.1184 8.6022 60.2765 8.38146 60.4742 7.94984C60.8037 8.52642 61.0607 8.95145 61.2847 9.38965C61.4001 9.61699 61.4297 9.88715 61.5483 10.1112C62.6059 12.1506 62.9651 12.3516 65.5646 12.4867C66.0489 12.5131 66.6585 12.2857 66.8858 12.9842C67.0802 13.5872 66.5366 13.8211 66.2433 14.1703C66.1247 14.312 65.9929 14.457 65.8381 14.5525C64.3291 15.475 64.2368 16.8193 64.6783 18.3382C64.7838 18.694 64.8892 19.0498 64.9617 19.4123C65.0506 19.8669 64.8793 20.259 64.451 20.4073C64.0194 20.5555 63.657 20.3282 63.4329 19.9394C63.2649 19.6528 63.1199 19.3497 62.9848 19.0465C62.3028 17.5013 60.2271 16.1571 58.3162 16.6842C57.3409 16.9511 57.2651 16.8325 56.7775 15.8144H56.7742Z" fill="#f3e7cf"></path>
<path d="M1.82778 20.3249C2.16385 20.3974 2.5065 20.4699 2.85574 20.5424C3.10285 21.5637 3.21487 22.6807 4.12751 23.2078C4.93143 23.6691 5.92315 23.814 6.9577 24.1369C7.07961 24.4829 6.95111 24.8947 6.46678 25.0693C5.19831 25.5306 5.28068 26.4993 5.46518 27.5305C5.55304 28.0225 5.41905 28.5167 5.06322 29.0132C4.83918 28.7562 4.61184 28.5354 4.43393 28.2817C3.74532 27.2801 2.92493 26.5718 1.59056 26.7892C1.29074 26.8386 0.967853 26.7563 0.496704 26.7233C0.885484 25.8733 1.17213 25.1715 1.51808 24.4961C1.91344 23.7251 1.98263 22.964 1.70258 22.137C1.51149 21.5736 1.45548 20.9839 1.82449 20.3216L1.82778 20.3249ZM3.23793 24.1534C3.11273 24.4928 2.99083 24.8157 2.86892 25.1385C3.34995 25.3988 3.7585 25.6163 4.15058 25.8271C4.31861 25.4054 4.47017 25.0331 4.61843 24.6641C4.19011 24.5059 3.74862 24.3412 3.23793 24.1534Z" fill="#f3e7cf"></path>
</g>
</g>
<defs>
<clipPath id="clip0_1743_12602">
<rect width="74" height="74" fill="white" transform="translate(0.5 0.32251)"></rect>
</clipPath>
<clipPath id="clip1_1743_12602">
<rect width="74" height="70.3297" fill="white" transform="translate(0.5 2.15768)"></rect>
</clipPath>
</defs>
</svg>