<svg width="100%" height="100%" viewBox="0 0 75 75" fill="none" xmlns="http://www.w3.org/2000/svg">
<g clip-path="url(#clip0_1745_12824)">
<g clip-path="url(#clip1_1745_12824)">
<path d="M27.0783 73.9643C26.7556 74.3863 26.3974 74.319 25.9363 73.9962C25.5462 73.7267 25.039 73.6309 24.6134 73.4075C23.9396 73.0493 23.4537 72.4854 23.0494 71.847C22.1272 70.3893 21.2796 68.8962 20.8611 67.2009C20.6838 66.4845 20.5774 65.7504 20.3752 65.041C19.8822 63.3245 19.3077 61.6327 18.8502 59.9055C18.5452 58.7529 18.3785 57.5612 18.1515 56.3873C17.9103 55.1389 17.6975 53.8834 17.4173 52.6421C17.0946 51.2022 16.7399 49.7658 16.3392 48.3436C16.1583 47.7088 15.832 47.1129 15.5731 46.4994C14.7787 44.609 14.1296 42.6761 13.7324 40.6616C13.4912 39.4345 13.3245 38.1967 13.1118 36.9732C12.906 35.8099 12.9309 34.6572 12.9876 33.5117C13.0337 32.5896 13.0834 31.6142 13.6437 30.7879C13.6969 30.7063 13.7289 30.5964 13.7324 30.5006C13.7679 29.1458 14.4346 28.0605 15.222 27.0285C16.3463 25.5602 17.506 24.1167 18.6019 22.6271C19.6198 21.244 20.5596 19.8005 21.5669 18.4067C22.184 17.5555 22.8543 16.7469 23.521 15.9311C23.9608 15.3921 24.4254 14.8707 24.89 14.3564C25.0248 14.2075 25.2128 13.9947 25.3724 14.0018C25.9115 14.0231 26.1526 13.7074 26.3796 13.3031C26.4789 13.1258 26.6633 13.0016 26.7875 12.8385C27.0109 12.5441 27.3124 12.5087 27.6209 12.5938C27.9543 12.686 28.0182 12.9591 27.9791 13.2747C27.972 13.3421 28.0004 13.4166 28.004 13.4201C29.2027 13.5939 30.3589 13.7642 31.5825 13.9415C31.5825 13.2073 31.6747 12.3845 31.5612 11.5901C31.391 10.4091 31.0824 9.25287 30.6958 8.11441C30.3483 7.09299 29.8234 6.18151 29.1176 5.40835C28.3764 4.59972 27.7025 3.67405 26.6279 3.24491C25.4894 2.79095 24.3474 2.31925 23.0919 2.34762C22.6379 2.35826 22.1627 2.41856 21.7336 2.56042C20.2262 3.06049 18.7296 3.58184 17.4102 4.50396C16.2044 5.34805 15.4029 6.5007 14.9879 7.88743C14.6581 8.99042 14.541 10.1395 14.5517 11.2957C14.5552 11.9412 14.5659 12.5867 14.5517 13.2322C14.502 15.1509 14.9702 16.8852 16.403 18.3641C16.2257 18.5698 16.0554 18.772 15.9171 18.9316C14.651 18.7933 14.158 17.9101 13.7821 16.9632C13.2962 15.7396 13.0727 14.4664 13.1366 13.1329C13.1969 11.8419 13.165 10.5474 13.1472 9.25642C13.1224 7.34834 13.8494 5.72045 14.956 4.21669C15.5093 3.4648 16.1157 2.79804 16.8924 2.25541C17.9316 1.52836 19.1233 1.24817 20.3078 0.936072C20.971 0.762288 21.6733 0.709089 22.3152 0.47856C23.0352 0.219657 23.7551 0.315416 24.4574 0.368615C25.6313 0.45728 26.7875 0.684263 27.8266 1.3262C28.7558 1.90075 29.5538 2.57815 30.2525 3.43643C31.0576 4.42594 31.7492 5.458 32.2386 6.63193C32.6039 7.50794 32.8238 8.41942 33.0082 9.34508C33.3381 11.012 33.4657 12.6931 33.409 14.3884C33.4055 14.5409 33.4338 14.6934 33.4516 14.9026C34.3276 15.2998 35.1965 15.7503 36.1009 16.0978C38.2891 16.9384 40.3533 18.0343 42.4458 19.077C43.7367 19.7189 45.017 20.375 46.3045 21.0205C46.5563 21.1482 46.8116 21.2723 47.0776 21.361C47.5742 21.5277 48.0459 21.6164 48.3899 22.1554C48.663 22.5881 49.2588 22.8222 49.7128 23.1414C49.7872 23.1946 49.9114 23.2301 49.9291 23.2974C50.3086 24.6097 51.0747 25.7446 51.5605 27.0072C52.4436 29.2948 53.348 31.5752 54.2418 33.8592C54.7915 35.2673 55.3696 36.6646 55.8732 38.0904C56.313 39.3352 56.6748 40.6084 57.0507 41.8746C57.4869 43.3429 57.8806 44.8218 58.331 46.283C58.8701 48.035 59.4908 49.7658 59.9873 51.5285C60.3597 52.8442 60.5902 54.2026 60.881 55.5432C60.952 55.866 60.9839 56.1993 61.0761 56.5185C61.1328 56.703 61.2712 56.8626 61.3811 57.0292C61.5194 57.2349 61.757 57.4194 61.7996 57.6428C61.9237 58.2954 62.0053 58.9586 62.0408 59.6218C62.0691 60.1325 61.7996 60.5156 61.413 60.8738C59.661 62.4981 57.5188 63.4202 55.3519 64.2962C53.1423 65.1864 50.9186 66.0376 48.7126 66.942C47.8082 67.3109 46.9251 67.74 46.0633 68.194C44.6305 68.9494 43.1232 69.5169 41.6194 70.102C40.8782 70.3893 40.1724 70.7653 39.4347 71.0703C38.3246 71.5313 37.2181 71.9995 36.0902 72.4073C34.9163 72.8329 33.7246 73.2124 32.5259 73.56C32.118 73.6806 31.6605 73.6345 31.2314 73.6912C30.9867 73.7231 30.6781 73.7338 30.5221 73.8863C30.1213 74.2693 29.6638 74.3544 29.1637 74.2906C28.4863 74.2019 27.8124 74.0742 27.0748 73.9501L27.0783 73.9643ZM25.9895 70.8007C27.9188 72.191 29.9865 72.4428 32.1216 71.808C33.9339 71.2724 35.7001 70.5667 37.4592 69.8751C38.9169 69.3041 40.3355 68.6408 41.7719 68.0202C42.6195 67.6549 43.4849 67.3251 44.3113 66.9172C46.3577 65.8993 48.4324 64.9559 50.5817 64.1686C53.3977 63.133 56.2314 62.1328 58.863 60.6645C59.3985 60.3666 59.9057 60.0155 60.4235 59.6857C60.7108 59.5048 60.7285 59.3204 60.4696 59.0792C60.1043 58.7423 59.8703 58.3202 59.7851 57.8237C59.5972 56.7491 59.4553 55.6602 59.207 54.5998C58.7105 52.486 57.9551 50.4503 57.3096 48.3791C56.7989 46.7476 56.3059 45.1091 55.8094 43.4741C55.4334 42.2328 55.1284 40.9631 54.6887 39.7431C53.8623 37.4555 52.9544 35.1999 52.089 32.9265C51.3584 31.0149 50.6491 29.0962 49.9043 27.1881C49.5212 26.2092 49.1098 25.241 48.6594 24.2905C48.3686 23.6769 47.9607 23.2194 47.1627 23.1449C46.4641 23.0776 45.7618 22.8541 45.1589 22.4214C44.8468 22.198 44.4992 22.0171 44.1588 21.8433C43.1764 21.3433 42.1798 20.8574 41.1973 20.3573C38.8353 19.155 36.4804 17.9456 34.1183 16.7433C33.9233 16.644 33.7105 16.5731 33.3913 16.4418C33.3913 17.254 33.4232 17.9492 33.3806 18.6407C33.3593 19.0096 33.487 19.2011 33.7849 19.3855C34.402 19.7721 34.8418 20.3147 35.2107 20.9602C35.8313 22.0526 36.1363 23.184 35.998 24.4324C35.9874 24.5352 35.9874 24.6416 35.998 24.7409C36.0725 25.3438 35.8136 25.8616 35.5228 26.3404C35.1752 26.9079 34.7141 27.3583 34.1644 27.7733C33.0685 28.5996 31.8946 28.5322 30.7136 28.2485C29.5184 27.9648 28.5253 27.2874 27.6635 26.383C26.3512 24.9998 25.9895 23.3684 26.2094 21.549C26.2378 21.3007 26.3229 21.0241 26.4718 20.8326C26.9329 20.2509 27.401 19.6586 27.9437 19.155C28.5608 18.584 29.2985 18.2222 30.1922 18.357C30.4157 18.3889 30.6497 18.3606 30.9193 18.3606C31.2881 17.3994 31.7492 16.5057 31.5506 15.4559C30.6285 14.9345 29.7099 14.4912 28.6282 14.5586C28.4083 14.5728 28.1742 14.4877 27.9543 14.4238C27.6316 14.3281 27.3939 14.4061 27.245 14.7111C27.1457 14.9168 27.0641 15.1296 26.979 15.3424C26.8158 15.7467 26.7095 16.1829 26.4825 16.5447C25.8405 17.5626 25.1348 18.5379 24.4751 19.5451C22.6238 22.3753 20.7866 25.2162 18.9317 28.0464C18.3004 29.0075 17.6337 29.9473 16.9917 30.9049C16.7151 31.3163 16.5413 31.7597 16.5555 32.2775C16.5768 33.2315 16.6052 34.1926 16.552 35.1467C16.4704 36.6362 16.8357 38.0442 17.2755 39.4345C18.3253 42.7577 19.595 46.0135 20.205 49.4714C20.4284 50.7447 20.8611 51.9789 21.1838 53.2344C21.5917 54.8162 21.9783 56.4015 22.3826 57.9833C22.6415 58.9905 22.9217 59.9942 23.1841 61.0014C23.4395 61.9874 23.6913 62.9769 23.9325 63.97C24.163 64.9098 24.3793 65.8497 24.5957 66.7931C24.7659 67.5449 24.9432 68.3181 25.4008 68.9281C25.8263 69.4991 26.0746 70.0666 26.0001 70.8007H25.9895ZM30.3518 19.6196C29.8943 19.7969 29.5042 19.843 29.2595 20.0629C28.7842 20.485 28.3622 20.9815 27.9791 21.4887C27.55 22.0526 27.5252 22.6732 27.706 23.3826C27.8621 24.0103 28.1884 24.5175 28.5395 24.9998C28.7913 25.3438 29.0538 25.7765 29.6141 25.7907C30.4263 25.812 31.1888 25.5956 31.9194 25.3048C32.189 25.1984 32.3947 24.8509 32.5614 24.5742C32.689 24.365 32.7422 24.0954 32.7742 23.8472C32.8664 23.0846 32.6536 22.4108 32.1854 21.7901C32.0613 21.8753 31.9797 21.9036 31.9372 21.9604C31.6038 22.4108 31.242 22.847 30.9547 23.3294C30.5682 23.9819 29.8163 23.8755 29.2772 24.2054C29.2275 24.2337 29.1247 24.1947 29.0573 24.1628C28.5182 23.9287 28.2593 22.9038 28.6353 22.4498C28.8481 22.1944 29.1318 21.9923 29.3339 21.7263C29.7773 21.1517 30.3199 20.6162 30.3518 19.6125V19.6196Z" fill="#0E332B"></path>
<path d="M34.3879 32.1675C34.6503 32.1888 34.7673 32.2349 34.8525 32.1994C35.6327 31.8731 36.4023 32.1108 37.1826 32.1959C38.5374 32.3413 39.7929 32.7137 40.8675 33.5755C41.4279 34.0259 41.9421 34.5331 42.499 34.9871C42.9316 35.3382 43.0735 35.8276 43.2047 36.3206C43.343 36.8384 43.453 37.3597 43.5594 37.8846C43.5984 38.0833 43.6303 38.2996 43.6019 38.4947C43.5771 38.6543 43.4494 38.9238 43.375 38.9203C43.1976 38.9167 42.9636 38.821 42.8643 38.6826C42.6692 38.4202 42.5486 38.101 42.3996 37.8066C42.1585 37.3314 42.0273 36.7426 41.662 36.3986C40.6512 35.4481 39.5411 34.6182 38.0941 34.4019C37.4911 34.3132 36.906 34.1111 36.3066 34.0295C36.0016 33.9905 35.6753 34.104 35.2426 34.1643C35.5582 35.1289 35.8065 35.9766 36.1151 36.8029C36.8634 38.8139 37.6649 40.8035 38.3778 42.8286C38.5409 43.2932 38.7431 43.4422 39.19 43.4386C40.5873 43.428 41.9811 43.4457 43.3785 43.428C43.8325 43.4209 44.2226 43.545 44.634 43.7188C46.418 44.4742 47.3684 45.9816 48.2125 47.5917C48.3331 47.8187 48.397 48.0776 48.5211 48.301C49.2801 49.67 49.3262 51.1561 49.234 52.6563C49.2162 52.9542 49.1169 53.2627 48.9857 53.5358C48.2338 55.0857 47.4748 56.6356 46.1732 57.8272C45.6874 58.2741 45.1589 58.5897 44.4851 58.6642C43.8821 58.7281 43.8041 58.9018 43.9672 59.5438C44.1339 60.207 44.3077 60.8738 44.4177 61.5476C44.5347 62.2676 44.0772 62.8173 43.7154 63.3706C43.6693 63.4415 43.2721 63.4096 43.187 63.3032C42.8394 62.8634 42.4954 62.4059 42.2542 61.9058C41.9953 61.3596 41.7258 60.7993 41.7932 60.1361C41.8216 59.8807 41.6336 59.6076 41.5236 59.2884C40.8711 59.2246 40.2114 59.1324 39.5482 59.0969C37.2854 58.9763 35.6327 57.9443 34.5404 55.9404C33.792 54.5679 33.3593 53.1209 33.182 51.5816C33.1749 51.532 33.182 51.4717 33.1536 51.4291C32.9089 51.039 33.0047 50.7553 33.4019 50.5425C33.8027 50.3297 34.2992 50.39 34.5829 50.7446C34.7567 50.961 34.8773 51.2234 35.005 51.4717C35.4696 52.3867 35.8952 53.323 36.4059 54.2097C36.6435 54.6211 36.984 55.029 37.3777 55.2879C38.2962 55.8872 39.2715 56.4086 40.2362 56.9335C40.4348 57.0399 40.7008 57.0186 40.9987 57.0683C40.0802 53.1634 38.7218 49.5317 37.2358 45.8255C36.2959 45.8255 35.3206 45.8397 34.3453 45.8184C33.9942 45.8113 33.636 45.7546 33.292 45.6624C30.7739 45.0027 29.4262 43.1585 28.6388 40.8567C28.3303 39.9594 28.1529 38.9451 28.6033 37.9981C28.9083 37.3527 29.2169 36.6894 29.6283 36.1078C30.4511 34.9445 31.4264 33.9195 32.6642 33.1818C32.9515 33.0116 33.0011 32.8165 32.9054 32.4725C32.7458 31.9122 32.6429 31.3234 32.6039 30.7418C32.5649 30.1424 32.7635 29.9793 33.3097 29.9828C33.8239 29.9863 33.9197 30.1282 34.0048 30.6886C34.0829 31.1816 34.2566 31.6603 34.3879 32.1533V32.1675ZM43.2721 56.6462C44.063 56.7597 44.5773 56.437 45.0525 55.944C46.0172 54.9438 46.6059 53.7167 47.2018 52.4931C47.3507 52.1846 47.4394 51.7909 47.4004 51.4575C47.3365 50.9042 47.1947 50.351 47.0031 49.8261C46.5314 48.5458 46.0101 47.2832 44.9922 46.3185C44.3999 45.7581 43.7261 45.3751 42.8501 45.4354C42.1301 45.485 41.4066 45.446 40.6831 45.446H39.3283C40.0979 47.3931 40.8711 49.1912 41.5201 51.0355C42.1691 52.8797 42.6905 54.7665 43.2721 56.6462ZM36.608 43.7685C35.8065 40.7893 34.8135 37.984 33.6182 35.1608C33.4338 35.2531 33.2281 35.3027 33.0969 35.4304C32.4656 36.0404 31.7846 36.615 31.2491 37.3065C30.6604 38.0726 30.0574 38.8139 30.3518 39.9984C30.7703 41.6972 31.7421 42.8605 33.26 43.5379C34.2744 43.9919 35.4128 43.9068 36.608 43.7685Z" fill="#0E332B"></path>
</g>
</g>
<defs>
<clipPath id="clip0_1745_12824">
<rect width="74" height="74" fill="white" transform="translate(0.5 0.32251)"></rect>
</clipPath>
<clipPath id="clip1_1745_12824">
<rect width="49.0957" height="74" fill="white" transform="translate(12.9521 0.32251)"></rect>
</clipPath>
</defs>
</svg>