<svg width="100%" height="100%" viewBox="0 0 75 75" fill="none" xmlns="http://www.w3.org/2000/svg">
<g clip-path="url(#clip0_1749_13084)">
<g clip-path="url(#clip1_1749_13084)">
<path d="M61.8087 62.3619C61.2729 62.7029 60.7504 63.066 60.2677 63.4734C61.0471 63.4601 64.5144 63.004 64.5144 64.4166C64.6516 65.9178 61.9194 65.6033 61.0161 65.5945C57.8455 65.5591 54.7103 65.8469 51.5485 65.838C48.2362 65.8292 44.9284 65.9 41.616 65.8956C36.0896 65.8956 30.5632 66.0506 25.0368 66.1436C22.9644 66.179 20.892 66.2277 18.8196 66.2499C18.4122 66.2499 17.5885 66.3251 17.5619 65.7096C17.5 64.1952 20.8433 64.4741 21.6625 64.4254C22.7784 64.3634 23.8987 64.3679 25.0146 64.3324C28.0435 64.235 31.0769 64.1287 34.1058 64.0402C35.6689 63.9959 37.2365 63.987 38.7997 63.9472C39.4949 63.9295 40.1946 63.8808 40.9164 63.7258C40.5577 63.5398 40.199 63.3538 39.8359 63.1722C39.4374 62.973 39.0432 62.7693 38.6536 62.5523C35.2571 60.6747 32.2504 58.1329 29.8901 55.0465C28.8318 53.6649 23.7615 47.0225 28.0701 46.8055C28.6591 46.7745 29.0266 47.1864 29.248 47.7488C30.0185 49.6927 31.0902 51.4729 32.3655 53.1202C36.5014 58.4783 41.9304 61.5958 48.6746 62.2689C54.2365 62.8224 59.1429 61.0733 63.4162 57.5617C67.8267 53.9394 70.5058 49.2676 71.1966 43.5995C72.0999 36.1468 70.0187 29.6418 64.5631 24.3456C61.1002 20.9802 56.9067 19.1026 52.1685 18.3764C45.9823 17.4287 39.9156 19.7447 35.1508 23.6769C32.0732 26.2143 30.0495 29.2167 28.5528 32.8921C28.0701 34.0744 27.9771 36.5144 26.4981 36.9129C21.5163 38.2591 26.414 28.1007 27.428 26.728C28.0081 25.9398 28.5262 25.1117 29.0709 24.3013C29.6156 23.491 30.3197 22.871 30.9529 22.1359C31.4134 21.6045 30.7802 21.0466 30.3507 20.7587C29.9255 20.4753 29.5447 20.1388 29.1639 19.8023C28.8849 19.5543 28.6236 19.0849 28.2827 18.9476C28.0923 19.1513 27.9151 19.4037 27.6937 19.572C27.2376 19.913 26.2855 20.5728 25.7719 19.9838C25.3202 19.4657 26.3653 18.2701 26.6841 17.9025C27.3616 17.1188 28.1144 16.2198 28.969 15.622C29.4606 15.2766 30.4702 15.1969 30.6031 15.9851C30.7138 16.6272 29.5093 17.752 29.1683 18.2214C29.155 18.2391 31.6835 20.6126 32.0334 20.617C32.9633 20.6259 34.7833 18.9078 35.6202 18.4295C39.4551 16.2375 43.4006 14.7585 47.8023 14.2581C47.634 14.2758 47.5809 10.9281 47.5941 10.72C46.8325 10.503 46.0354 10.6314 45.2516 10.627C43.5822 10.6226 42.2094 8.49701 44.4191 8.42173C47.0495 8.42173 49.4894 8.31545 52.1065 8.59C52.5228 8.63428 53.0187 8.73613 53.1604 9.13024C53.8468 11.0521 49.609 10.224 49.4673 10.6713C49.1086 11.8447 49.6577 13.0492 49.3964 14.3024C50.3086 14.422 51.2253 14.5105 52.1286 14.6611C57.5665 15.5866 62.3003 17.9468 66.3344 21.702C69.505 24.6512 72.4276 28.61 73.4771 32.8655C74.2343 35.9431 74.6151 39.1314 74.4779 42.3065C74.3583 44.9855 74.0395 47.3591 72.9634 49.8123C71.8874 52.2655 70.6607 54.4797 69.0666 56.5255C67.8931 58.0311 66.4406 59.3064 64.8996 60.4223C63.9166 61.1308 62.8405 61.7154 61.8176 62.3663L61.8087 62.3619Z" fill="#0E332B"></path>
<path d="M0.672711 42.0452C0.730278 41.9744 0.805558 41.9035 0.902979 41.8415C1.57164 41.412 2.58127 41.6378 3.32522 41.6201C4.58726 41.5891 5.8493 41.5625 7.11134 41.5271C8.25825 41.4961 9.40516 41.4208 10.5521 41.3943C12.2747 41.3544 14.0017 41.3544 15.7242 41.3013C19.3908 41.1906 23.0574 41.0533 26.7239 40.9293C28.0657 40.885 29.403 40.8452 30.7448 40.8186C31.0237 40.8142 31.3249 40.8363 31.5861 40.9249C32.1264 41.1108 32.2858 42.1161 31.9404 42.5633C31.6127 42.9928 30.4038 43.0814 29.9255 43.0947C26.3697 43.1833 22.805 43.1788 19.2358 43.232C16.4593 43.2762 13.6828 43.5242 10.9108 43.4622C7.94385 43.3958 4.90609 43.7988 1.98789 43.2408C1.48308 43.1434 -0.00480646 42.891 0.668283 42.0408L0.672711 42.0452Z" fill="#0E332B"></path>
<path d="M47.0362 25.8866C48.2805 26.0018 48.3292 26.0416 48.3957 27.1177C48.6126 30.6514 48.8075 34.1851 49.0333 37.7188C49.1086 38.8613 49.2503 39.9949 49.3743 41.2304C50.2378 41.1286 51.0216 41.0444 51.801 40.947C54.1125 40.6636 56.424 40.3802 58.7356 40.0968C59.3024 40.0304 59.8116 40.1455 60.2367 40.6016C60.3209 41.226 59.8692 41.6555 59.5725 42.1205C59.4574 42.302 59.0854 42.3818 58.8197 42.395C57.9296 42.4526 57.0351 42.4216 56.1495 42.4925C53.7981 42.6829 51.4467 42.891 49.0953 43.1301C47.9617 43.2453 47.7093 43.1478 47.51 42.0718C47.3196 41.04 47.1203 39.9905 47.0982 38.941C47.0052 35.0176 46.9786 31.0986 46.9388 27.1752C46.9388 26.7678 46.9963 26.3605 47.0318 25.8822L47.0362 25.8866Z" fill="#0E332B"></path>
<path d="M16.9597 30.2617C14.8519 30.2617 12.7485 30.2484 10.6407 30.2661C9.55574 30.275 8.47525 30.3458 7.39034 30.3591C6.58883 30.368 5.7209 29.6152 6.50027 28.8491C6.62868 28.7251 6.80138 28.6543 6.96966 28.5923C8.19627 28.1185 9.78158 28.1893 11.0968 28.1627C13.0895 28.1273 15.0777 28.1096 17.0704 28.0963C18.0402 28.0919 19.01 28.083 19.9798 28.0786C20.7769 28.0742 22.7651 27.6668 23.0042 28.8137C23.2079 29.7923 22.3002 30.1731 21.5518 30.1776C20.0196 30.1776 18.4875 30.1776 16.9553 30.1776C16.9553 30.2041 16.9553 30.2351 16.9553 30.2617H16.9597Z" fill="#0E332B"></path>
<path d="M23.1459 49.7547C23.2257 50.1223 23.0972 50.5518 22.7253 50.8485C22.1407 51.309 21.233 51.247 20.5377 51.2559C18.917 51.2736 17.2963 51.2825 15.6711 51.278C14.6969 51.278 13.7271 51.2338 12.7529 51.2028C12.0665 51.1806 10.9639 51.3755 10.6008 50.5872C10.4192 50.1931 10.6229 49.5023 11.0968 49.4448C11.6326 49.3783 12.1684 49.2765 12.7042 49.2632C14.5198 49.2145 16.3353 49.2145 18.1509 49.1658C19.4572 49.1304 20.7591 49.0551 22.061 48.9931C22.6633 48.9665 23.0441 49.3208 23.1371 49.7547H23.1459Z" fill="#0E332B"></path>
<path d="M19.1251 35.301C19.3155 35.642 19.3155 36.1025 19.1738 36.4612C18.9347 37.0767 18.5539 37.1166 17.9384 37.1033C16.5656 37.0723 15.1884 37.1033 13.8157 37.0812C12.6378 37.0634 11.4554 37.0236 10.2775 36.966C9.70186 36.9395 8.83393 36.7668 8.98449 36.0671C9.2369 34.8892 10.8576 35.0265 11.7167 34.9778C13.86 34.8538 15.9589 34.7032 18.0978 34.8139C18.2838 34.8228 18.4742 34.8316 18.6469 34.8936C18.8638 34.9689 19.0233 35.1195 19.1207 35.301H19.1251Z" fill="#0E332B"></path>
<path d="M4.04701 35.3364C4.48983 35.363 4.94151 35.3453 5.37547 35.4206C5.90243 35.5136 6.19469 35.859 6.1637 36.2309C6.12827 36.6649 5.68102 37.1432 5.23377 37.1609C4.60053 37.1874 3.96287 37.183 3.32521 37.1609C2.80711 37.1432 2.35985 36.6516 2.41742 36.107C2.51041 35.2479 3.40049 35.3896 4.04258 35.3896C4.04258 35.3719 4.04258 35.3542 4.04258 35.3364H4.04701Z" fill="#0E332B"></path>
</g>
</g>
<defs>
<clipPath id="clip0_1749_13084">
<rect width="74" height="74" fill="white" transform="translate(0.5 0.32251)"></rect>
</clipPath>
<clipPath id="clip1_1749_13084">
<rect width="74" height="57.8547" fill="white" transform="translate(0.5 8.39516)"></rect>
</clipPath>
</defs>
</svg>