<svg width="100%" height="100%" viewBox="0 0 74 75" fill="none" xmlns="http://www.w3.org/2000/svg">
<g clip-path="url(#clip0_1743_12707)">
<path d="M53.51 14.1451C53.9522 13.9833 54.4844 13.7891 55.0309 13.5914C54.9985 13.3397 55.1171 13.1995 55.4623 13.1779C55.8866 13.1492 56.3108 13.1204 56.7387 13.106C57.7813 13.0773 58.8276 13.0557 59.8738 13.0341C60.2478 13.0269 60.6325 12.9694 60.9884 13.0485C61.4019 13.1384 61.8046 13.3217 62.1713 13.5339C62.3115 13.6166 62.4014 13.8898 62.4122 14.084C62.4409 14.7383 62.4373 15.3927 62.4194 16.047C62.3834 17.3414 62.3331 18.6393 62.2756 19.9337C62.2432 20.6635 62.1821 21.3934 62.1353 22.1232C62.0634 23.2774 61.9987 24.4315 61.916 25.5856C61.8909 25.9451 61.8441 26.3119 61.747 26.657C61.6032 27.1712 61.4882 27.2323 60.9417 27.2503C60.3017 27.2718 59.6941 28.1599 59.917 28.7567C59.9386 28.8178 60.0177 28.8646 60.0824 28.8969C60.3736 29.0443 60.6792 29.1594 60.9561 29.3284C61.4738 29.6448 61.4091 30.2164 61.4918 30.709C61.7794 32.4312 61.5996 34.1678 61.632 35.9007C61.6607 37.3533 61.6032 38.8058 61.65 40.2583C61.6823 41.2435 61.8261 42.225 61.916 43.2101C61.9412 43.4906 61.9843 43.7746 61.9915 44.0551C62.0203 45.3027 62.0886 46.5503 62.0455 47.7943C62.0239 48.3983 62.1066 49.0634 61.7075 49.6063C61.5996 49.7537 61.4378 49.8652 61.2904 49.9802C60.8913 50.2895 60.37 50.3937 60.0536 50.8575C59.5251 51.6341 59.4712 52.382 59.8954 53.2233C60.0896 53.6116 60.3952 53.7698 60.7439 53.9208C60.9525 54.0107 61.0783 54.1365 61.0711 54.4026C61.0351 55.7616 61.2257 57.1027 61.4091 58.4474C61.5313 59.3426 61.5996 60.2523 61.6212 61.1583C61.632 61.6185 61.5097 62.0859 61.4055 62.5389C61.3767 62.6648 61.2149 62.8014 61.0819 62.8517C60.3233 63.1465 59.5359 63.2724 58.7197 63.276C57.544 63.276 56.3683 63.3119 55.1927 63.3479C54.0529 63.3838 52.9168 63.4198 51.7806 63.4953C51.4786 63.5133 51.1694 63.6355 50.889 63.7649C50.6589 63.8692 50.4899 63.844 50.3029 63.7002C49.6018 63.1645 48.9043 62.6252 48.196 62.0967C47.8761 61.8594 47.5668 61.5861 47.2073 61.4351C46.7004 61.2194 46.2294 61.4747 45.7871 61.7192C45.4528 61.9061 45.2514 62.2081 45.1256 62.5605C45.0501 62.769 44.935 62.8553 44.7049 62.8517C43.9319 62.8409 43.1553 62.8733 42.3823 62.8409C41.0952 62.7906 39.8116 62.6935 38.5245 62.636C37.6364 62.5964 36.7448 62.5964 35.8567 62.5569C35.4972 62.5425 35.1376 62.4634 34.7781 62.4275C34.3646 62.3843 34.0446 62.201 33.8469 61.827C33.5772 61.3165 33.0847 61.223 32.5813 61.1295C32.3296 61.0828 32.1175 61.0972 31.9018 61.2626C31.5818 61.5106 31.233 61.7228 30.8951 61.9493C30.8591 61.9744 30.8088 61.9888 30.7656 61.9852C30.1832 61.9673 29.6043 61.9493 29.0219 61.9313C28.9751 61.9313 28.9284 61.9205 28.8817 61.9205C28.026 61.8953 27.1738 61.8738 26.3181 61.8486C25.6314 61.827 24.9411 61.7803 24.2544 61.7839C22.9924 61.7911 21.734 61.8234 20.4757 61.8522C18.9764 61.8881 17.4807 61.9601 15.9814 61.9601C15.0718 61.9601 14.1622 61.8486 13.2525 61.8019C13.1662 61.7983 13.044 61.8738 12.9937 61.9457C12.7851 62.2693 12.5622 62.3088 12.404 61.9816C12.235 61.6329 12.1128 61.2446 12.0481 60.8599C11.9906 60.5003 12.0337 60.1228 12.0373 59.7561C12.0409 59.2599 12.0445 58.7889 11.7533 58.3323C11.4512 57.8541 11.6166 57.304 11.7101 56.7827C11.8935 55.7796 12.4076 54.9239 12.9325 54.0754C13.2957 53.4857 13.4611 52.8566 13.5366 52.1734C12.5694 51.911 12.2135 51.0948 12.1416 50.2895C12.0193 48.9196 12.102 47.5318 12.1128 46.1548C12.12 45.3494 12.138 44.5404 12.1847 43.7351C12.235 42.865 12.3465 41.9949 12.386 41.1248C12.4364 40.0426 12.404 38.9604 12.4723 37.8818C12.555 36.6342 12.4723 35.3758 12.7672 34.1426C12.8858 33.6392 12.8606 33.6321 13.4107 33.6321C13.648 33.6321 13.8853 33.6321 14.2485 33.6321C13.8709 33.064 13.5438 32.5534 13.2022 32.0537C13.0188 31.784 12.7851 31.5431 12.6305 31.2591C12.5083 31.0326 12.404 30.7593 12.4004 30.5041C12.386 26.79 12.3968 23.0724 12.3824 19.3584C12.3824 18.9917 12.5227 18.8443 12.8355 18.7148C13.3748 18.4883 13.8889 18.5926 14.4102 18.7472C14.8453 18.8766 15.2731 19.0132 15.7945 19.175C15.5032 18.5386 15.2012 18.0209 14.7482 17.611C14.3887 17.2839 13.9968 16.9962 13.6229 16.6906C13.5617 16.6403 13.5006 16.5828 13.4575 16.5144C13.3065 16.2664 13.1662 16.0291 12.9361 15.8241C12.5946 15.5257 12.5586 15.0547 12.5406 14.6197C12.5227 14.1918 12.5191 13.7604 12.5478 13.3361C12.5586 13.1851 12.6485 12.9802 12.7672 12.9083C13.479 12.4409 14.2197 12.0562 15.1006 12.0274C16.0569 11.9951 17.0133 11.9375 17.9733 11.8872C18.4227 11.8656 18.8757 11.8153 19.3251 11.8225C20.4649 11.844 21.601 11.898 22.7407 11.9303C23.0248 11.9375 23.3088 11.8944 23.5893 11.9016C26.1204 11.9411 28.648 11.9843 31.1755 12.0382C31.5494 12.0454 31.9377 12.0849 32.2865 12.2072C32.4591 12.2683 32.6316 12.5344 32.6712 12.7321C32.8186 13.4979 33.4766 13.8431 34.1884 13.4979C34.6307 13.2822 35.0729 13.0665 35.5223 12.8723C35.9717 12.6782 36.4248 12.5487 36.9389 12.5775C37.2409 12.5955 37.5537 12.3546 37.8701 12.3043C38.1469 12.2611 38.4454 12.315 38.7294 12.3366C38.8193 12.3438 38.9128 12.3941 39.0027 12.3869C40.297 12.2971 41.5913 12.2036 42.8857 12.1101C42.9684 12.1029 43.0511 12.1065 43.1337 12.1029C44.0614 12.0813 44.989 12.0202 45.9166 12.0454C46.9772 12.0742 48.0378 12.1784 49.0985 12.2431C49.6773 12.2791 50.2598 12.2827 50.835 12.3294C51.004 12.3438 51.1658 12.4589 51.3312 12.52C51.4211 12.5559 51.5218 12.6135 51.6117 12.5991C52.0791 12.5308 52.5069 12.6746 52.9276 12.8364C53.0139 12.8687 53.093 12.9766 53.1289 13.0665C53.2691 13.4296 53.3914 13.7963 53.5136 14.1487L53.51 14.1451ZM51.2953 13.6453C50.4144 13.5806 49.5803 13.4763 48.7461 13.4656C45.3305 13.4224 41.9149 13.408 38.4993 13.3937C38.3483 13.3937 38.1685 13.4476 38.0499 13.5375C37.3668 14.084 36.698 14.652 36.0257 15.2129C34.9075 16.1441 33.775 17.0609 32.6748 18.0137C31.3481 19.1606 30.0502 20.3399 28.7414 21.5084C28.4143 21.7997 28.1985 22.0873 28.2273 22.6086C28.274 23.4895 28.1266 24.3775 28.1158 25.262C28.0943 26.9986 28.1086 28.7387 28.1086 30.4753V30.8924C28.2597 30.8924 28.3747 30.8852 28.4898 30.8924C29.1261 30.9355 29.7589 30.9859 30.3953 31.0326C31.0533 31.0793 31.7112 31.1512 32.3692 31.1692C32.8905 31.1836 33.4118 31.1333 33.9296 31.1009C34.0159 31.0973 34.1057 31.0506 34.1776 31.0002C35.2563 30.2272 36.2917 29.3859 37.4207 28.692C38.8265 27.8255 40.1891 26.9159 41.4763 25.8804C41.8682 25.5676 42.3571 25.3231 42.8425 25.1973C43.407 25.0535 44.011 25.0499 44.6007 25.0355C45.5391 25.0103 46.481 25.0283 47.4051 25.0283C47.4051 24.8378 47.3547 24.6436 47.4122 24.4854C48.3039 22.0082 49.2135 19.5346 50.1088 17.0573C50.5151 15.9248 50.8962 14.7851 51.2881 13.6381L51.2953 13.6453ZM42.0515 52.2633C42.0443 52.2274 42.0372 52.1914 42.0336 52.1555C42.0659 52.0116 42.0803 51.8606 42.1378 51.7312C42.5765 50.7209 43.0223 49.7142 43.4681 48.7111C43.5616 48.499 43.5436 48.33 43.3962 48.1322C42.3032 46.6725 41.1994 45.2164 40.146 43.7279C39.2004 42.394 38.2908 41.0385 37.4099 39.6615C36.5614 38.3384 35.7632 36.9794 34.9614 35.6275C34.7925 35.3399 34.5588 35.2608 34.2639 35.2608C33.8469 35.2608 33.4298 35.2787 33.0127 35.2536C31.7148 35.1709 30.4205 35.0307 29.1225 34.9875C28.1015 34.9516 27.0804 35.0199 26.0593 35.0486C25.635 35.0594 25.2108 35.0882 24.7865 35.1241C24.6751 35.1349 24.56 35.1853 24.4593 35.2428C24.276 35.3435 24.107 35.4657 23.9272 35.5628C23.7439 35.6634 23.636 35.7893 23.6827 36.0122C23.9092 37.0477 24.1214 38.0903 24.3659 39.1222C24.6427 40.3015 25.1029 41.4376 25.2 42.6672C25.2323 43.1095 25.3294 43.5409 25.6961 43.9041C26.728 44.9251 27.706 45.9966 28.7127 47.0392C30.3989 48.783 32.0995 50.516 33.7858 52.2633C33.9511 52.4323 34.1165 52.4826 34.3466 52.4862C35.7452 52.5078 37.1331 52.3927 38.5281 52.2849C39.6966 52.195 40.8794 52.2669 42.0587 52.2669L42.0515 52.2633ZM38.3986 33.8226C39.6103 35.4441 40.8471 37.116 42.1019 38.7699C42.8713 39.7837 43.6731 40.7689 44.464 41.7648C45.4096 42.9585 46.4703 44.0299 47.7862 44.8209C47.9012 44.8892 48.0522 44.9719 48.1637 44.9467C49.1416 44.7274 50.1124 44.4901 51.0867 44.2492C51.1766 44.2276 51.3025 44.1665 51.3312 44.091C51.6332 43.3324 52.1078 42.6421 52.1977 41.8008C52.2768 41.0673 52.3487 40.3267 52.5069 39.6076C52.8449 38.0903 53.2583 36.5911 53.6035 35.0774C53.9415 33.5853 54.2399 32.0824 54.5419 30.5832C54.6857 29.8785 54.6713 29.8857 53.9702 29.8965C52.0898 29.9252 50.2131 29.9432 48.3327 29.972C47.3224 29.9863 46.3121 30.0187 45.3054 30.0439C45.237 30.0439 45.1651 30.069 45.0968 30.0726C44.4281 30.1337 43.7593 30.1877 43.0942 30.2524C42.9899 30.2632 42.8641 30.2812 42.785 30.3459C41.3396 31.482 39.9015 32.6289 38.3914 33.8262L38.3986 33.8226ZM30.2479 60.7268C30.2731 60.3529 30.3162 59.9898 30.3234 59.6231C30.3522 58.2568 30.3737 56.8906 30.3953 55.5279C30.3953 55.4272 30.3594 55.323 30.3198 55.2295C30.1508 54.8304 29.8344 54.5608 29.5252 54.2659C28.9787 53.7446 28.5041 53.1442 27.9756 52.6013C27.2493 51.8534 26.4979 51.1272 25.7573 50.3937C25.2611 49.9047 24.7901 49.387 24.2616 48.934C23.7726 48.5169 23.0499 48.5888 22.5825 49.0419C21.6082 49.9874 20.6374 50.9366 19.6667 51.8822C19.5804 51.9649 19.4941 52.044 19.4006 52.1159C18.678 52.684 17.9121 53.2053 17.2398 53.8273C15.8412 55.118 14.4893 56.4555 13.1303 57.7858C13.0296 57.8829 12.9685 58.0734 12.9685 58.2173C12.9685 58.7494 13.0116 59.2779 13.0296 59.81C13.0404 60.1264 13.0296 60.4428 13.0296 60.7268H30.2479ZM46.2581 54.9814C46.33 55.0354 46.4055 55.0749 46.4487 55.136C46.9916 55.9018 47.5417 56.6605 48.0666 57.4371C48.7641 58.4725 49.4185 59.5332 50.1304 60.5579C50.5654 61.1835 51.0723 61.7623 51.5613 62.3484C51.626 62.4275 51.7842 62.4742 51.8957 62.4634C52.906 62.3807 53.9091 62.2549 54.9194 62.2009C56.0699 62.1398 57.224 62.1434 58.3746 62.1218C58.4465 62.1218 58.5148 62.1111 58.5867 62.1039C59.3022 62.0284 60.0177 61.9493 60.8122 61.863C60.7547 61.2122 60.7152 60.4824 60.6253 59.7597C60.5138 58.8644 60.3592 57.9764 60.2298 57.0811C60.1399 56.4519 60.0464 55.8263 59.9961 55.1936C59.9781 54.9563 59.9026 54.8484 59.6905 54.7513C59.3381 54.5895 58.9858 54.417 58.673 54.1904C57.4541 53.306 56.2892 52.3388 55.0273 51.5155C54.0673 50.8899 53.1685 50.1996 52.2732 49.4949C51.9892 49.272 51.7267 49.0203 51.4247 48.7542C50.5618 49.0059 49.6522 49.272 48.7461 49.5344C48.4261 49.6279 48.1709 49.7933 48.0486 50.1241C47.4518 51.7384 46.8514 53.3563 46.2509 54.9778L46.2581 54.9814ZM23.4311 22.9718C23.2657 22.907 23.129 22.8459 22.9852 22.7992C21.1336 22.1844 19.2748 21.5947 17.4304 20.9547C16.172 20.5197 14.9424 20.0092 13.6948 19.5454C13.5653 19.4986 13.4035 19.5382 13.3172 19.5382V23.5938C13.3172 25.546 13.3172 27.4983 13.3172 29.4506C13.3172 29.6124 13.328 29.7922 13.3927 29.9324C13.4395 30.0367 13.5833 30.1589 13.6912 30.1697C14.2089 30.2164 14.7338 30.2272 15.2552 30.2524C15.6794 30.274 16.1037 30.2955 16.5279 30.3315C17.5382 30.4178 18.5449 30.522 19.5516 30.6083C20.5152 30.6874 21.4824 30.7522 22.4495 30.8205C22.7767 30.8456 23.1003 30.8636 23.4239 30.8852V22.9718H23.4311ZM13.2597 50.5016C13.5006 50.5555 13.666 50.5591 13.7918 50.6274C13.9968 50.7389 14.1118 50.6454 14.2485 50.516C14.5397 50.2355 14.8345 49.9623 15.1365 49.6926C16.1145 48.8297 17.1032 47.9812 18.0775 47.1147C19.0447 46.2554 20.0011 45.3818 20.9574 44.5081C21.0293 44.4434 21.1084 44.3247 21.0977 44.2456C21.0221 43.7962 20.9538 43.3432 20.8172 42.9117C20.2132 40.9882 19.7458 39.0323 19.3898 37.0477C19.2856 36.4724 19.1633 35.9007 19.0303 35.3327C19.0123 35.25 18.8973 35.1313 18.8182 35.1241C18.1243 35.0594 17.4268 35.0307 16.7329 34.9695C16.0893 34.912 15.4457 34.8257 14.8021 34.7682C14.3132 34.725 13.8242 34.7035 13.3172 34.6747C13.3172 35.1601 13.3101 35.5843 13.3172 36.005C13.3352 36.8967 13.3927 37.7883 13.382 38.6764C13.3604 40.075 13.2849 41.47 13.2489 42.8686C13.213 44.2816 13.195 45.6946 13.177 47.1075C13.1662 47.8698 13.1662 48.632 13.177 49.3942C13.1842 49.7645 13.231 50.1348 13.2561 50.5052L13.2597 50.5016ZM52.7586 25.6935C53.4093 25.902 54.017 26.0818 54.6785 25.9883C54.887 25.9595 55.1064 25.9595 55.3185 25.9703C56.0627 26.0098 56.8034 26.0854 57.544 26.0961C58.3386 26.1069 59.1332 26.0566 59.9314 26.035C60.1794 26.0278 60.4275 26.035 60.6792 26.035C60.7403 25.7186 60.823 25.4346 60.841 25.1434C60.9021 24.187 60.9309 23.2306 60.992 22.2742C61.0495 21.3934 61.143 20.5125 61.2005 19.6316C61.2832 18.2654 61.3479 16.8956 61.4199 15.5257C61.4414 15.1051 61.4738 14.6844 61.5025 14.2637C61.2653 14.2278 61.0783 14.181 60.8913 14.1739C59.8702 14.1415 58.8492 14.1343 57.8281 14.0948C57.3822 14.0768 56.9364 14.0193 56.4906 13.9617C56.2749 13.933 56.1706 14.0013 56.1239 14.2206C56.0268 14.652 55.9297 15.0835 55.7859 15.5005C55.5126 16.3095 55.1207 17.0861 54.9338 17.913C54.3441 20.5233 53.661 23.1084 52.755 25.6899L52.7586 25.6935ZM60.1291 30.4286C59.8271 30.5796 59.4352 30.3531 59.295 30.7593C59.1224 31.2555 58.9822 31.7625 58.8456 32.2694C57.9827 35.4549 57.0407 38.6117 55.714 41.6426C55.6888 41.7001 55.6565 41.8044 55.6816 41.8295C55.9836 42.11 55.7787 42.3832 55.6565 42.6313C55.2933 43.3576 54.9661 44.0946 54.79 44.8892C54.7468 45.0833 54.7612 45.2056 54.941 45.3278C55.4551 45.6802 55.9549 46.0469 56.4618 46.4136C57.242 46.9781 58.015 47.5534 58.806 48.1035C59.1332 48.3336 59.5287 48.4738 59.8307 48.7291C60.1399 48.9879 60.4491 48.898 60.7691 48.8729C60.8266 48.8693 60.9093 48.7506 60.9165 48.6787C60.974 47.9596 61.0603 47.2406 61.0567 46.5215C61.0567 45.6838 60.974 44.8425 60.9201 44.0047C60.9057 43.7566 60.8626 43.5122 60.8374 43.2677C60.7475 42.4264 60.6145 41.585 60.5749 40.7401C60.4563 38.2809 60.7439 35.8109 60.3664 33.3516C60.2226 32.4204 60.2154 31.4712 60.1399 30.4358L60.1291 30.4286ZM30.7189 13.3433C30.5679 13.3182 30.3414 13.2498 30.1113 13.2498C28.6947 13.2391 27.2781 13.2498 25.8579 13.2426C25.6458 13.2426 25.4337 13.1707 25.2252 13.1851C24.0495 13.2678 22.8774 13.3901 21.7017 13.4548C20.6842 13.5123 19.6595 13.4943 18.6384 13.5339C17.1391 13.5914 15.6363 13.6741 14.137 13.746C14.0112 13.7532 13.8853 13.746 13.7487 13.746V14.7491C14.9963 15.3783 16.2906 15.9068 17.6605 16.252C18.9944 16.5864 20.339 16.8992 21.6298 17.3486C22.5394 17.665 23.3699 18.2115 24.2472 18.6285C24.3982 18.7004 24.6499 18.7148 24.7901 18.6393C25.1856 18.4236 25.5775 18.1755 25.9191 17.8807C27.1487 16.8236 28.3567 15.7378 29.5828 14.6736C29.6978 14.5729 29.8884 14.5514 30.0034 14.4507C30.2371 14.2458 30.4564 14.0228 30.6542 13.7856C30.7189 13.7065 30.6901 13.5519 30.7117 13.3433H30.7189ZM34.9219 61.2697C35.3569 61.2949 35.7165 61.3309 36.076 61.3381C37.6544 61.3668 39.2364 61.3884 40.8147 61.4136C40.8507 61.4136 40.8866 61.4136 40.9226 61.4136C41.9688 61.4855 43.0151 61.5574 44.0649 61.6257C44.1225 61.6293 44.1836 61.6329 44.2447 61.6257C44.2986 61.6185 44.3741 61.6077 44.3957 61.5718C44.5719 61.2661 44.7481 60.9605 44.8991 60.6441C44.935 60.565 44.9135 60.4105 44.8559 60.3457C44.3921 59.7956 43.9067 59.2563 43.4394 58.7098C43.0043 58.2065 42.5801 57.6923 42.1486 57.1854C42.0911 57.1171 42.03 57.002 41.9688 56.9984C41.5662 56.9841 41.1347 56.9086 40.7644 57.0236C40.5199 57.0991 40.3617 57.4586 40.164 57.6852C40.1568 57.6959 40.1208 57.6852 40.0525 57.6744C40.2143 57.4407 40.3653 57.2249 40.5451 56.9589C40.2646 56.9948 40.0453 57.0416 39.8224 57.0524C38.6036 57.1063 37.3883 57.153 36.1695 57.1962C35.7524 57.2106 35.6302 57.3112 35.5547 57.7103C35.436 58.3539 35.3138 58.9975 35.1987 59.641C35.1053 60.166 35.0226 60.6945 34.9291 61.2697H34.9219Z" fill="#0E332B"></path>
</g>
<defs>
<clipPath id="clip0_1743_12707">
<rect width="50.8531" height="52" fill="white" transform="translate(11.5735 11.8223)"></rect>
</clipPath>
</defs>
</svg>